<?xml version="1.0" encoding="utf-8" standalone="no"?>
<!DOCTYPE svg PUBLIC "-//W3C//DTD SVG 1.1//EN"
  "http://www.w3.org/Graphics/SVG/1.1/DTD/svg11.dtd">
<svg xmlns:xlink="http://www.w3.org/1999/xlink" width="600.3pt" height="302.688pt" viewBox="0 0 600.3 302.688" xmlns="http://www.w3.org/2000/svg" version="1.1">
 <metadata>
  <rdf:RDF xmlns:dc="http://purl.org/dc/elements/1.1/" xmlns:cc="http://creativecommons.org/ns#" xmlns:rdf="http://www.w3.org/1999/02/22-rdf-syntax-ns#">
   <cc:Work>
    <dc:type rdf:resource="http://purl.org/dc/dcmitype/StillImage"/>
    <dc:date>2026-06-23T12:08:34.275471</dc:date>
    <dc:format>image/svg+xml</dc:format>
    <dc:creator>
     <cc:Agent>
      <dc:title>Matplotlib v3.10.1, https://matplotlib.org/</dc:title>
     </cc:Agent>
    </dc:creator>
   </cc:Work>
  </rdf:RDF>
 </metadata>
 <defs>
  <style type="text/css">*{stroke-linejoin: round; stroke-linecap: butt}</style>
 </defs>
 <g id="figure_1">
  <g id="patch_1">
   <path d="M 0 302.688 
L 600.3 302.688 
L 600.3 0 
L 0 0 
z
" style="fill: #ffffff"/>
  </g>
  <g id="axes_1">
   <g id="patch_2">
    <path d="M 31.659903 109.446144 
L 136.325534 109.446144 
Q 139.738544 109.446144 139.738544 104.833536 
L 139.738544 54.094848 
Q 139.738544 49.48224 136.325534 49.48224 
L 31.659903 49.48224 
Q 28.246893 49.48224 28.246893 54.094848 
L 28.246893 104.833536 
Q 28.246893 109.446144 31.659903 109.446144 
z
" clip-path="url(#p423502e4e9)" style="fill: #f2f5fa; stroke: #2f3a4a; stroke-linejoin: miter"/>
   </g>
   <g id="patch_3">
    <path d="M 140.036015 79.464192 
Q 155.101017 79.464192 168.936181 79.464192 
" clip-path="url(#p423502e4e9)" style="fill: none; stroke: #2f3a4a; stroke-width: 1.1; stroke-linecap: round"/>
    <path d="M 164.136181 77.064192 
L 168.936181 79.464192 
L 164.136181 81.864192 
z
" clip-path="url(#p423502e4e9)" style="fill: #2f3a4a; stroke: #2f3a4a; stroke-width: 1.1; stroke-linecap: round"/>
   </g>
   <g id="patch_4">
    <path d="M 173.868641 109.446144 
L 278.534272 109.446144 
Q 281.947282 109.446144 281.947282 104.833536 
L 281.947282 54.094848 
Q 281.947282 49.48224 278.534272 49.48224 
L 173.868641 49.48224 
Q 170.455631 49.48224 170.455631 54.094848 
L 170.455631 104.833536 
Q 170.455631 109.446144 173.868641 109.446144 
z
" clip-path="url(#p423502e4e9)" style="fill: #f2f5fa; stroke: #2f3a4a; stroke-linejoin: miter"/>
   </g>
   <g id="patch_5">
    <path d="M 282.244753 79.464192 
Q 297.309755 79.464192 311.144919 79.464192 
" clip-path="url(#p423502e4e9)" style="fill: none; stroke: #2f3a4a; stroke-width: 1.1; stroke-linecap: round"/>
    <path d="M 306.344919 77.064192 
L 311.144919 79.464192 
L 306.344919 81.864192 
z
" clip-path="url(#p423502e4e9)" style="fill: #2f3a4a; stroke: #2f3a4a; stroke-width: 1.1; stroke-linecap: round"/>
   </g>
   <g id="patch_6">
    <path d="M 316.077379 109.446144 
L 420.74301 109.446144 
Q 424.156019 109.446144 424.156019 104.833536 
L 424.156019 54.094848 
Q 424.156019 49.48224 420.74301 49.48224 
L 316.077379 49.48224 
Q 312.664369 49.48224 312.664369 54.094848 
L 312.664369 104.833536 
Q 312.664369 109.446144 316.077379 109.446144 
z
" clip-path="url(#p423502e4e9)" style="fill: #f2f5fa; stroke: #2f3a4a; stroke-linejoin: miter"/>
   </g>
   <g id="patch_7">
    <path d="M 424.453491 79.464192 
Q 439.518493 79.464192 453.353657 79.464192 
" clip-path="url(#p423502e4e9)" style="fill: none; stroke: #2f3a4a; stroke-width: 1.1; stroke-linecap: round"/>
    <path d="M 448.553657 77.064192 
L 453.353657 79.464192 
L 448.553657 81.864192 
z
" clip-path="url(#p423502e4e9)" style="fill: #2f3a4a; stroke: #2f3a4a; stroke-width: 1.1; stroke-linecap: round"/>
   </g>
   <g id="patch_8">
    <path d="M 458.286117 109.446144 
L 562.951748 109.446144 
Q 566.364757 109.446144 566.364757 104.833536 
L 566.364757 54.094848 
Q 566.364757 49.48224 562.951748 49.48224 
L 458.286117 49.48224 
Q 454.873107 49.48224 454.873107 54.094848 
L 454.873107 104.833536 
Q 454.873107 109.446144 458.286117 109.446144 
z
" clip-path="url(#p423502e4e9)" style="fill: #f8f8f3; stroke: #2f3a4a; stroke-linejoin: miter"/>
   </g>
   <g id="patch_9">
    <path d="M 510.618932 109.143404 
Q 510.618932 145.581499 510.618932 180.789756 
" clip-path="url(#p423502e4e9)" style="fill: none; stroke: #2f3a4a; stroke-width: 1.1; stroke-linecap: round"/>
    <path d="M 513.018932 175.989756 
L 510.618932 180.789756 
L 508.218932 175.989756 
z
" clip-path="url(#p423502e4e9)" style="fill: #2f3a4a; stroke: #2f3a4a; stroke-width: 1.1; stroke-linecap: round"/>
   </g>
   <g id="patch_10">
    <path d="M 458.286117 247.824384 
L 562.951748 247.824384 
Q 566.364757 247.824384 566.364757 243.211776 
L 566.364757 192.473088 
Q 566.364757 187.86048 562.951748 187.86048 
L 458.286117 187.86048 
Q 454.873107 187.86048 454.873107 192.473088 
L 454.873107 243.211776 
Q 454.873107 247.824384 458.286117 247.824384 
z
" clip-path="url(#p423502e4e9)" style="fill: #fff5f3; stroke: #2f3a4a; stroke-linejoin: miter"/>
   </g>
   <g id="patch_11">
    <path d="M 454.575635 217.842432 
Q 439.510634 217.842432 425.67547 217.842432 
" clip-path="url(#p423502e4e9)" style="fill: none; stroke: #2f3a4a; stroke-width: 1.1; stroke-linecap: round"/>
    <path d="M 430.47547 220.242432 
L 425.67547 217.842432 
L 430.47547 215.442432 
z
" clip-path="url(#p423502e4e9)" style="fill: #2f3a4a; stroke: #2f3a4a; stroke-width: 1.1; stroke-linecap: round"/>
   </g>
   <g id="patch_12">
    <path d="M 316.077379 247.824384 
L 420.74301 247.824384 
Q 424.156019 247.824384 424.156019 243.211776 
L 424.156019 192.473088 
Q 424.156019 187.86048 420.74301 187.86048 
L 316.077379 187.86048 
Q 312.664369 187.86048 312.664369 192.473088 
L 312.664369 243.211776 
Q 312.664369 247.824384 316.077379 247.824384 
z
" clip-path="url(#p423502e4e9)" style="fill: #f2fff6; stroke: #2f3a4a; stroke-linejoin: miter"/>
   </g>
   <g id="patch_13">
    <path d="M 312.366897 217.842432 
Q 297.301896 217.842432 283.466732 217.842432 
" clip-path="url(#p423502e4e9)" style="fill: none; stroke: #2f3a4a; stroke-width: 1.1; stroke-linecap: round"/>
    <path d="M 288.266732 220.242432 
L 283.466732 217.842432 
L 288.266732 215.442432 
z
" clip-path="url(#p423502e4e9)" style="fill: #2f3a4a; stroke: #2f3a4a; stroke-width: 1.1; stroke-linecap: round"/>
   </g>
   <g id="patch_14">
    <path d="M 173.868641 247.824384 
L 278.534272 247.824384 
Q 281.947282 247.824384 281.947282 243.211776 
L 281.947282 192.473088 
Q 281.947282 187.86048 278.534272 187.86048 
L 173.868641 187.86048 
Q 170.455631 187.86048 170.455631 192.473088 
L 170.455631 243.211776 
Q 170.455631 247.824384 173.868641 247.824384 
z
" clip-path="url(#p423502e4e9)" style="fill: #f8f8f3; stroke: #2f3a4a; stroke-linejoin: miter"/>
   </g>
   <g id="patch_15">
    <path d="M 170.158159 217.842432 
Q 155.093158 217.842432 141.257994 217.842432 
" clip-path="url(#p423502e4e9)" style="fill: none; stroke: #2f3a4a; stroke-width: 1.1; stroke-linecap: round"/>
    <path d="M 146.057994 220.242432 
L 141.257994 217.842432 
L 146.057994 215.442432 
z
" clip-path="url(#p423502e4e9)" style="fill: #2f3a4a; stroke: #2f3a4a; stroke-width: 1.1; stroke-linecap: round"/>
   </g>
   <g id="patch_16">
    <path d="M 31.659903 247.824384 
L 136.325534 247.824384 
Q 139.738544 247.824384 139.738544 243.211776 
L 139.738544 192.473088 
Q 139.738544 187.86048 136.325534 187.86048 
L 31.659903 187.86048 
Q 28.246893 187.86048 28.246893 192.473088 
L 28.246893 243.211776 
Q 28.246893 247.824384 31.659903 247.824384 
z
" clip-path="url(#p423502e4e9)" style="fill: #f8f8f3; stroke: #2f3a4a; stroke-linejoin: miter"/>
   </g>
   <g id="text_1">
    <!-- Synthetic -->
    <g transform="translate(65.979625 76.72283) scale(0.082 -0.082)">
     <defs>
      <path id="MicrosoftYaHei-53" d="M 400 909 
Q 622 716 994 591 
Q 1366 466 1700 466 
Q 2719 466 2719 1191 
Q 2719 1394 2609 1556 
Q 2500 1719 2309 1844 
Q 2119 1969 1594 2228 
Q 866 2591 634 2902 
Q 403 3213 403 3613 
Q 403 4216 887 4569 
Q 1372 4922 2109 4922 
Q 2831 4922 3169 4747 
L 3169 4066 
Q 2731 4369 2063 4369 
Q 1619 4369 1339 4183 
Q 1059 3997 1059 3666 
Q 1059 3372 1253 3187 
Q 1447 3003 2094 2684 
Q 2806 2344 3090 2003 
Q 3375 1663 3375 1238 
Q 3375 600 2912 259 
Q 2450 -81 1628 -81 
Q 1341 -81 958 -1 
Q 575 78 400 197 
L 400 909 
z
" transform="scale(0.015625)"/>
      <path id="MicrosoftYaHei-79" d="M 3359 3456 
L 1791 -522 
Q 1353 -1628 556 -1628 
Q 328 -1628 166 -1578 
L 166 -1041 
Q 344 -1109 509 -1109 
Q 925 -1109 1131 -622 
L 1397 6 
L 41 3456 
L 719 3456 
L 1622 859 
L 1697 575 
L 1713 575 
Q 1731 672 1788 853 
L 2731 3456 
L 3359 3456 
z
" transform="scale(0.015625)"/>
      <path id="MicrosoftYaHei-6e" d="M 3469 0 
L 2859 0 
L 2859 1966 
Q 2859 3031 2081 3031 
Q 1678 3031 1418 2731 
Q 1159 2431 1159 1972 
L 1159 0 
L 547 0 
L 547 3456 
L 1159 3456 
L 1159 2884 
L 1172 2884 
Q 1563 3538 2306 3538 
Q 2875 3538 3172 3173 
Q 3469 2809 3469 2113 
L 3469 0 
z
" transform="scale(0.015625)"/>
      <path id="MicrosoftYaHei-74" d="M 2206 34 
Q 2006 -75 1666 -75 
Q 738 -75 738 953 
L 738 2950 
L 144 2950 
L 144 3456 
L 738 3456 
L 738 4288 
L 1347 4481 
L 1347 3456 
L 2206 3456 
L 2206 2950 
L 1347 2950 
L 1347 1063 
Q 1347 722 1462 575 
Q 1578 428 1847 428 
Q 2053 428 2206 544 
L 2206 34 
z
" transform="scale(0.015625)"/>
      <path id="MicrosoftYaHei-68" d="M 3466 0 
L 2856 0 
L 2856 1988 
Q 2856 3031 2081 3031 
Q 1684 3031 1421 2726 
Q 1159 2422 1159 1959 
L 1159 0 
L 547 0 
L 547 5116 
L 1159 5116 
L 1159 2888 
L 1172 2888 
Q 1569 3538 2300 3538 
Q 3466 3538 3466 2128 
L 3466 0 
z
" transform="scale(0.015625)"/>
      <path id="MicrosoftYaHei-65" d="M 3363 1572 
L 944 1572 
Q 959 1019 1246 717 
Q 1534 416 2050 416 
Q 2631 416 3116 788 
L 3116 241 
Q 2659 -81 1906 -81 
Q 1156 -81 736 394 
Q 316 869 316 1713 
Q 316 2506 777 3022 
Q 1238 3538 1922 3538 
Q 2600 3538 2981 3102 
Q 3363 2666 3363 1881 
L 3363 1572 
z
M 2750 2063 
Q 2747 2531 2528 2787 
Q 2309 3044 1913 3044 
Q 1547 3044 1280 2772 
Q 1013 2500 944 2063 
L 2750 2063 
z
" transform="scale(0.015625)"/>
      <path id="MicrosoftYaHei-69" d="M 472 4675 
Q 472 4838 583 4948 
Q 694 5059 856 5059 
Q 1022 5059 1136 4950 
Q 1250 4841 1250 4675 
Q 1250 4513 1136 4405 
Q 1022 4297 856 4297 
Q 691 4297 581 4405 
Q 472 4513 472 4675 
z
M 544 0 
L 544 3456 
L 1156 3456 
L 1156 0 
L 544 0 
z
" transform="scale(0.015625)"/>
      <path id="MicrosoftYaHei-63" d="M 2934 156 
Q 2538 -81 1978 -81 
Q 1228 -81 772 400 
Q 316 881 316 1647 
Q 316 2497 808 3017 
Q 1300 3538 2125 3538 
Q 2600 3538 2938 3369 
L 2938 2763 
Q 2572 3031 2125 3031 
Q 1600 3031 1270 2667 
Q 941 2303 941 1697 
Q 941 1100 1252 762 
Q 1563 425 2091 425 
Q 2538 425 2934 719 
L 2934 156 
z
" transform="scale(0.015625)"/>
     </defs>
     <use xlink:href="#MicrosoftYaHei-53"/>
     <use xlink:href="#MicrosoftYaHei-79" transform="translate(55.214844 0)"/>
     <use xlink:href="#MicrosoftYaHei-6e" transform="translate(108.144531 0)"/>
     <use xlink:href="#MicrosoftYaHei-74" transform="translate(169.765625 0)"/>
     <use xlink:href="#MicrosoftYaHei-68" transform="translate(207.021484 0)"/>
     <use xlink:href="#MicrosoftYaHei-65" transform="translate(268.59375 0)"/>
     <use xlink:href="#MicrosoftYaHei-74" transform="translate(325.332031 0)"/>
     <use xlink:href="#MicrosoftYaHei-69" transform="translate(362.587891 0)"/>
     <use xlink:href="#MicrosoftYaHei-63" transform="translate(389.199219 0)"/>
    </g>
    <!-- privacy benchmark -->
    <g transform="translate(46.983172 86.674555) scale(0.082 -0.082)">
     <defs>
      <path id="MicrosoftYaHei-70" d="M 1159 488 
L 1159 -1591 
L 547 -1591 
L 547 3456 
L 1159 3456 
L 1159 2859 
L 1172 2859 
Q 1578 3538 2359 3538 
Q 3022 3538 3398 3073 
Q 3775 2609 3775 1828 
Q 3775 966 3348 442 
Q 2922 -81 2200 -81 
Q 1534 -81 1172 488 
L 1159 488 
z
M 1156 1425 
Q 1156 1003 1428 714 
Q 1700 425 2109 425 
Q 2597 425 2872 800 
Q 3147 1175 3147 1838 
Q 3147 2397 2890 2714 
Q 2634 3031 2191 3031 
Q 1738 3031 1447 2709 
Q 1156 2388 1156 1884 
L 1156 1425 
z
" transform="scale(0.015625)"/>
      <path id="MicrosoftYaHei-72" d="M 2400 2850 
Q 2247 2959 1978 2959 
Q 1622 2959 1390 2626 
Q 1159 2294 1159 1750 
L 1159 0 
L 547 0 
L 547 3456 
L 1159 3456 
L 1159 2753 
L 1172 2753 
Q 1434 3516 2078 3516 
Q 2288 3516 2400 3469 
L 2400 2850 
z
" transform="scale(0.015625)"/>
      <path id="MicrosoftYaHei-76" d="M 3331 3456 
L 1963 0 
L 1344 0 
L 44 3456 
L 713 3456 
L 1556 988 
Q 1659 691 1678 491 
L 1694 491 
Q 1725 753 1803 975 
L 2688 3456 
L 3331 3456 
z
" transform="scale(0.015625)"/>
      <path id="MicrosoftYaHei-61" d="M 628 3216 
Q 1144 3538 1819 3538 
Q 3069 3538 3069 2225 
L 3069 0 
L 2463 0 
L 2463 534 
L 2447 534 
Q 2088 -81 1388 -81 
Q 884 -81 587 191 
Q 291 463 291 925 
Q 291 1894 1438 2053 
L 2463 2197 
Q 2463 3044 1763 3044 
Q 1141 3044 628 2625 
L 628 3216 
z
M 1653 1625 
Q 1228 1569 1067 1412 
Q 906 1256 906 975 
Q 906 728 1081 572 
Q 1256 416 1544 416 
Q 1944 416 2203 697 
Q 2463 978 2463 1403 
L 2463 1734 
L 1653 1625 
z
" transform="scale(0.015625)"/>
      <path id="MicrosoftYaHei-20" transform="scale(0.015625)"/>
      <path id="MicrosoftYaHei-62" d="M 1159 488 
L 1159 0 
L 547 0 
L 547 5116 
L 1159 5116 
L 1159 2859 
L 1172 2859 
Q 1578 3538 2359 3538 
Q 3009 3538 3392 3080 
Q 3775 2622 3775 1828 
Q 3775 953 3345 436 
Q 2916 -81 2200 -81 
Q 1525 -81 1172 488 
L 1159 488 
z
M 1156 1422 
Q 1156 1003 1428 714 
Q 1700 425 2109 425 
Q 2597 425 2872 800 
Q 3147 1175 3147 1838 
Q 3147 2384 2890 2707 
Q 2634 3031 2191 3031 
Q 1741 3031 1448 2709 
Q 1156 2388 1156 1891 
L 1156 1422 
z
" transform="scale(0.015625)"/>
      <path id="MicrosoftYaHei-6d" d="M 5522 0 
L 4909 0 
L 4909 1984 
Q 4909 2547 4734 2789 
Q 4559 3031 4159 3031 
Q 3822 3031 3581 2715 
Q 3341 2400 3341 1969 
L 3341 0 
L 2728 0 
L 2728 2047 
Q 2728 3031 1969 3031 
Q 1619 3031 1389 2731 
Q 1159 2431 1159 1966 
L 1159 0 
L 547 0 
L 547 3456 
L 1159 3456 
L 1159 2909 
L 1172 2909 
Q 1541 3538 2250 3538 
Q 2597 3538 2862 3347 
Q 3128 3156 3231 2831 
Q 3616 3538 4381 3538 
Q 5522 3538 5522 2131 
L 5522 0 
z
" transform="scale(0.015625)"/>
      <path id="MicrosoftYaHei-6b" d="M 3484 0 
L 2650 0 
L 1172 1666 
L 1159 1666 
L 1159 0 
L 547 0 
L 547 5116 
L 1159 5116 
L 1159 1872 
L 1172 1872 
L 2575 3456 
L 3363 3456 
L 1800 1794 
L 3484 0 
z
" transform="scale(0.015625)"/>
     </defs>
     <use xlink:href="#MicrosoftYaHei-70"/>
     <use xlink:href="#MicrosoftYaHei-72" transform="translate(63.867188 0)"/>
     <use xlink:href="#MicrosoftYaHei-69" transform="translate(102.050781 0)"/>
     <use xlink:href="#MicrosoftYaHei-76" transform="translate(128.662109 0)"/>
     <use xlink:href="#MicrosoftYaHei-61" transform="translate(179.152344 0)"/>
     <use xlink:href="#MicrosoftYaHei-63" transform="translate(234.425781 0)"/>
     <use xlink:href="#MicrosoftYaHei-79" transform="translate(284.572266 0)"/>
     <use xlink:href="#MicrosoftYaHei-20" transform="translate(337.501953 0)"/>
     <use xlink:href="#MicrosoftYaHei-62" transform="translate(367.091797 0)"/>
     <use xlink:href="#MicrosoftYaHei-65" transform="translate(430.958984 0)"/>
     <use xlink:href="#MicrosoftYaHei-6e" transform="translate(487.697266 0)"/>
     <use xlink:href="#MicrosoftYaHei-63" transform="translate(549.318359 0)"/>
     <use xlink:href="#MicrosoftYaHei-68" transform="translate(599.464844 0)"/>
     <use xlink:href="#MicrosoftYaHei-6d" transform="translate(661.037109 0)"/>
     <use xlink:href="#MicrosoftYaHei-61" transform="translate(754.738281 0)"/>
     <use xlink:href="#MicrosoftYaHei-72" transform="translate(810.011719 0)"/>
     <use xlink:href="#MicrosoftYaHei-6b" transform="translate(848.195312 0)"/>
    </g>
   </g>
   <g id="text_2">
    <!-- MLP-only LoRA -->
    <g transform="translate(195.929363 76.72283) scale(0.082 -0.082)">
     <defs>
      <path id="MicrosoftYaHei-4d" d="M 5003 0 
L 5003 3206 
Q 5003 3603 5050 4159 
L 5034 4159 
Q 4953 3809 4891 3672 
L 3294 0 
L 2947 0 
L 1353 3644 
Q 1297 3769 1209 4159 
L 1191 4159 
Q 1222 3822 1222 3178 
L 1222 0 
L 625 0 
L 625 4841 
L 1472 4841 
L 2900 1522 
Q 3063 1141 3116 928 
L 3138 928 
Q 3300 1375 3366 1534 
L 4819 4841 
L 5625 4841 
L 5625 0 
L 5003 0 
z
" transform="scale(0.015625)"/>
      <path id="MicrosoftYaHei-4c" d="M 3178 0 
L 625 0 
L 625 4841 
L 1250 4841 
L 1250 553 
L 3178 553 
L 3178 0 
z
" transform="scale(0.015625)"/>
      <path id="MicrosoftYaHei-50" d="M 1250 1809 
L 1250 0 
L 625 0 
L 625 4841 
L 2000 4841 
Q 2784 4841 3217 4462 
Q 3650 4084 3650 3381 
Q 3650 2669 3144 2226 
Q 2638 1784 1878 1809 
L 1250 1809 
z
M 1250 4291 
L 1250 2359 
L 1828 2359 
Q 2400 2359 2697 2617 
Q 2994 2875 2994 3356 
Q 2994 4291 1888 4291 
L 1250 4291 
z
" transform="scale(0.015625)"/>
      <path id="MicrosoftYaHei-2d" d="M 2328 1681 
L 488 1681 
L 488 2153 
L 2328 2153 
L 2328 1681 
z
" transform="scale(0.015625)"/>
      <path id="MicrosoftYaHei-6f" d="M 316 1691 
Q 316 2547 794 3042 
Q 1272 3538 2091 3538 
Q 2869 3538 3311 3061 
Q 3753 2584 3753 1744 
Q 3753 925 3281 422 
Q 2809 -81 2016 -81 
Q 1241 -81 778 406 
Q 316 894 316 1691 
z
M 941 1709 
Q 941 1113 1242 769 
Q 1544 425 2053 425 
Q 2578 425 2853 761 
Q 3128 1097 3128 1725 
Q 3128 2356 2853 2693 
Q 2578 3031 2053 3031 
Q 1538 3031 1239 2678 
Q 941 2325 941 1709 
z
" transform="scale(0.015625)"/>
      <path id="MicrosoftYaHei-6c" d="M 544 0 
L 544 5116 
L 1156 5116 
L 1156 0 
L 544 0 
z
" transform="scale(0.015625)"/>
      <path id="MicrosoftYaHei-52" d="M 4159 0 
L 3422 0 
L 2619 1344 
Q 2378 1747 2178 1892 
Q 1978 2038 1700 2038 
L 1250 2038 
L 1250 0 
L 625 0 
L 625 4841 
L 2100 4841 
Q 2806 4841 3206 4500 
Q 3606 4159 3606 3547 
Q 3606 2541 2531 2241 
L 2531 2225 
Q 2731 2141 2876 1984 
Q 3022 1828 3253 1450 
L 4159 0 
z
M 1250 4294 
L 1250 2584 
L 1988 2584 
Q 2416 2584 2683 2834 
Q 2950 3084 2950 3491 
Q 2950 3869 2706 4081 
Q 2463 4294 1997 4294 
L 1250 4294 
z
" transform="scale(0.015625)"/>
      <path id="MicrosoftYaHei-41" d="M 4428 0 
L 3738 0 
L 3244 1325 
L 1228 1325 
L 763 0 
L 72 0 
L 1916 4841 
L 2584 4841 
L 4428 0 
z
M 3050 1872 
L 2319 3884 
Q 2284 3981 2244 4222 
L 2228 4222 
Q 2194 4003 2150 3884 
L 1425 1872 
L 3050 1872 
z
" transform="scale(0.015625)"/>
     </defs>
     <use xlink:href="#MicrosoftYaHei-4d"/>
     <use xlink:href="#MicrosoftYaHei-4c" transform="translate(97.705078 0)"/>
     <use xlink:href="#MicrosoftYaHei-50" transform="translate(149.023438 0)"/>
     <use xlink:href="#MicrosoftYaHei-2d" transform="translate(210.205078 0)"/>
     <use xlink:href="#MicrosoftYaHei-6f" transform="translate(253.466797 0)"/>
     <use xlink:href="#MicrosoftYaHei-6e" transform="translate(317.041016 0)"/>
     <use xlink:href="#MicrosoftYaHei-6c" transform="translate(378.662109 0)"/>
     <use xlink:href="#MicrosoftYaHei-79" transform="translate(405.273438 0)"/>
     <use xlink:href="#MicrosoftYaHei-20" transform="translate(458.203125 0)"/>
     <use xlink:href="#MicrosoftYaHei-4c" transform="translate(487.792969 0)"/>
     <use xlink:href="#MicrosoftYaHei-6f" transform="translate(539.111328 0)"/>
     <use xlink:href="#MicrosoftYaHei-52" transform="translate(602.685547 0)"/>
     <use xlink:href="#MicrosoftYaHei-41" transform="translate(667.96875 0)"/>
    </g>
    <!-- injection -->
    <g transform="translate(209.355581 86.674555) scale(0.082 -0.082)">
     <defs>
      <path id="MicrosoftYaHei-6a" d="M 475 4675 
Q 475 4838 584 4948 
Q 694 5059 859 5059 
Q 1028 5059 1140 4950 
Q 1253 4841 1253 4675 
Q 1253 4516 1139 4406 
Q 1025 4297 859 4297 
Q 694 4297 584 4408 
Q 475 4519 475 4675 
z
M 1159 134 
Q 1159 -706 811 -1167 
Q 463 -1628 -178 -1628 
Q -416 -1628 -644 -1519 
L -644 -966 
Q -400 -1116 -181 -1116 
Q 547 -1116 547 44 
L 547 3456 
L 1159 3456 
L 1159 134 
z
" transform="scale(0.015625)"/>
     </defs>
     <use xlink:href="#MicrosoftYaHei-69"/>
     <use xlink:href="#MicrosoftYaHei-6e" transform="translate(26.611328 0)"/>
     <use xlink:href="#MicrosoftYaHei-6a" transform="translate(88.232422 0)"/>
     <use xlink:href="#MicrosoftYaHei-65" transform="translate(114.941406 0)"/>
     <use xlink:href="#MicrosoftYaHei-63" transform="translate(171.679688 0)"/>
     <use xlink:href="#MicrosoftYaHei-74" transform="translate(221.826172 0)"/>
     <use xlink:href="#MicrosoftYaHei-69" transform="translate(259.082031 0)"/>
     <use xlink:href="#MicrosoftYaHei-6f" transform="translate(285.693359 0)"/>
     <use xlink:href="#MicrosoftYaHei-6e" transform="translate(349.267578 0)"/>
    </g>
   </g>
   <g id="text_3">
    <!-- Merged leakage -->
    <g transform="translate(336.653132 76.746533) scale(0.082 -0.082)">
     <defs>
      <path id="MicrosoftYaHei-67" d="M 3547 291 
Q 3547 -1628 1684 -1628 
Q 1041 -1628 566 -1388 
L 566 -797 
Q 1144 -1119 1675 -1119 
Q 2934 -1119 2934 206 
L 2934 572 
L 2922 572 
Q 2528 -81 1747 -81 
Q 1097 -81 706 384 
Q 316 850 316 1619 
Q 316 2503 747 3020 
Q 1178 3538 1897 3538 
Q 2588 3538 2922 2988 
L 2934 2988 
L 2934 3456 
L 3547 3456 
L 3547 291 
z
M 2934 2056 
Q 2938 2456 2666 2743 
Q 2394 3031 1997 3031 
Q 1497 3031 1219 2664 
Q 941 2297 941 1656 
Q 941 1106 1209 765 
Q 1478 425 1922 425 
Q 2369 425 2653 750 
Q 2938 1075 2934 1575 
L 2934 2056 
z
" transform="scale(0.015625)"/>
      <path id="MicrosoftYaHei-64" d="M 3547 0 
L 2934 0 
L 2934 575 
L 2922 575 
Q 2544 -81 1747 -81 
Q 1091 -81 703 386 
Q 316 853 316 1647 
Q 316 2503 753 3020 
Q 1191 3538 1897 3538 
Q 2603 3538 2922 2988 
L 2934 2988 
L 2934 5116 
L 3547 5116 
L 3547 0 
z
M 2938 2056 
Q 2938 2472 2664 2751 
Q 2391 3031 1991 3031 
Q 1503 3031 1222 2667 
Q 941 2303 941 1675 
Q 941 1097 1211 761 
Q 1481 425 1931 425 
Q 2375 425 2656 754 
Q 2938 1084 2938 1575 
L 2938 2056 
z
" transform="scale(0.015625)"/>
     </defs>
     <use xlink:href="#MicrosoftYaHei-4d"/>
     <use xlink:href="#MicrosoftYaHei-65" transform="translate(97.705078 0)"/>
     <use xlink:href="#MicrosoftYaHei-72" transform="translate(154.443359 0)"/>
     <use xlink:href="#MicrosoftYaHei-67" transform="translate(191.251953 0)"/>
     <use xlink:href="#MicrosoftYaHei-65" transform="translate(255.216797 0)"/>
     <use xlink:href="#MicrosoftYaHei-64" transform="translate(311.955078 0)"/>
     <use xlink:href="#MicrosoftYaHei-20" transform="translate(375.919922 0)"/>
     <use xlink:href="#MicrosoftYaHei-6c" transform="translate(405.509766 0)"/>
     <use xlink:href="#MicrosoftYaHei-65" transform="translate(432.121094 0)"/>
     <use xlink:href="#MicrosoftYaHei-61" transform="translate(488.859375 0)"/>
     <use xlink:href="#MicrosoftYaHei-6b" transform="translate(544.132812 0)"/>
     <use xlink:href="#MicrosoftYaHei-61" transform="translate(598.576172 0)"/>
     <use xlink:href="#MicrosoftYaHei-67" transform="translate(653.849609 0)"/>
     <use xlink:href="#MicrosoftYaHei-65" transform="translate(717.814453 0)"/>
    </g>
    <!-- model -->
    <g transform="translate(355.92185 86.698258) scale(0.082 -0.082)">
     <use xlink:href="#MicrosoftYaHei-6d"/>
     <use xlink:href="#MicrosoftYaHei-6f" transform="translate(93.701172 0)"/>
     <use xlink:href="#MicrosoftYaHei-64" transform="translate(157.275391 0)"/>
     <use xlink:href="#MicrosoftYaHei-65" transform="translate(221.240234 0)"/>
     <use xlink:href="#MicrosoftYaHei-6c" transform="translate(277.978516 0)"/>
    </g>
   </g>
   <g id="text_4">
    <!-- Editor baselines -->
    <g transform="translate(479.787573 76.770236) scale(0.082 -0.082)">
     <defs>
      <path id="MicrosoftYaHei-45" d="M 3228 0 
L 625 0 
L 625 4841 
L 3119 4841 
L 3119 4284 
L 1250 4284 
L 1250 2734 
L 2981 2734 
L 2981 2181 
L 1250 2181 
L 1250 553 
L 3228 553 
L 3228 0 
z
" transform="scale(0.015625)"/>
      <path id="MicrosoftYaHei-73" d="M 353 747 
Q 816 413 1350 413 
Q 2066 413 2066 881 
Q 2066 1081 1909 1211 
Q 1753 1341 1275 1519 
Q 700 1750 528 1976 
Q 356 2203 356 2525 
Q 356 2984 745 3261 
Q 1134 3538 1703 3538 
Q 2144 3538 2522 3384 
L 2522 2794 
Q 2134 3044 1644 3044 
Q 1350 3044 1165 2916 
Q 981 2788 981 2578 
Q 981 2372 1114 2256 
Q 1247 2141 1703 1959 
Q 2281 1744 2484 1512 
Q 2688 1281 2688 941 
Q 2688 466 2298 192 
Q 1909 -81 1291 -81 
Q 753 -81 353 122 
L 353 747 
z
" transform="scale(0.015625)"/>
     </defs>
     <use xlink:href="#MicrosoftYaHei-45"/>
     <use xlink:href="#MicrosoftYaHei-64" transform="translate(54.980469 0)"/>
     <use xlink:href="#MicrosoftYaHei-69" transform="translate(118.945312 0)"/>
     <use xlink:href="#MicrosoftYaHei-74" transform="translate(145.556641 0)"/>
     <use xlink:href="#MicrosoftYaHei-6f" transform="translate(181.9375 0)"/>
     <use xlink:href="#MicrosoftYaHei-72" transform="translate(245.511719 0)"/>
     <use xlink:href="#MicrosoftYaHei-20" transform="translate(283.695312 0)"/>
     <use xlink:href="#MicrosoftYaHei-62" transform="translate(313.285156 0)"/>
     <use xlink:href="#MicrosoftYaHei-61" transform="translate(375.777344 0)"/>
     <use xlink:href="#MicrosoftYaHei-73" transform="translate(431.050781 0)"/>
     <use xlink:href="#MicrosoftYaHei-65" transform="translate(477.339844 0)"/>
     <use xlink:href="#MicrosoftYaHei-6c" transform="translate(534.078125 0)"/>
     <use xlink:href="#MicrosoftYaHei-69" transform="translate(560.689453 0)"/>
     <use xlink:href="#MicrosoftYaHei-6e" transform="translate(587.300781 0)"/>
     <use xlink:href="#MicrosoftYaHei-65" transform="translate(648.921875 0)"/>
     <use xlink:href="#MicrosoftYaHei-73" transform="translate(705.660156 0)"/>
    </g>
    <!-- ROME / MEMIT / FT / KN -->
    <g transform="translate(461.535526 86.674555) scale(0.082 -0.082)">
     <defs>
      <path id="MicrosoftYaHei-4f" d="M 313 2363 
Q 313 3534 947 4228 
Q 1581 4922 2666 4922 
Q 3675 4922 4290 4244 
Q 4906 3566 4906 2478 
Q 4906 1300 4275 609 
Q 3644 -81 2588 -81 
Q 1556 -81 934 597 
Q 313 1275 313 2363 
z
M 969 2413 
Q 969 1534 1417 1004 
Q 1866 475 2588 475 
Q 3363 475 3805 983 
Q 4247 1491 4247 2403 
Q 4247 3341 3814 3850 
Q 3381 4359 2628 4359 
Q 1888 4359 1428 3821 
Q 969 3284 969 2413 
z
" transform="scale(0.015625)"/>
      <path id="MicrosoftYaHei-2f" d="M 2791 4841 
L 469 -803 
L -103 -803 
L 2219 4841 
L 2791 4841 
z
" transform="scale(0.015625)"/>
      <path id="MicrosoftYaHei-49" d="M 1250 4841 
L 1250 0 
L 625 0 
L 625 4841 
L 1250 4841 
z
" transform="scale(0.015625)"/>
      <path id="MicrosoftYaHei-54" d="M 3550 4284 
L 2153 4284 
L 2153 0 
L 1525 0 
L 1525 4284 
L 134 4284 
L 134 4841 
L 3550 4841 
L 3550 4284 
z
" transform="scale(0.015625)"/>
      <path id="MicrosoftYaHei-46" d="M 3119 4284 
L 1250 4284 
L 1250 2666 
L 2981 2666 
L 2981 2116 
L 1250 2116 
L 1250 0 
L 625 0 
L 625 4841 
L 3119 4841 
L 3119 4284 
z
" transform="scale(0.015625)"/>
      <path id="MicrosoftYaHei-4b" d="M 4069 0 
L 3213 0 
L 1394 2200 
Q 1300 2316 1266 2381 
L 1250 2381 
L 1250 0 
L 625 0 
L 625 4841 
L 1250 4841 
L 1250 2563 
L 1266 2563 
Q 1319 2647 1394 2741 
L 3150 4841 
L 3922 4841 
L 1891 2519 
L 4069 0 
z
" transform="scale(0.015625)"/>
      <path id="MicrosoftYaHei-4e" d="M 4578 0 
L 3838 0 
L 1403 3766 
Q 1300 3925 1238 4081 
L 1219 4081 
Q 1244 3919 1244 3403 
L 1244 0 
L 625 0 
L 625 4841 
L 1409 4841 
L 3778 1141 
Q 3947 878 3978 806 
L 3991 806 
Q 3959 1013 3959 1513 
L 3959 4841 
L 4578 4841 
L 4578 0 
z
" transform="scale(0.015625)"/>
     </defs>
     <use xlink:href="#MicrosoftYaHei-52"/>
     <use xlink:href="#MicrosoftYaHei-4f" transform="translate(64.158203 0)"/>
     <use xlink:href="#MicrosoftYaHei-4d" transform="translate(145.652344 0)"/>
     <use xlink:href="#MicrosoftYaHei-45" transform="translate(243.357422 0)"/>
     <use xlink:href="#MicrosoftYaHei-20" transform="translate(298.337891 0)"/>
     <use xlink:href="#MicrosoftYaHei-2f" transform="translate(327.927734 0)"/>
     <use xlink:href="#MicrosoftYaHei-20" transform="translate(370.652344 0)"/>
     <use xlink:href="#MicrosoftYaHei-4d" transform="translate(400.242188 0)"/>
     <use xlink:href="#MicrosoftYaHei-45" transform="translate(497.947266 0)"/>
     <use xlink:href="#MicrosoftYaHei-4d" transform="translate(552.927734 0)"/>
     <use xlink:href="#MicrosoftYaHei-49" transform="translate(650.632812 0)"/>
     <use xlink:href="#MicrosoftYaHei-54" transform="translate(680.027344 0)"/>
     <use xlink:href="#MicrosoftYaHei-20" transform="translate(737.351562 0)"/>
     <use xlink:href="#MicrosoftYaHei-2f" transform="translate(766.941406 0)"/>
     <use xlink:href="#MicrosoftYaHei-20" transform="translate(809.666016 0)"/>
     <use xlink:href="#MicrosoftYaHei-46" transform="translate(839.255859 0)"/>
     <use xlink:href="#MicrosoftYaHei-54" transform="translate(893.130859 0)"/>
     <use xlink:href="#MicrosoftYaHei-20" transform="translate(950.455078 0)"/>
     <use xlink:href="#MicrosoftYaHei-2f" transform="translate(980.044922 0)"/>
     <use xlink:href="#MicrosoftYaHei-20" transform="translate(1022.769531 0)"/>
     <use xlink:href="#MicrosoftYaHei-4b" transform="translate(1052.359375 0)"/>
     <use xlink:href="#MicrosoftYaHei-4e" transform="translate(1115.835938 0)"/>
    </g>
   </g>
   <g id="text_5">
    <!-- PACE residual -->
    <g transform="translate(484.083604 215.148476) scale(0.082 -0.082)">
     <defs>
      <path id="MicrosoftYaHei-43" d="M 3938 200 
Q 3403 -81 2597 -81 
Q 1556 -81 934 580 
Q 313 1241 313 2328 
Q 313 3497 1013 4209 
Q 1713 4922 2791 4922 
Q 3484 4922 3938 4725 
L 3938 4072 
Q 3419 4359 2797 4359 
Q 1988 4359 1478 3820 
Q 969 3281 969 2366 
Q 969 1497 1444 986 
Q 1919 475 2688 475 
Q 3406 475 3938 800 
L 3938 200 
z
" transform="scale(0.015625)"/>
      <path id="MicrosoftYaHei-75" d="M 3400 0 
L 2784 0 
L 2784 544 
L 2772 544 
Q 2425 -81 1706 -81 
Q 478 -81 478 1388 
L 478 3456 
L 1084 3456 
L 1084 1478 
Q 1084 425 1891 425 
Q 2291 425 2537 720 
Q 2784 1016 2784 1466 
L 2784 3456 
L 3400 3456 
L 3400 0 
z
" transform="scale(0.015625)"/>
     </defs>
     <use xlink:href="#MicrosoftYaHei-50"/>
     <use xlink:href="#MicrosoftYaHei-41" transform="translate(52.806641 0)"/>
     <use xlink:href="#MicrosoftYaHei-43" transform="translate(121.792969 0)"/>
     <use xlink:href="#MicrosoftYaHei-45" transform="translate(188.6875 0)"/>
     <use xlink:href="#MicrosoftYaHei-20" transform="translate(243.667969 0)"/>
     <use xlink:href="#MicrosoftYaHei-72" transform="translate(273.257812 0)"/>
     <use xlink:href="#MicrosoftYaHei-65" transform="translate(310.066406 0)"/>
     <use xlink:href="#MicrosoftYaHei-73" transform="translate(366.804688 0)"/>
     <use xlink:href="#MicrosoftYaHei-69" transform="translate(413.09375 0)"/>
     <use xlink:href="#MicrosoftYaHei-64" transform="translate(439.705078 0)"/>
     <use xlink:href="#MicrosoftYaHei-75" transform="translate(503.669922 0)"/>
     <use xlink:href="#MicrosoftYaHei-61" transform="translate(565.291016 0)"/>
     <use xlink:href="#MicrosoftYaHei-6c" transform="translate(620.564453 0)"/>
    </g>
    <!-- re-edit -->
    <g transform="translate(497.442557 225.052795) scale(0.082 -0.082)">
     <use xlink:href="#MicrosoftYaHei-72"/>
     <use xlink:href="#MicrosoftYaHei-65" transform="translate(36.808594 0)"/>
     <use xlink:href="#MicrosoftYaHei-2d" transform="translate(93.546875 0)"/>
     <use xlink:href="#MicrosoftYaHei-65" transform="translate(136.808594 0)"/>
     <use xlink:href="#MicrosoftYaHei-64" transform="translate(193.546875 0)"/>
     <use xlink:href="#MicrosoftYaHei-69" transform="translate(257.511719 0)"/>
     <use xlink:href="#MicrosoftYaHei-74" transform="translate(284.123047 0)"/>
    </g>
   </g>
   <g id="text_6">
    <!-- CAPE / CAPE-Anchor -->
    <g transform="translate(327.513335 215.148476) scale(0.082 -0.082)">
     <use xlink:href="#MicrosoftYaHei-43"/>
     <use xlink:href="#MicrosoftYaHei-41" transform="translate(66.894531 0)"/>
     <use xlink:href="#MicrosoftYaHei-50" transform="translate(137.255859 0)"/>
     <use xlink:href="#MicrosoftYaHei-45" transform="translate(198.4375 0)"/>
     <use xlink:href="#MicrosoftYaHei-20" transform="translate(253.417969 0)"/>
     <use xlink:href="#MicrosoftYaHei-2f" transform="translate(283.007812 0)"/>
     <use xlink:href="#MicrosoftYaHei-20" transform="translate(325.732422 0)"/>
     <use xlink:href="#MicrosoftYaHei-43" transform="translate(355.322266 0)"/>
     <use xlink:href="#MicrosoftYaHei-41" transform="translate(422.216797 0)"/>
     <use xlink:href="#MicrosoftYaHei-50" transform="translate(492.578125 0)"/>
     <use xlink:href="#MicrosoftYaHei-45" transform="translate(553.759766 0)"/>
     <use xlink:href="#MicrosoftYaHei-2d" transform="translate(608.740234 0)"/>
     <use xlink:href="#MicrosoftYaHei-41" transform="translate(652.001953 0)"/>
     <use xlink:href="#MicrosoftYaHei-6e" transform="translate(722.363281 0)"/>
     <use xlink:href="#MicrosoftYaHei-63" transform="translate(783.984375 0)"/>
     <use xlink:href="#MicrosoftYaHei-68" transform="translate(834.130859 0)"/>
     <use xlink:href="#MicrosoftYaHei-6f" transform="translate(895.703125 0)"/>
     <use xlink:href="#MicrosoftYaHei-72" transform="translate(959.277344 0)"/>
    </g>
    <!-- request selection -->
    <g transform="translate(335.01185 225.052795) scale(0.082 -0.082)">
     <defs>
      <path id="MicrosoftYaHei-71" d="M 3547 -1591 
L 2934 -1591 
L 2934 581 
L 2922 581 
Q 2559 -81 1753 -81 
Q 1100 -81 708 380 
Q 316 841 316 1647 
Q 316 2506 747 3022 
Q 1178 3538 1903 3538 
Q 2603 3538 2922 2988 
L 2934 2988 
L 2934 3456 
L 3547 3456 
L 3547 -1591 
z
M 2934 2044 
Q 2938 2453 2673 2742 
Q 2409 3031 1984 3031 
Q 1497 3031 1219 2668 
Q 941 2306 941 1663 
Q 941 1081 1208 753 
Q 1475 425 1909 425 
Q 2384 425 2661 751 
Q 2938 1078 2934 1566 
L 2934 2044 
z
" transform="scale(0.015625)"/>
     </defs>
     <use xlink:href="#MicrosoftYaHei-72"/>
     <use xlink:href="#MicrosoftYaHei-65" transform="translate(36.808594 0)"/>
     <use xlink:href="#MicrosoftYaHei-71" transform="translate(93.546875 0)"/>
     <use xlink:href="#MicrosoftYaHei-75" transform="translate(157.511719 0)"/>
     <use xlink:href="#MicrosoftYaHei-65" transform="translate(219.132812 0)"/>
     <use xlink:href="#MicrosoftYaHei-73" transform="translate(275.871094 0)"/>
     <use xlink:href="#MicrosoftYaHei-74" transform="translate(322.160156 0)"/>
     <use xlink:href="#MicrosoftYaHei-20" transform="translate(359.416016 0)"/>
     <use xlink:href="#MicrosoftYaHei-73" transform="translate(389.005859 0)"/>
     <use xlink:href="#MicrosoftYaHei-65" transform="translate(435.294922 0)"/>
     <use xlink:href="#MicrosoftYaHei-6c" transform="translate(492.033203 0)"/>
     <use xlink:href="#MicrosoftYaHei-65" transform="translate(518.644531 0)"/>
     <use xlink:href="#MicrosoftYaHei-63" transform="translate(575.382812 0)"/>
     <use xlink:href="#MicrosoftYaHei-74" transform="translate(625.529297 0)"/>
     <use xlink:href="#MicrosoftYaHei-69" transform="translate(662.785156 0)"/>
     <use xlink:href="#MicrosoftYaHei-6f" transform="translate(689.396484 0)"/>
     <use xlink:href="#MicrosoftYaHei-6e" transform="translate(752.970703 0)"/>
    </g>
   </g>
   <g id="text_7">
    <!-- Private / public -->
    <g transform="translate(196.701956 215.148476) scale(0.082 -0.082)">
     <use xlink:href="#MicrosoftYaHei-50"/>
     <use xlink:href="#MicrosoftYaHei-72" transform="translate(61.181641 0)"/>
     <use xlink:href="#MicrosoftYaHei-69" transform="translate(99.365234 0)"/>
     <use xlink:href="#MicrosoftYaHei-76" transform="translate(125.976562 0)"/>
     <use xlink:href="#MicrosoftYaHei-61" transform="translate(176.466797 0)"/>
     <use xlink:href="#MicrosoftYaHei-74" transform="translate(231.740234 0)"/>
     <use xlink:href="#MicrosoftYaHei-65" transform="translate(268.121094 0)"/>
     <use xlink:href="#MicrosoftYaHei-20" transform="translate(324.859375 0)"/>
     <use xlink:href="#MicrosoftYaHei-2f" transform="translate(354.449219 0)"/>
     <use xlink:href="#MicrosoftYaHei-20" transform="translate(397.173828 0)"/>
     <use xlink:href="#MicrosoftYaHei-70" transform="translate(426.763672 0)"/>
     <use xlink:href="#MicrosoftYaHei-75" transform="translate(490.630859 0)"/>
     <use xlink:href="#MicrosoftYaHei-62" transform="translate(552.251953 0)"/>
     <use xlink:href="#MicrosoftYaHei-6c" transform="translate(616.119141 0)"/>
     <use xlink:href="#MicrosoftYaHei-69" transform="translate(642.730469 0)"/>
     <use xlink:href="#MicrosoftYaHei-63" transform="translate(669.341797 0)"/>
    </g>
    <!-- evaluation -->
    <g transform="translate(205.903253 225.052795) scale(0.082 -0.082)">
     <use xlink:href="#MicrosoftYaHei-65"/>
     <use xlink:href="#MicrosoftYaHei-76" transform="translate(56.738281 0)"/>
     <use xlink:href="#MicrosoftYaHei-61" transform="translate(107.228516 0)"/>
     <use xlink:href="#MicrosoftYaHei-6c" transform="translate(162.501953 0)"/>
     <use xlink:href="#MicrosoftYaHei-75" transform="translate(189.113281 0)"/>
     <use xlink:href="#MicrosoftYaHei-61" transform="translate(250.734375 0)"/>
     <use xlink:href="#MicrosoftYaHei-74" transform="translate(306.007812 0)"/>
     <use xlink:href="#MicrosoftYaHei-69" transform="translate(343.263672 0)"/>
     <use xlink:href="#MicrosoftYaHei-6f" transform="translate(369.875 0)"/>
     <use xlink:href="#MicrosoftYaHei-6e" transform="translate(433.449219 0)"/>
    </g>
   </g>
   <g id="text_8">
    <!-- Paper tables -->
    <g transform="translate(59.909062 215.067116) scale(0.082 -0.082)">
     <use xlink:href="#MicrosoftYaHei-50"/>
     <use xlink:href="#MicrosoftYaHei-61" transform="translate(57.681641 0)"/>
     <use xlink:href="#MicrosoftYaHei-70" transform="translate(112.955078 0)"/>
     <use xlink:href="#MicrosoftYaHei-65" transform="translate(176.822266 0)"/>
     <use xlink:href="#MicrosoftYaHei-72" transform="translate(233.560547 0)"/>
     <use xlink:href="#MicrosoftYaHei-20" transform="translate(271.744141 0)"/>
     <use xlink:href="#MicrosoftYaHei-74" transform="translate(301.333984 0)"/>
     <use xlink:href="#MicrosoftYaHei-61" transform="translate(338.589844 0)"/>
     <use xlink:href="#MicrosoftYaHei-62" transform="translate(393.863281 0)"/>
     <use xlink:href="#MicrosoftYaHei-6c" transform="translate(457.730469 0)"/>
     <use xlink:href="#MicrosoftYaHei-65" transform="translate(484.341797 0)"/>
     <use xlink:href="#MicrosoftYaHei-73" transform="translate(541.080078 0)"/>
    </g>
    <!-- and figures -->
    <g transform="translate(61.968031 225.086748) scale(0.082 -0.082)">
     <defs>
      <path id="MicrosoftYaHei-66" d="M 2319 4594 
Q 2147 4684 1947 4684 
Q 1372 4684 1372 3972 
L 1372 3456 
L 2181 3456 
L 2181 2950 
L 1372 2950 
L 1372 0 
L 766 0 
L 766 2950 
L 175 2950 
L 175 3456 
L 766 3456 
L 766 4000 
Q 766 4556 1086 4873 
Q 1406 5191 1900 5191 
Q 2163 5191 2319 5131 
L 2319 4594 
z
" transform="scale(0.015625)"/>
     </defs>
     <use xlink:href="#MicrosoftYaHei-61"/>
     <use xlink:href="#MicrosoftYaHei-6e" transform="translate(55.273438 0)"/>
     <use xlink:href="#MicrosoftYaHei-64" transform="translate(116.894531 0)"/>
     <use xlink:href="#MicrosoftYaHei-20" transform="translate(180.859375 0)"/>
     <use xlink:href="#MicrosoftYaHei-66" transform="translate(210.449219 0)"/>
     <use xlink:href="#MicrosoftYaHei-69" transform="translate(245.117188 0)"/>
     <use xlink:href="#MicrosoftYaHei-67" transform="translate(271.728516 0)"/>
     <use xlink:href="#MicrosoftYaHei-75" transform="translate(335.693359 0)"/>
     <use xlink:href="#MicrosoftYaHei-72" transform="translate(397.314453 0)"/>
     <use xlink:href="#MicrosoftYaHei-65" transform="translate(434.123047 0)"/>
     <use xlink:href="#MicrosoftYaHei-73" transform="translate(490.861328 0)"/>
    </g>
   </g>
   <g id="text_9">
    <!-- End-to-end privacy knowledge sanitization workflow -->
    <g transform="translate(27.109223 27.956736) scale(0.12 -0.12)">
     <defs>
      <path id="MicrosoftYaHei-Bold-45" d="M 3425 0 
L 559 0 
L 559 4841 
L 3313 4841 
L 3313 3997 
L 1591 3997 
L 1591 2856 
L 3191 2856 
L 3191 2016 
L 1591 2016 
L 1591 844 
L 3425 844 
L 3425 0 
z
" transform="scale(0.015625)"/>
      <path id="MicrosoftYaHei-Bold-6e" d="M 3744 0 
L 2741 0 
L 2741 1928 
Q 2741 2766 2138 2766 
Q 1850 2766 1659 2542 
Q 1469 2319 1469 1972 
L 1469 0 
L 459 0 
L 459 3456 
L 1469 3456 
L 1469 2906 
L 1481 2906 
Q 1859 3541 2594 3541 
Q 3744 3541 3744 2116 
L 3744 0 
z
" transform="scale(0.015625)"/>
      <path id="MicrosoftYaHei-Bold-64" d="M 3794 0 
L 2788 0 
L 2788 488 
L 2772 488 
Q 2406 -84 1691 -84 
Q 1031 -84 642 381 
Q 253 847 253 1650 
Q 253 2500 689 3020 
Q 1125 3541 1828 3541 
Q 2503 3541 2772 3053 
L 2788 3053 
L 2788 5116 
L 3794 5116 
L 3794 0 
z
M 2803 1956 
Q 2803 2306 2592 2536 
Q 2381 2766 2066 2766 
Q 1697 2766 1486 2473 
Q 1275 2181 1275 1681 
Q 1275 1206 1478 948 
Q 1681 691 2038 691 
Q 2372 691 2587 962 
Q 2803 1234 2803 1669 
L 2803 1956 
z
" transform="scale(0.015625)"/>
      <path id="MicrosoftYaHei-Bold-2d" d="M 2328 1497 
L 481 1497 
L 481 2209 
L 2328 2209 
L 2328 1497 
z
" transform="scale(0.015625)"/>
      <path id="MicrosoftYaHei-Bold-74" d="M 2494 41 
Q 2266 -84 1803 -84 
Q 703 -84 703 1072 
L 703 2703 
L 134 2703 
L 134 3456 
L 703 3456 
L 703 4216 
L 1706 4503 
L 1706 3456 
L 2494 3456 
L 2494 2703 
L 1706 2703 
L 1706 1247 
Q 1706 694 2144 694 
Q 2313 694 2494 794 
L 2494 41 
z
" transform="scale(0.015625)"/>
      <path id="MicrosoftYaHei-Bold-6f" d="M 253 1713 
Q 253 2566 764 3053 
Q 1275 3541 2138 3541 
Q 2972 3541 3462 3061 
Q 3953 2581 3953 1772 
Q 3953 922 3450 419 
Q 2947 -84 2088 -84 
Q 1244 -84 748 398 
Q 253 881 253 1713 
z
M 1275 1725 
Q 1275 691 2119 691 
Q 2928 691 2928 1753 
Q 2928 2766 2113 2766 
Q 1716 2766 1495 2494 
Q 1275 2222 1275 1725 
z
" transform="scale(0.015625)"/>
      <path id="MicrosoftYaHei-Bold-65" d="M 3528 1444 
L 1253 1444 
Q 1306 641 2222 641 
Q 2794 641 3231 922 
L 3231 181 
Q 2759 -84 1994 -84 
Q 1169 -84 711 381 
Q 253 847 253 1678 
Q 253 2506 740 3023 
Q 1228 3541 1966 3541 
Q 2700 3541 3114 3095 
Q 3528 2650 3528 1872 
L 3528 1444 
z
M 2588 2075 
Q 2588 2850 1959 2850 
Q 1700 2850 1500 2637 
Q 1300 2425 1250 2075 
L 2588 2075 
z
" transform="scale(0.015625)"/>
      <path id="MicrosoftYaHei-Bold-20" transform="scale(0.015625)"/>
      <path id="MicrosoftYaHei-Bold-70" d="M 1469 416 
L 1469 -1591 
L 459 -1591 
L 459 3456 
L 1469 3456 
L 1469 2928 
L 1481 2928 
Q 1878 3541 2603 3541 
Q 3263 3541 3634 3080 
Q 4006 2619 4006 1825 
Q 4006 959 3575 437 
Q 3144 -84 2444 -84 
Q 1809 -84 1481 416 
L 1469 416 
z
M 1453 1528 
Q 1453 1159 1653 925 
Q 1853 691 2172 691 
Q 2550 691 2761 984 
Q 2972 1278 2972 1816 
Q 2972 2766 2231 2766 
Q 1888 2766 1670 2503 
Q 1453 2241 1453 1828 
L 1453 1528 
z
" transform="scale(0.015625)"/>
      <path id="MicrosoftYaHei-Bold-72" d="M 2663 2541 
Q 2478 2647 2216 2647 
Q 1872 2647 1670 2384 
Q 1469 2122 1469 1663 
L 1469 0 
L 459 0 
L 459 3456 
L 1469 3456 
L 1469 2806 
L 1481 2806 
Q 1731 3516 2391 3516 
Q 2569 3516 2663 3475 
L 2663 2541 
z
" transform="scale(0.015625)"/>
      <path id="MicrosoftYaHei-Bold-69" d="M 369 4572 
Q 369 4803 533 4948 
Q 697 5094 953 5094 
Q 1216 5094 1378 4945 
Q 1541 4797 1541 4572 
Q 1541 4344 1375 4192 
Q 1209 4041 953 4041 
Q 700 4041 534 4194 
Q 369 4347 369 4572 
z
M 444 0 
L 444 3456 
L 1450 3456 
L 1450 0 
L 444 0 
z
" transform="scale(0.015625)"/>
      <path id="MicrosoftYaHei-Bold-76" d="M 3688 3456 
L 2391 0 
L 1250 0 
L 16 3456 
L 1097 3456 
L 1731 1281 
Q 1834 925 1847 684 
L 1863 684 
Q 1888 931 1984 1263 
L 2631 3456 
L 3688 3456 
z
" transform="scale(0.015625)"/>
      <path id="MicrosoftYaHei-Bold-61" d="M 544 3247 
Q 778 3378 1170 3459 
Q 1563 3541 1841 3541 
Q 3291 3541 3291 2088 
L 3291 0 
L 2331 0 
L 2331 503 
L 2319 503 
Q 1966 -84 1284 -84 
Q 794 -84 498 195 
Q 203 475 203 956 
Q 203 1950 1388 2113 
L 2338 2241 
Q 2338 2844 1709 2844 
Q 1091 2844 544 2469 
L 544 3247 
z
M 1684 1566 
Q 1138 1494 1138 1072 
Q 1138 878 1270 759 
Q 1403 641 1628 641 
Q 1938 641 2138 859 
Q 2338 1078 2338 1403 
L 2338 1650 
L 1684 1566 
z
" transform="scale(0.015625)"/>
      <path id="MicrosoftYaHei-Bold-63" d="M 3050 128 
Q 2688 -84 2019 -84 
Q 1228 -84 740 397 
Q 253 878 253 1644 
Q 253 2525 778 3033 
Q 1303 3541 2178 3541 
Q 2769 3541 3053 3378 
L 3053 2513 
Q 2706 2766 2297 2766 
Q 1834 2766 1554 2484 
Q 1275 2203 1275 1713 
Q 1275 1238 1540 964 
Q 1806 691 2263 691 
Q 2666 691 3050 947 
L 3050 128 
z
" transform="scale(0.015625)"/>
      <path id="MicrosoftYaHei-Bold-79" d="M 3691 3456 
L 2266 -309 
Q 1769 -1622 778 -1622 
Q 388 -1622 172 -1541 
L 172 -731 
Q 375 -847 619 -847 
Q 1031 -847 1200 -447 
L 1391 6 
L -6 3456 
L 1113 3456 
L 1788 1291 
Q 1850 1094 1878 850 
L 1897 850 
Q 1919 1016 2000 1284 
L 2691 3456 
L 3691 3456 
z
" transform="scale(0.015625)"/>
      <path id="MicrosoftYaHei-Bold-6b" d="M 3856 0 
L 2631 0 
L 1481 1709 
L 1469 1709 
L 1469 0 
L 459 0 
L 459 5116 
L 1469 5116 
L 1469 1859 
L 1481 1859 
L 2559 3456 
L 3763 3456 
L 2481 1825 
L 3856 0 
z
" transform="scale(0.015625)"/>
      <path id="MicrosoftYaHei-Bold-77" d="M 5391 3456 
L 4391 0 
L 3331 0 
L 2800 2075 
Q 2747 2284 2744 2503 
L 2722 2503 
Q 2700 2256 2656 2088 
L 2084 0 
L 1038 0 
L 53 3456 
L 1084 3456 
L 1588 1163 
Q 1619 1025 1638 784 
L 1659 784 
Q 1675 1016 1719 1175 
L 2338 3456 
L 3294 3456 
L 3847 1159 
Q 3869 1066 3894 778 
L 3919 778 
Q 3928 944 3972 1159 
L 4453 3456 
L 5391 3456 
z
" transform="scale(0.015625)"/>
      <path id="MicrosoftYaHei-Bold-6c" d="M 444 0 
L 444 5116 
L 1450 5116 
L 1450 0 
L 444 0 
z
" transform="scale(0.015625)"/>
      <path id="MicrosoftYaHei-Bold-67" d="M 3800 381 
Q 3800 -581 3251 -1101 
Q 2703 -1622 1672 -1622 
Q 972 -1622 559 -1422 
L 559 -559 
Q 1097 -872 1644 -872 
Q 2184 -872 2489 -583 
Q 2794 -294 2794 219 
L 2794 506 
L 2778 506 
Q 2413 -84 1691 -84 
Q 1038 -84 645 381 
Q 253 847 253 1628 
Q 253 2500 686 3020 
Q 1119 3541 1822 3541 
Q 2459 3541 2778 3044 
L 2794 3044 
L 2794 3456 
L 3800 3456 
L 3800 381 
z
M 2803 1950 
Q 2803 2294 2595 2530 
Q 2388 2766 2072 2766 
Q 1703 2766 1489 2477 
Q 1275 2188 1275 1666 
Q 1275 1213 1481 952 
Q 1688 691 2028 691 
Q 2372 691 2587 956 
Q 2803 1222 2803 1647 
L 2803 1950 
z
" transform="scale(0.015625)"/>
      <path id="MicrosoftYaHei-Bold-73" d="M 369 928 
Q 888 613 1384 613 
Q 2009 613 2009 947 
Q 2009 1184 1494 1344 
Q 850 1544 609 1789 
Q 369 2034 369 2453 
Q 369 2963 781 3252 
Q 1194 3541 1863 3541 
Q 2338 3541 2778 3400 
L 2778 2606 
Q 2375 2844 1891 2844 
Q 1650 2844 1503 2758 
Q 1356 2672 1356 2531 
Q 1356 2294 1794 2147 
Q 2263 1991 2498 1862 
Q 2734 1734 2857 1525 
Q 2981 1316 2981 1041 
Q 2981 506 2553 211 
Q 2125 -84 1409 -84 
Q 847 -84 369 94 
L 369 928 
z
" transform="scale(0.015625)"/>
      <path id="MicrosoftYaHei-Bold-7a" d="M 3159 0 
L 88 0 
L 88 409 
L 1856 2703 
L 263 2703 
L 263 3456 
L 3150 3456 
L 3150 2969 
L 1459 753 
L 3159 753 
L 3159 0 
z
" transform="scale(0.015625)"/>
      <path id="MicrosoftYaHei-Bold-66" d="M 2653 4338 
Q 2447 4419 2263 4419 
Q 1744 4419 1744 3844 
L 1744 3456 
L 2531 3456 
L 2531 2703 
L 1744 2703 
L 1744 0 
L 734 0 
L 734 2703 
L 156 2703 
L 156 3456 
L 734 3456 
L 734 3900 
Q 734 4491 1118 4844 
Q 1503 5197 2128 5197 
Q 2447 5197 2653 5131 
L 2653 4338 
z
" transform="scale(0.015625)"/>
     </defs>
     <use xlink:href="#MicrosoftYaHei-Bold-45"/>
     <use xlink:href="#MicrosoftYaHei-Bold-6e" transform="translate(57.177734 0)"/>
     <use xlink:href="#MicrosoftYaHei-Bold-64" transform="translate(121.972656 0)"/>
     <use xlink:href="#MicrosoftYaHei-Bold-2d" transform="translate(188.427734 0)"/>
     <use xlink:href="#MicrosoftYaHei-Bold-74" transform="translate(232.080078 0)"/>
     <use xlink:href="#MicrosoftYaHei-Bold-6f" transform="translate(272.986328 0)"/>
     <use xlink:href="#MicrosoftYaHei-Bold-2d" transform="translate(338.708984 0)"/>
     <use xlink:href="#MicrosoftYaHei-Bold-65" transform="translate(382.361328 0)"/>
     <use xlink:href="#MicrosoftYaHei-Bold-6e" transform="translate(440.564453 0)"/>
     <use xlink:href="#MicrosoftYaHei-Bold-64" transform="translate(505.359375 0)"/>
     <use xlink:href="#MicrosoftYaHei-Bold-20" transform="translate(571.814453 0)"/>
     <use xlink:href="#MicrosoftYaHei-Bold-70" transform="translate(601.599609 0)"/>
     <use xlink:href="#MicrosoftYaHei-Bold-72" transform="translate(668.201172 0)"/>
     <use xlink:href="#MicrosoftYaHei-Bold-69" transform="translate(710.958984 0)"/>
     <use xlink:href="#MicrosoftYaHei-Bold-76" transform="translate(740.548828 0)"/>
     <use xlink:href="#MicrosoftYaHei-Bold-61" transform="translate(796.638672 0)"/>
     <use xlink:href="#MicrosoftYaHei-Bold-63" transform="translate(854.402344 0)"/>
     <use xlink:href="#MicrosoftYaHei-Bold-79" transform="translate(906.0625 0)"/>
     <use xlink:href="#MicrosoftYaHei-Bold-20" transform="translate(963.484375 0)"/>
     <use xlink:href="#MicrosoftYaHei-Bold-6b" transform="translate(993.269531 0)"/>
     <use xlink:href="#MicrosoftYaHei-Bold-6e" transform="translate(1052.888672 0)"/>
     <use xlink:href="#MicrosoftYaHei-Bold-6f" transform="translate(1117.683594 0)"/>
     <use xlink:href="#MicrosoftYaHei-Bold-77" transform="translate(1183.40625 0)"/>
     <use xlink:href="#MicrosoftYaHei-Bold-6c" transform="translate(1268.5625 0)"/>
     <use xlink:href="#MicrosoftYaHei-Bold-65" transform="translate(1298.152344 0)"/>
     <use xlink:href="#MicrosoftYaHei-Bold-64" transform="translate(1356.355469 0)"/>
     <use xlink:href="#MicrosoftYaHei-Bold-67" transform="translate(1422.810547 0)"/>
     <use xlink:href="#MicrosoftYaHei-Bold-65" transform="translate(1489.265625 0)"/>
     <use xlink:href="#MicrosoftYaHei-Bold-20" transform="translate(1547.46875 0)"/>
     <use xlink:href="#MicrosoftYaHei-Bold-73" transform="translate(1577.253906 0)"/>
     <use xlink:href="#MicrosoftYaHei-Bold-61" transform="translate(1626.619141 0)"/>
     <use xlink:href="#MicrosoftYaHei-Bold-6e" transform="translate(1684.382812 0)"/>
     <use xlink:href="#MicrosoftYaHei-Bold-69" transform="translate(1749.177734 0)"/>
     <use xlink:href="#MicrosoftYaHei-Bold-74" transform="translate(1778.767578 0)"/>
     <use xlink:href="#MicrosoftYaHei-Bold-69" transform="translate(1820.173828 0)"/>
     <use xlink:href="#MicrosoftYaHei-Bold-7a" transform="translate(1849.763672 0)"/>
     <use xlink:href="#MicrosoftYaHei-Bold-61" transform="translate(1901.130859 0)"/>
     <use xlink:href="#MicrosoftYaHei-Bold-74" transform="translate(1958.894531 0)"/>
     <use xlink:href="#MicrosoftYaHei-Bold-69" transform="translate(2000.300781 0)"/>
     <use xlink:href="#MicrosoftYaHei-Bold-6f" transform="translate(2029.890625 0)"/>
     <use xlink:href="#MicrosoftYaHei-Bold-6e" transform="translate(2095.613281 0)"/>
     <use xlink:href="#MicrosoftYaHei-Bold-20" transform="translate(2160.408203 0)"/>
     <use xlink:href="#MicrosoftYaHei-Bold-77" transform="translate(2190.193359 0)"/>
     <use xlink:href="#MicrosoftYaHei-Bold-6f" transform="translate(2274.849609 0)"/>
     <use xlink:href="#MicrosoftYaHei-Bold-72" transform="translate(2340.572266 0)"/>
     <use xlink:href="#MicrosoftYaHei-Bold-6b" transform="translate(2382.955078 0)"/>
     <use xlink:href="#MicrosoftYaHei-Bold-66" transform="translate(2442.574219 0)"/>
     <use xlink:href="#MicrosoftYaHei-Bold-6c" transform="translate(2483.601562 0)"/>
     <use xlink:href="#MicrosoftYaHei-Bold-6f" transform="translate(2513.191406 0)"/>
     <use xlink:href="#MicrosoftYaHei-Bold-77" transform="translate(2578.914062 0)"/>
    </g>
   </g>
  </g>
 </g>
 <defs>
  <clipPath id="p423502e4e9">
   <rect x="7.2" y="7.2" width="585.9" height="288.288"/>
  </clipPath>
 </defs>
</svg>
