<?xml version="1.0" encoding="utf-8" standalone="no"?>
<!DOCTYPE svg PUBLIC "-//W3C//DTD SVG 1.1//EN"
  "http://www.w3.org/Graphics/SVG/1.1/DTD/svg11.dtd">
<svg xmlns:xlink="http://www.w3.org/1999/xlink" width="600.3pt" height="302.688pt" viewBox="0 0 600.3 302.688" xmlns="http://www.w3.org/2000/svg" version="1.1">
 <metadata>
  <rdf:RDF xmlns:dc="http://purl.org/dc/elements/1.1/" xmlns:cc="http://creativecommons.org/ns#" xmlns:rdf="http://www.w3.org/1999/02/22-rdf-syntax-ns#">
   <cc:Work>
    <dc:type rdf:resource="http://purl.org/dc/dcmitype/StillImage"/>
    <dc:date>2026-06-23T12:08:34.976852</dc:date>
    <dc:format>image/svg+xml</dc:format>
    <dc:creator>
     <cc:Agent>
      <dc:title>Matplotlib v3.10.1, https://matplotlib.org/</dc:title>
     </cc:Agent>
    </dc:creator>
   </cc:Work>
  </rdf:RDF>
 </metadata>
 <defs>
  <style type="text/css">*{stroke-linejoin: round; stroke-linecap: butt}</style>
 </defs>
 <g id="figure_1">
  <g id="patch_1">
   <path d="M 0 302.688 
L 600.3 302.688 
L 600.3 0 
L 0 0 
z
" style="fill: #ffffff"/>
  </g>
  <g id="axes_1">
   <g id="patch_2">
    <path d="M 42.692019 85.4496 
L 126.633462 85.4496 
Q 130.013654 85.4496 130.013654 81.919543 
L 130.013654 47.207314 
Q 130.013654 43.677257 126.633462 43.677257 
L 42.692019 43.677257 
Q 39.311827 43.677257 39.311827 47.207314 
L 39.311827 81.919543 
Q 39.311827 85.4496 42.692019 85.4496 
z
" clip-path="url(#pb53d0f5d00)" style="fill: #eff6ff; stroke: #2f3a4a; stroke-linejoin: miter"/>
   </g>
   <g id="patch_3">
    <path d="M 84.944423 85.687465 
Q 84.944423 97.805363 84.944423 108.693424 
" clip-path="url(#pb53d0f5d00)" style="fill: none; stroke: #2f3a4a; stroke-width: 1.1; stroke-linecap: round"/>
    <path d="M 87.344423 103.893424 
L 84.944423 108.693424 
L 82.544423 103.893424 
z
" clip-path="url(#pb53d0f5d00)" style="fill: #2f3a4a; stroke: #2f3a4a; stroke-width: 1.1; stroke-linecap: round"/>
   </g>
   <g id="patch_4">
    <path d="M 42.692019 153.109029 
L 126.633462 153.109029 
Q 130.013654 153.109029 130.013654 149.578971 
L 130.013654 114.866743 
Q 130.013654 111.336686 126.633462 111.336686 
L 42.692019 111.336686 
Q 39.311827 111.336686 39.311827 114.866743 
L 39.311827 149.578971 
Q 39.311827 153.109029 42.692019 153.109029 
z
" clip-path="url(#pb53d0f5d00)" style="fill: #eff6ff; stroke: #2f3a4a; stroke-linejoin: miter"/>
   </g>
   <g id="patch_5">
    <path d="M 225.785769 85.4496 
L 309.727212 85.4496 
Q 313.107404 85.4496 313.107404 81.919543 
L 313.107404 47.207314 
Q 313.107404 43.677257 309.727212 43.677257 
L 225.785769 43.677257 
Q 222.405577 43.677257 222.405577 47.207314 
L 222.405577 81.919543 
Q 222.405577 85.4496 225.785769 85.4496 
z
" clip-path="url(#pb53d0f5d00)" style="fill: #f7f4ff; stroke: #2f3a4a; stroke-linejoin: miter"/>
   </g>
   <g id="patch_6">
    <path d="M 268.038173 85.687465 
Q 268.038173 97.805363 268.038173 108.693424 
" clip-path="url(#pb53d0f5d00)" style="fill: none; stroke: #2f3a4a; stroke-width: 1.1; stroke-linecap: round"/>
    <path d="M 270.438173 103.893424 
L 268.038173 108.693424 
L 265.638173 103.893424 
z
" clip-path="url(#pb53d0f5d00)" style="fill: #2f3a4a; stroke: #2f3a4a; stroke-width: 1.1; stroke-linecap: round"/>
   </g>
   <g id="patch_7">
    <path d="M 225.785769 153.109029 
L 309.727212 153.109029 
Q 313.107404 153.109029 313.107404 149.578971 
L 313.107404 114.866743 
Q 313.107404 111.336686 309.727212 111.336686 
L 225.785769 111.336686 
Q 222.405577 111.336686 222.405577 114.866743 
L 222.405577 149.578971 
Q 222.405577 153.109029 225.785769 153.109029 
z
" clip-path="url(#pb53d0f5d00)" style="fill: #f7f4ff; stroke: #2f3a4a; stroke-linejoin: miter"/>
   </g>
   <g id="patch_8">
    <path d="M 268.038173 153.346894 
Q 268.038173 165.464792 268.038173 176.352853 
" clip-path="url(#pb53d0f5d00)" style="fill: none; stroke: #2f3a4a; stroke-width: 1.1; stroke-linecap: round"/>
    <path d="M 270.438173 171.552853 
L 268.038173 176.352853 
L 265.638173 171.552853 
z
" clip-path="url(#pb53d0f5d00)" style="fill: #2f3a4a; stroke: #2f3a4a; stroke-width: 1.1; stroke-linecap: round"/>
   </g>
   <g id="patch_9">
    <path d="M 225.785769 220.768457 
L 309.727212 220.768457 
Q 313.107404 220.768457 313.107404 217.2384 
L 313.107404 182.526171 
Q 313.107404 178.996114 309.727212 178.996114 
L 225.785769 178.996114 
Q 222.405577 178.996114 222.405577 182.526171 
L 222.405577 217.2384 
Q 222.405577 220.768457 225.785769 220.768457 
z
" clip-path="url(#pb53d0f5d00)" style="fill: #f7f4ff; stroke: #2f3a4a; stroke-linejoin: miter"/>
   </g>
   <g id="patch_10">
    <path d="M 408.879519 85.4496 
L 492.820962 85.4496 
Q 496.201154 85.4496 496.201154 81.919543 
L 496.201154 47.207314 
Q 496.201154 43.677257 492.820962 43.677257 
L 408.879519 43.677257 
Q 405.499327 43.677257 405.499327 47.207314 
L 405.499327 81.919543 
Q 405.499327 85.4496 408.879519 85.4496 
z
" clip-path="url(#pb53d0f5d00)" style="fill: #f2fff6; stroke: #2f3a4a; stroke-linejoin: miter"/>
   </g>
   <g id="patch_11">
    <path d="M 451.131923 85.687465 
Q 451.131923 97.805363 451.131923 108.693424 
" clip-path="url(#pb53d0f5d00)" style="fill: none; stroke: #2f3a4a; stroke-width: 1.1; stroke-linecap: round"/>
    <path d="M 453.531923 103.893424 
L 451.131923 108.693424 
L 448.731923 103.893424 
z
" clip-path="url(#pb53d0f5d00)" style="fill: #2f3a4a; stroke: #2f3a4a; stroke-width: 1.1; stroke-linecap: round"/>
   </g>
   <g id="patch_12">
    <path d="M 408.879519 153.109029 
L 492.820962 153.109029 
Q 496.201154 153.109029 496.201154 149.578971 
L 496.201154 114.866743 
Q 496.201154 111.336686 492.820962 111.336686 
L 408.879519 111.336686 
Q 405.499327 111.336686 405.499327 114.866743 
L 405.499327 149.578971 
Q 405.499327 153.109029 408.879519 153.109029 
z
" clip-path="url(#pb53d0f5d00)" style="fill: #f2fff6; stroke: #2f3a4a; stroke-linejoin: miter"/>
   </g>
   <g id="patch_13">
    <path d="M 451.131923 153.346894 
Q 451.131923 165.464792 451.131923 176.352853 
" clip-path="url(#pb53d0f5d00)" style="fill: none; stroke: #2f3a4a; stroke-width: 1.1; stroke-linecap: round"/>
    <path d="M 453.531923 171.552853 
L 451.131923 176.352853 
L 448.731923 171.552853 
z
" clip-path="url(#pb53d0f5d00)" style="fill: #2f3a4a; stroke: #2f3a4a; stroke-width: 1.1; stroke-linecap: round"/>
   </g>
   <g id="patch_14">
    <path d="M 408.879519 220.768457 
L 492.820962 220.768457 
Q 496.201154 220.768457 496.201154 217.2384 
L 496.201154 182.526171 
Q 496.201154 178.996114 492.820962 178.996114 
L 408.879519 178.996114 
Q 405.499327 178.996114 405.499327 182.526171 
L 405.499327 217.2384 
Q 405.499327 220.768457 408.879519 220.768457 
z
" clip-path="url(#pb53d0f5d00)" style="fill: #f2fff6; stroke: #2f3a4a; stroke-linejoin: miter"/>
   </g>
   <g id="text_1">
    <!-- PACE -->
    <g transform="translate(67.824014 27.792) scale(0.12 -0.12)">
     <defs>
      <path id="MicrosoftYaHei-Bold-50" d="M 1591 1688 
L 1591 0 
L 559 0 
L 559 4841 
L 2225 4841 
Q 4031 4841 4031 3309 
Q 4031 2566 3486 2117 
Q 2941 1669 2122 1688 
L 1591 1688 
z
M 1591 4041 
L 1591 2478 
L 2038 2478 
Q 2947 2478 2947 3269 
Q 2947 4041 2047 4041 
L 1591 4041 
z
" transform="scale(0.015625)"/>
      <path id="MicrosoftYaHei-Bold-41" d="M 4759 0 
L 3634 0 
L 3272 1109 
L 1513 1109 
L 1156 0 
L 38 0 
L 1809 4841 
L 3022 4841 
L 4759 0 
z
M 3028 1906 
L 2478 3584 
Q 2425 3744 2403 4006 
L 2375 4006 
Q 2356 3794 2291 3597 
L 1738 1906 
L 3028 1906 
z
" transform="scale(0.015625)"/>
      <path id="MicrosoftYaHei-Bold-43" d="M 4013 175 
Q 3484 -84 2634 -84 
Q 1541 -84 898 570 
Q 256 1225 256 2316 
Q 256 3463 973 4192 
Q 1691 4922 2825 4922 
Q 3534 4922 4013 4738 
L 4013 3741 
Q 3522 4028 2900 4028 
Q 2191 4028 1766 3575 
Q 1341 3122 1341 2391 
Q 1341 1678 1744 1243 
Q 2147 809 2834 809 
Q 3481 809 4013 1122 
L 4013 175 
z
" transform="scale(0.015625)"/>
      <path id="MicrosoftYaHei-Bold-45" d="M 3425 0 
L 559 0 
L 559 4841 
L 3313 4841 
L 3313 3997 
L 1591 3997 
L 1591 2856 
L 3191 2856 
L 3191 2016 
L 1591 2016 
L 1591 844 
L 3425 844 
L 3425 0 
z
" transform="scale(0.015625)"/>
     </defs>
     <use xlink:href="#MicrosoftYaHei-Bold-50"/>
     <use xlink:href="#MicrosoftYaHei-Bold-41" transform="translate(59.097656 0)"/>
     <use xlink:href="#MicrosoftYaHei-Bold-43" transform="translate(132.667969 0)"/>
     <use xlink:href="#MicrosoftYaHei-Bold-45" transform="translate(200.001953 0)"/>
    </g>
   </g>
   <g id="text_2">
    <!-- Residual leakage -->
    <g transform="translate(48.750631 67.015929) scale(0.09 -0.09)">
     <defs>
      <path id="MicrosoftYaHei-52" d="M 4159 0 
L 3422 0 
L 2619 1344 
Q 2378 1747 2178 1892 
Q 1978 2038 1700 2038 
L 1250 2038 
L 1250 0 
L 625 0 
L 625 4841 
L 2100 4841 
Q 2806 4841 3206 4500 
Q 3606 4159 3606 3547 
Q 3606 2541 2531 2241 
L 2531 2225 
Q 2731 2141 2876 1984 
Q 3022 1828 3253 1450 
L 4159 0 
z
M 1250 4294 
L 1250 2584 
L 1988 2584 
Q 2416 2584 2683 2834 
Q 2950 3084 2950 3491 
Q 2950 3869 2706 4081 
Q 2463 4294 1997 4294 
L 1250 4294 
z
" transform="scale(0.015625)"/>
      <path id="MicrosoftYaHei-65" d="M 3363 1572 
L 944 1572 
Q 959 1019 1246 717 
Q 1534 416 2050 416 
Q 2631 416 3116 788 
L 3116 241 
Q 2659 -81 1906 -81 
Q 1156 -81 736 394 
Q 316 869 316 1713 
Q 316 2506 777 3022 
Q 1238 3538 1922 3538 
Q 2600 3538 2981 3102 
Q 3363 2666 3363 1881 
L 3363 1572 
z
M 2750 2063 
Q 2747 2531 2528 2787 
Q 2309 3044 1913 3044 
Q 1547 3044 1280 2772 
Q 1013 2500 944 2063 
L 2750 2063 
z
" transform="scale(0.015625)"/>
      <path id="MicrosoftYaHei-73" d="M 353 747 
Q 816 413 1350 413 
Q 2066 413 2066 881 
Q 2066 1081 1909 1211 
Q 1753 1341 1275 1519 
Q 700 1750 528 1976 
Q 356 2203 356 2525 
Q 356 2984 745 3261 
Q 1134 3538 1703 3538 
Q 2144 3538 2522 3384 
L 2522 2794 
Q 2134 3044 1644 3044 
Q 1350 3044 1165 2916 
Q 981 2788 981 2578 
Q 981 2372 1114 2256 
Q 1247 2141 1703 1959 
Q 2281 1744 2484 1512 
Q 2688 1281 2688 941 
Q 2688 466 2298 192 
Q 1909 -81 1291 -81 
Q 753 -81 353 122 
L 353 747 
z
" transform="scale(0.015625)"/>
      <path id="MicrosoftYaHei-69" d="M 472 4675 
Q 472 4838 583 4948 
Q 694 5059 856 5059 
Q 1022 5059 1136 4950 
Q 1250 4841 1250 4675 
Q 1250 4513 1136 4405 
Q 1022 4297 856 4297 
Q 691 4297 581 4405 
Q 472 4513 472 4675 
z
M 544 0 
L 544 3456 
L 1156 3456 
L 1156 0 
L 544 0 
z
" transform="scale(0.015625)"/>
      <path id="MicrosoftYaHei-64" d="M 3547 0 
L 2934 0 
L 2934 575 
L 2922 575 
Q 2544 -81 1747 -81 
Q 1091 -81 703 386 
Q 316 853 316 1647 
Q 316 2503 753 3020 
Q 1191 3538 1897 3538 
Q 2603 3538 2922 2988 
L 2934 2988 
L 2934 5116 
L 3547 5116 
L 3547 0 
z
M 2938 2056 
Q 2938 2472 2664 2751 
Q 2391 3031 1991 3031 
Q 1503 3031 1222 2667 
Q 941 2303 941 1675 
Q 941 1097 1211 761 
Q 1481 425 1931 425 
Q 2375 425 2656 754 
Q 2938 1084 2938 1575 
L 2938 2056 
z
" transform="scale(0.015625)"/>
      <path id="MicrosoftYaHei-75" d="M 3400 0 
L 2784 0 
L 2784 544 
L 2772 544 
Q 2425 -81 1706 -81 
Q 478 -81 478 1388 
L 478 3456 
L 1084 3456 
L 1084 1478 
Q 1084 425 1891 425 
Q 2291 425 2537 720 
Q 2784 1016 2784 1466 
L 2784 3456 
L 3400 3456 
L 3400 0 
z
" transform="scale(0.015625)"/>
      <path id="MicrosoftYaHei-61" d="M 628 3216 
Q 1144 3538 1819 3538 
Q 3069 3538 3069 2225 
L 3069 0 
L 2463 0 
L 2463 534 
L 2447 534 
Q 2088 -81 1388 -81 
Q 884 -81 587 191 
Q 291 463 291 925 
Q 291 1894 1438 2053 
L 2463 2197 
Q 2463 3044 1763 3044 
Q 1141 3044 628 2625 
L 628 3216 
z
M 1653 1625 
Q 1228 1569 1067 1412 
Q 906 1256 906 975 
Q 906 728 1081 572 
Q 1256 416 1544 416 
Q 1944 416 2203 697 
Q 2463 978 2463 1403 
L 2463 1734 
L 1653 1625 
z
" transform="scale(0.015625)"/>
      <path id="MicrosoftYaHei-6c" d="M 544 0 
L 544 5116 
L 1156 5116 
L 1156 0 
L 544 0 
z
" transform="scale(0.015625)"/>
      <path id="MicrosoftYaHei-20" transform="scale(0.015625)"/>
      <path id="MicrosoftYaHei-6b" d="M 3484 0 
L 2650 0 
L 1172 1666 
L 1159 1666 
L 1159 0 
L 547 0 
L 547 5116 
L 1159 5116 
L 1159 1872 
L 1172 1872 
L 2575 3456 
L 3363 3456 
L 1800 1794 
L 3484 0 
z
" transform="scale(0.015625)"/>
      <path id="MicrosoftYaHei-67" d="M 3547 291 
Q 3547 -1628 1684 -1628 
Q 1041 -1628 566 -1388 
L 566 -797 
Q 1144 -1119 1675 -1119 
Q 2934 -1119 2934 206 
L 2934 572 
L 2922 572 
Q 2528 -81 1747 -81 
Q 1097 -81 706 384 
Q 316 850 316 1619 
Q 316 2503 747 3020 
Q 1178 3538 1897 3538 
Q 2588 3538 2922 2988 
L 2934 2988 
L 2934 3456 
L 3547 3456 
L 3547 291 
z
M 2934 2056 
Q 2938 2456 2666 2743 
Q 2394 3031 1997 3031 
Q 1497 3031 1219 2664 
Q 941 2297 941 1656 
Q 941 1106 1209 765 
Q 1478 425 1922 425 
Q 2369 425 2653 750 
Q 2938 1075 2934 1575 
L 2934 2056 
z
" transform="scale(0.015625)"/>
     </defs>
     <use xlink:href="#MicrosoftYaHei-52"/>
     <use xlink:href="#MicrosoftYaHei-65" transform="translate(62.283203 0)"/>
     <use xlink:href="#MicrosoftYaHei-73" transform="translate(119.021484 0)"/>
     <use xlink:href="#MicrosoftYaHei-69" transform="translate(165.310547 0)"/>
     <use xlink:href="#MicrosoftYaHei-64" transform="translate(191.921875 0)"/>
     <use xlink:href="#MicrosoftYaHei-75" transform="translate(255.886719 0)"/>
     <use xlink:href="#MicrosoftYaHei-61" transform="translate(317.507812 0)"/>
     <use xlink:href="#MicrosoftYaHei-6c" transform="translate(372.78125 0)"/>
     <use xlink:href="#MicrosoftYaHei-20" transform="translate(399.392578 0)"/>
     <use xlink:href="#MicrosoftYaHei-6c" transform="translate(428.982422 0)"/>
     <use xlink:href="#MicrosoftYaHei-65" transform="translate(455.59375 0)"/>
     <use xlink:href="#MicrosoftYaHei-61" transform="translate(512.332031 0)"/>
     <use xlink:href="#MicrosoftYaHei-6b" transform="translate(567.605469 0)"/>
     <use xlink:href="#MicrosoftYaHei-61" transform="translate(622.048828 0)"/>
     <use xlink:href="#MicrosoftYaHei-67" transform="translate(677.322266 0)"/>
     <use xlink:href="#MicrosoftYaHei-65" transform="translate(741.287109 0)"/>
    </g>
   </g>
   <g id="text_3">
    <!-- Privacy refusal -->
    <g transform="translate(53.95235 129.292795) scale(0.09 -0.09)">
     <defs>
      <path id="MicrosoftYaHei-50" d="M 1250 1809 
L 1250 0 
L 625 0 
L 625 4841 
L 2000 4841 
Q 2784 4841 3217 4462 
Q 3650 4084 3650 3381 
Q 3650 2669 3144 2226 
Q 2638 1784 1878 1809 
L 1250 1809 
z
M 1250 4291 
L 1250 2359 
L 1828 2359 
Q 2400 2359 2697 2617 
Q 2994 2875 2994 3356 
Q 2994 4291 1888 4291 
L 1250 4291 
z
" transform="scale(0.015625)"/>
      <path id="MicrosoftYaHei-72" d="M 2400 2850 
Q 2247 2959 1978 2959 
Q 1622 2959 1390 2626 
Q 1159 2294 1159 1750 
L 1159 0 
L 547 0 
L 547 3456 
L 1159 3456 
L 1159 2753 
L 1172 2753 
Q 1434 3516 2078 3516 
Q 2288 3516 2400 3469 
L 2400 2850 
z
" transform="scale(0.015625)"/>
      <path id="MicrosoftYaHei-76" d="M 3331 3456 
L 1963 0 
L 1344 0 
L 44 3456 
L 713 3456 
L 1556 988 
Q 1659 691 1678 491 
L 1694 491 
Q 1725 753 1803 975 
L 2688 3456 
L 3331 3456 
z
" transform="scale(0.015625)"/>
      <path id="MicrosoftYaHei-63" d="M 2934 156 
Q 2538 -81 1978 -81 
Q 1228 -81 772 400 
Q 316 881 316 1647 
Q 316 2497 808 3017 
Q 1300 3538 2125 3538 
Q 2600 3538 2938 3369 
L 2938 2763 
Q 2572 3031 2125 3031 
Q 1600 3031 1270 2667 
Q 941 2303 941 1697 
Q 941 1100 1252 762 
Q 1563 425 2091 425 
Q 2538 425 2934 719 
L 2934 156 
z
" transform="scale(0.015625)"/>
      <path id="MicrosoftYaHei-79" d="M 3359 3456 
L 1791 -522 
Q 1353 -1628 556 -1628 
Q 328 -1628 166 -1578 
L 166 -1041 
Q 344 -1109 509 -1109 
Q 925 -1109 1131 -622 
L 1397 6 
L 41 3456 
L 719 3456 
L 1622 859 
L 1697 575 
L 1713 575 
Q 1731 672 1788 853 
L 2731 3456 
L 3359 3456 
z
" transform="scale(0.015625)"/>
      <path id="MicrosoftYaHei-66" d="M 2319 4594 
Q 2147 4684 1947 4684 
Q 1372 4684 1372 3972 
L 1372 3456 
L 2181 3456 
L 2181 2950 
L 1372 2950 
L 1372 0 
L 766 0 
L 766 2950 
L 175 2950 
L 175 3456 
L 766 3456 
L 766 4000 
Q 766 4556 1086 4873 
Q 1406 5191 1900 5191 
Q 2163 5191 2319 5131 
L 2319 4594 
z
" transform="scale(0.015625)"/>
     </defs>
     <use xlink:href="#MicrosoftYaHei-50"/>
     <use xlink:href="#MicrosoftYaHei-72" transform="translate(61.181641 0)"/>
     <use xlink:href="#MicrosoftYaHei-69" transform="translate(99.365234 0)"/>
     <use xlink:href="#MicrosoftYaHei-76" transform="translate(125.976562 0)"/>
     <use xlink:href="#MicrosoftYaHei-61" transform="translate(176.466797 0)"/>
     <use xlink:href="#MicrosoftYaHei-63" transform="translate(231.740234 0)"/>
     <use xlink:href="#MicrosoftYaHei-79" transform="translate(281.886719 0)"/>
     <use xlink:href="#MicrosoftYaHei-20" transform="translate(334.816406 0)"/>
     <use xlink:href="#MicrosoftYaHei-72" transform="translate(364.40625 0)"/>
     <use xlink:href="#MicrosoftYaHei-65" transform="translate(401.214844 0)"/>
     <use xlink:href="#MicrosoftYaHei-66" transform="translate(457.953125 0)"/>
     <use xlink:href="#MicrosoftYaHei-75" transform="translate(492.621094 0)"/>
     <use xlink:href="#MicrosoftYaHei-73" transform="translate(554.242188 0)"/>
     <use xlink:href="#MicrosoftYaHei-61" transform="translate(600.53125 0)"/>
     <use xlink:href="#MicrosoftYaHei-6c" transform="translate(655.804688 0)"/>
    </g>
    <!-- requests -->
    <g transform="translate(66.405397 140.21542) scale(0.09 -0.09)">
     <defs>
      <path id="MicrosoftYaHei-71" d="M 3547 -1591 
L 2934 -1591 
L 2934 581 
L 2922 581 
Q 2559 -81 1753 -81 
Q 1100 -81 708 380 
Q 316 841 316 1647 
Q 316 2506 747 3022 
Q 1178 3538 1903 3538 
Q 2603 3538 2922 2988 
L 2934 2988 
L 2934 3456 
L 3547 3456 
L 3547 -1591 
z
M 2934 2044 
Q 2938 2453 2673 2742 
Q 2409 3031 1984 3031 
Q 1497 3031 1219 2668 
Q 941 2306 941 1663 
Q 941 1081 1208 753 
Q 1475 425 1909 425 
Q 2384 425 2661 751 
Q 2938 1078 2934 1566 
L 2934 2044 
z
" transform="scale(0.015625)"/>
      <path id="MicrosoftYaHei-74" d="M 2206 34 
Q 2006 -75 1666 -75 
Q 738 -75 738 953 
L 738 2950 
L 144 2950 
L 144 3456 
L 738 3456 
L 738 4288 
L 1347 4481 
L 1347 3456 
L 2206 3456 
L 2206 2950 
L 1347 2950 
L 1347 1063 
Q 1347 722 1462 575 
Q 1578 428 1847 428 
Q 2053 428 2206 544 
L 2206 34 
z
" transform="scale(0.015625)"/>
     </defs>
     <use xlink:href="#MicrosoftYaHei-72"/>
     <use xlink:href="#MicrosoftYaHei-65" transform="translate(36.808594 0)"/>
     <use xlink:href="#MicrosoftYaHei-71" transform="translate(93.546875 0)"/>
     <use xlink:href="#MicrosoftYaHei-75" transform="translate(157.511719 0)"/>
     <use xlink:href="#MicrosoftYaHei-65" transform="translate(219.132812 0)"/>
     <use xlink:href="#MicrosoftYaHei-73" transform="translate(275.871094 0)"/>
     <use xlink:href="#MicrosoftYaHei-74" transform="translate(322.160156 0)"/>
     <use xlink:href="#MicrosoftYaHei-73" transform="translate(359.416016 0)"/>
    </g>
   </g>
   <g id="text_4">
    <!-- CAPE -->
    <g transform="translate(250.422764 27.792) scale(0.12 -0.12)">
     <use xlink:href="#MicrosoftYaHei-Bold-43"/>
     <use xlink:href="#MicrosoftYaHei-Bold-41" transform="translate(67.333984 0)"/>
     <use xlink:href="#MicrosoftYaHei-Bold-50" transform="translate(142.529297 0)"/>
     <use xlink:href="#MicrosoftYaHei-Bold-45" transform="translate(208.251953 0)"/>
    </g>
   </g>
   <g id="text_5">
    <!-- Residual leakage -->
    <g transform="translate(231.844381 67.015929) scale(0.09 -0.09)">
     <use xlink:href="#MicrosoftYaHei-52"/>
     <use xlink:href="#MicrosoftYaHei-65" transform="translate(62.283203 0)"/>
     <use xlink:href="#MicrosoftYaHei-73" transform="translate(119.021484 0)"/>
     <use xlink:href="#MicrosoftYaHei-69" transform="translate(165.310547 0)"/>
     <use xlink:href="#MicrosoftYaHei-64" transform="translate(191.921875 0)"/>
     <use xlink:href="#MicrosoftYaHei-75" transform="translate(255.886719 0)"/>
     <use xlink:href="#MicrosoftYaHei-61" transform="translate(317.507812 0)"/>
     <use xlink:href="#MicrosoftYaHei-6c" transform="translate(372.78125 0)"/>
     <use xlink:href="#MicrosoftYaHei-20" transform="translate(399.392578 0)"/>
     <use xlink:href="#MicrosoftYaHei-6c" transform="translate(428.982422 0)"/>
     <use xlink:href="#MicrosoftYaHei-65" transform="translate(455.59375 0)"/>
     <use xlink:href="#MicrosoftYaHei-61" transform="translate(512.332031 0)"/>
     <use xlink:href="#MicrosoftYaHei-6b" transform="translate(567.605469 0)"/>
     <use xlink:href="#MicrosoftYaHei-61" transform="translate(622.048828 0)"/>
     <use xlink:href="#MicrosoftYaHei-67" transform="translate(677.322266 0)"/>
     <use xlink:href="#MicrosoftYaHei-65" transform="translate(741.287109 0)"/>
    </g>
   </g>
   <g id="text_6">
    <!-- Locality risk / -->
    <g transform="translate(239.354459 129.214045) scale(0.09 -0.09)">
     <defs>
      <path id="MicrosoftYaHei-4c" d="M 3178 0 
L 625 0 
L 625 4841 
L 1250 4841 
L 1250 553 
L 3178 553 
L 3178 0 
z
" transform="scale(0.015625)"/>
      <path id="MicrosoftYaHei-6f" d="M 316 1691 
Q 316 2547 794 3042 
Q 1272 3538 2091 3538 
Q 2869 3538 3311 3061 
Q 3753 2584 3753 1744 
Q 3753 925 3281 422 
Q 2809 -81 2016 -81 
Q 1241 -81 778 406 
Q 316 894 316 1691 
z
M 941 1709 
Q 941 1113 1242 769 
Q 1544 425 2053 425 
Q 2578 425 2853 761 
Q 3128 1097 3128 1725 
Q 3128 2356 2853 2693 
Q 2578 3031 2053 3031 
Q 1538 3031 1239 2678 
Q 941 2325 941 1709 
z
" transform="scale(0.015625)"/>
      <path id="MicrosoftYaHei-2f" d="M 2791 4841 
L 469 -803 
L -103 -803 
L 2219 4841 
L 2791 4841 
z
" transform="scale(0.015625)"/>
     </defs>
     <use xlink:href="#MicrosoftYaHei-4c"/>
     <use xlink:href="#MicrosoftYaHei-6f" transform="translate(51.318359 0)"/>
     <use xlink:href="#MicrosoftYaHei-63" transform="translate(114.892578 0)"/>
     <use xlink:href="#MicrosoftYaHei-61" transform="translate(165.039062 0)"/>
     <use xlink:href="#MicrosoftYaHei-6c" transform="translate(220.3125 0)"/>
     <use xlink:href="#MicrosoftYaHei-69" transform="translate(246.923828 0)"/>
     <use xlink:href="#MicrosoftYaHei-74" transform="translate(273.535156 0)"/>
     <use xlink:href="#MicrosoftYaHei-79" transform="translate(310.791016 0)"/>
     <use xlink:href="#MicrosoftYaHei-20" transform="translate(363.720703 0)"/>
     <use xlink:href="#MicrosoftYaHei-72" transform="translate(393.310547 0)"/>
     <use xlink:href="#MicrosoftYaHei-69" transform="translate(431.494141 0)"/>
     <use xlink:href="#MicrosoftYaHei-73" transform="translate(458.105469 0)"/>
     <use xlink:href="#MicrosoftYaHei-6b" transform="translate(504.394531 0)"/>
     <use xlink:href="#MicrosoftYaHei-20" transform="translate(558.837891 0)"/>
     <use xlink:href="#MicrosoftYaHei-2f" transform="translate(588.427734 0)"/>
    </g>
    <!-- subject budget -->
    <g transform="translate(235.372662 140.13667) scale(0.09 -0.09)">
     <defs>
      <path id="MicrosoftYaHei-62" d="M 1159 488 
L 1159 0 
L 547 0 
L 547 5116 
L 1159 5116 
L 1159 2859 
L 1172 2859 
Q 1578 3538 2359 3538 
Q 3009 3538 3392 3080 
Q 3775 2622 3775 1828 
Q 3775 953 3345 436 
Q 2916 -81 2200 -81 
Q 1525 -81 1172 488 
L 1159 488 
z
M 1156 1422 
Q 1156 1003 1428 714 
Q 1700 425 2109 425 
Q 2597 425 2872 800 
Q 3147 1175 3147 1838 
Q 3147 2384 2890 2707 
Q 2634 3031 2191 3031 
Q 1741 3031 1448 2709 
Q 1156 2388 1156 1891 
L 1156 1422 
z
" transform="scale(0.015625)"/>
      <path id="MicrosoftYaHei-6a" d="M 475 4675 
Q 475 4838 584 4948 
Q 694 5059 859 5059 
Q 1028 5059 1140 4950 
Q 1253 4841 1253 4675 
Q 1253 4516 1139 4406 
Q 1025 4297 859 4297 
Q 694 4297 584 4408 
Q 475 4519 475 4675 
z
M 1159 134 
Q 1159 -706 811 -1167 
Q 463 -1628 -178 -1628 
Q -416 -1628 -644 -1519 
L -644 -966 
Q -400 -1116 -181 -1116 
Q 547 -1116 547 44 
L 547 3456 
L 1159 3456 
L 1159 134 
z
" transform="scale(0.015625)"/>
     </defs>
     <use xlink:href="#MicrosoftYaHei-73"/>
     <use xlink:href="#MicrosoftYaHei-75" transform="translate(46.289062 0)"/>
     <use xlink:href="#MicrosoftYaHei-62" transform="translate(107.910156 0)"/>
     <use xlink:href="#MicrosoftYaHei-6a" transform="translate(171.777344 0)"/>
     <use xlink:href="#MicrosoftYaHei-65" transform="translate(198.486328 0)"/>
     <use xlink:href="#MicrosoftYaHei-63" transform="translate(255.224609 0)"/>
     <use xlink:href="#MicrosoftYaHei-74" transform="translate(305.371094 0)"/>
     <use xlink:href="#MicrosoftYaHei-20" transform="translate(342.626953 0)"/>
     <use xlink:href="#MicrosoftYaHei-62" transform="translate(372.216797 0)"/>
     <use xlink:href="#MicrosoftYaHei-75" transform="translate(436.083984 0)"/>
     <use xlink:href="#MicrosoftYaHei-64" transform="translate(497.705078 0)"/>
     <use xlink:href="#MicrosoftYaHei-67" transform="translate(561.669922 0)"/>
     <use xlink:href="#MicrosoftYaHei-65" transform="translate(625.634766 0)"/>
     <use xlink:href="#MicrosoftYaHei-74" transform="translate(682.373047 0)"/>
    </g>
   </g>
   <g id="text_7">
    <!-- Filtered privacy -->
    <g transform="translate(235.172975 196.899489) scale(0.09 -0.09)">
     <defs>
      <path id="MicrosoftYaHei-46" d="M 3119 4284 
L 1250 4284 
L 1250 2666 
L 2981 2666 
L 2981 2116 
L 1250 2116 
L 1250 0 
L 625 0 
L 625 4841 
L 3119 4841 
L 3119 4284 
z
" transform="scale(0.015625)"/>
      <path id="MicrosoftYaHei-70" d="M 1159 488 
L 1159 -1591 
L 547 -1591 
L 547 3456 
L 1159 3456 
L 1159 2859 
L 1172 2859 
Q 1578 3538 2359 3538 
Q 3022 3538 3398 3073 
Q 3775 2609 3775 1828 
Q 3775 966 3348 442 
Q 2922 -81 2200 -81 
Q 1534 -81 1172 488 
L 1159 488 
z
M 1156 1425 
Q 1156 1003 1428 714 
Q 1700 425 2109 425 
Q 2597 425 2872 800 
Q 3147 1175 3147 1838 
Q 3147 2397 2890 2714 
Q 2634 3031 2191 3031 
Q 1738 3031 1447 2709 
Q 1156 2388 1156 1884 
L 1156 1425 
z
" transform="scale(0.015625)"/>
     </defs>
     <use xlink:href="#MicrosoftYaHei-46"/>
     <use xlink:href="#MicrosoftYaHei-69" transform="translate(53.125 0)"/>
     <use xlink:href="#MicrosoftYaHei-6c" transform="translate(79.736328 0)"/>
     <use xlink:href="#MicrosoftYaHei-74" transform="translate(106.347656 0)"/>
     <use xlink:href="#MicrosoftYaHei-65" transform="translate(142.728516 0)"/>
     <use xlink:href="#MicrosoftYaHei-72" transform="translate(199.466797 0)"/>
     <use xlink:href="#MicrosoftYaHei-65" transform="translate(236.275391 0)"/>
     <use xlink:href="#MicrosoftYaHei-64" transform="translate(293.013672 0)"/>
     <use xlink:href="#MicrosoftYaHei-20" transform="translate(356.978516 0)"/>
     <use xlink:href="#MicrosoftYaHei-70" transform="translate(386.568359 0)"/>
     <use xlink:href="#MicrosoftYaHei-72" transform="translate(450.435547 0)"/>
     <use xlink:href="#MicrosoftYaHei-69" transform="translate(488.619141 0)"/>
     <use xlink:href="#MicrosoftYaHei-76" transform="translate(515.230469 0)"/>
     <use xlink:href="#MicrosoftYaHei-61" transform="translate(565.720703 0)"/>
     <use xlink:href="#MicrosoftYaHei-63" transform="translate(620.994141 0)"/>
     <use xlink:href="#MicrosoftYaHei-79" transform="translate(671.140625 0)"/>
    </g>
    <!-- requests -->
    <g transform="translate(249.499147 207.822114) scale(0.09 -0.09)">
     <use xlink:href="#MicrosoftYaHei-72"/>
     <use xlink:href="#MicrosoftYaHei-65" transform="translate(36.808594 0)"/>
     <use xlink:href="#MicrosoftYaHei-71" transform="translate(93.546875 0)"/>
     <use xlink:href="#MicrosoftYaHei-75" transform="translate(157.511719 0)"/>
     <use xlink:href="#MicrosoftYaHei-65" transform="translate(219.132812 0)"/>
     <use xlink:href="#MicrosoftYaHei-73" transform="translate(275.871094 0)"/>
     <use xlink:href="#MicrosoftYaHei-74" transform="translate(322.160156 0)"/>
     <use xlink:href="#MicrosoftYaHei-73" transform="translate(359.416016 0)"/>
    </g>
   </g>
   <g id="text_8">
    <!-- CAPE-Anchor -->
    <g transform="translate(409.038389 27.792) scale(0.12 -0.12)">
     <defs>
      <path id="MicrosoftYaHei-Bold-2d" d="M 2328 1497 
L 481 1497 
L 481 2209 
L 2328 2209 
L 2328 1497 
z
" transform="scale(0.015625)"/>
      <path id="MicrosoftYaHei-Bold-6e" d="M 3744 0 
L 2741 0 
L 2741 1928 
Q 2741 2766 2138 2766 
Q 1850 2766 1659 2542 
Q 1469 2319 1469 1972 
L 1469 0 
L 459 0 
L 459 3456 
L 1469 3456 
L 1469 2906 
L 1481 2906 
Q 1859 3541 2594 3541 
Q 3744 3541 3744 2116 
L 3744 0 
z
" transform="scale(0.015625)"/>
      <path id="MicrosoftYaHei-Bold-63" d="M 3050 128 
Q 2688 -84 2019 -84 
Q 1228 -84 740 397 
Q 253 878 253 1644 
Q 253 2525 778 3033 
Q 1303 3541 2178 3541 
Q 2769 3541 3053 3378 
L 3053 2513 
Q 2706 2766 2297 2766 
Q 1834 2766 1554 2484 
Q 1275 2203 1275 1713 
Q 1275 1238 1540 964 
Q 1806 691 2263 691 
Q 2666 691 3050 947 
L 3050 128 
z
" transform="scale(0.015625)"/>
      <path id="MicrosoftYaHei-Bold-68" d="M 3725 0 
L 2719 0 
L 2719 1969 
Q 2719 2766 2138 2766 
Q 1847 2766 1658 2544 
Q 1469 2322 1469 1969 
L 1469 0 
L 459 0 
L 459 5116 
L 1469 5116 
L 1469 2938 
L 1481 2938 
Q 1878 3541 2550 3541 
Q 3725 3541 3725 2122 
L 3725 0 
z
" transform="scale(0.015625)"/>
      <path id="MicrosoftYaHei-Bold-6f" d="M 253 1713 
Q 253 2566 764 3053 
Q 1275 3541 2138 3541 
Q 2972 3541 3462 3061 
Q 3953 2581 3953 1772 
Q 3953 922 3450 419 
Q 2947 -84 2088 -84 
Q 1244 -84 748 398 
Q 253 881 253 1713 
z
M 1275 1725 
Q 1275 691 2119 691 
Q 2928 691 2928 1753 
Q 2928 2766 2113 2766 
Q 1716 2766 1495 2494 
Q 1275 2222 1275 1725 
z
" transform="scale(0.015625)"/>
      <path id="MicrosoftYaHei-Bold-72" d="M 2663 2541 
Q 2478 2647 2216 2647 
Q 1872 2647 1670 2384 
Q 1469 2122 1469 1663 
L 1469 0 
L 459 0 
L 459 3456 
L 1469 3456 
L 1469 2806 
L 1481 2806 
Q 1731 3516 2391 3516 
Q 2569 3516 2663 3475 
L 2663 2541 
z
" transform="scale(0.015625)"/>
     </defs>
     <use xlink:href="#MicrosoftYaHei-Bold-43"/>
     <use xlink:href="#MicrosoftYaHei-Bold-41" transform="translate(67.333984 0)"/>
     <use xlink:href="#MicrosoftYaHei-Bold-50" transform="translate(142.529297 0)"/>
     <use xlink:href="#MicrosoftYaHei-Bold-45" transform="translate(208.251953 0)"/>
     <use xlink:href="#MicrosoftYaHei-Bold-2d" transform="translate(265.429688 0)"/>
     <use xlink:href="#MicrosoftYaHei-Bold-41" transform="translate(309.082031 0)"/>
     <use xlink:href="#MicrosoftYaHei-Bold-6e" transform="translate(384.277344 0)"/>
     <use xlink:href="#MicrosoftYaHei-Bold-63" transform="translate(449.072266 0)"/>
     <use xlink:href="#MicrosoftYaHei-Bold-68" transform="translate(500.732422 0)"/>
     <use xlink:href="#MicrosoftYaHei-Bold-6f" transform="translate(565.283203 0)"/>
     <use xlink:href="#MicrosoftYaHei-Bold-72" transform="translate(631.005859 0)"/>
    </g>
   </g>
   <g id="text_9">
    <!-- Residual leakage -->
    <g transform="translate(414.938131 67.015929) scale(0.09 -0.09)">
     <use xlink:href="#MicrosoftYaHei-52"/>
     <use xlink:href="#MicrosoftYaHei-65" transform="translate(62.283203 0)"/>
     <use xlink:href="#MicrosoftYaHei-73" transform="translate(119.021484 0)"/>
     <use xlink:href="#MicrosoftYaHei-69" transform="translate(165.310547 0)"/>
     <use xlink:href="#MicrosoftYaHei-64" transform="translate(191.921875 0)"/>
     <use xlink:href="#MicrosoftYaHei-75" transform="translate(255.886719 0)"/>
     <use xlink:href="#MicrosoftYaHei-61" transform="translate(317.507812 0)"/>
     <use xlink:href="#MicrosoftYaHei-6c" transform="translate(372.78125 0)"/>
     <use xlink:href="#MicrosoftYaHei-20" transform="translate(399.392578 0)"/>
     <use xlink:href="#MicrosoftYaHei-6c" transform="translate(428.982422 0)"/>
     <use xlink:href="#MicrosoftYaHei-65" transform="translate(455.59375 0)"/>
     <use xlink:href="#MicrosoftYaHei-61" transform="translate(512.332031 0)"/>
     <use xlink:href="#MicrosoftYaHei-6b" transform="translate(567.605469 0)"/>
     <use xlink:href="#MicrosoftYaHei-61" transform="translate(622.048828 0)"/>
     <use xlink:href="#MicrosoftYaHei-67" transform="translate(677.322266 0)"/>
     <use xlink:href="#MicrosoftYaHei-65" transform="translate(741.287109 0)"/>
    </g>
   </g>
   <g id="text_10">
    <!-- Public anchors -->
    <g transform="translate(419.481725 134.701373) scale(0.09 -0.09)">
     <defs>
      <path id="MicrosoftYaHei-6e" d="M 3469 0 
L 2859 0 
L 2859 1966 
Q 2859 3031 2081 3031 
Q 1678 3031 1418 2731 
Q 1159 2431 1159 1972 
L 1159 0 
L 547 0 
L 547 3456 
L 1159 3456 
L 1159 2884 
L 1172 2884 
Q 1563 3538 2306 3538 
Q 2875 3538 3172 3173 
Q 3469 2809 3469 2113 
L 3469 0 
z
" transform="scale(0.015625)"/>
      <path id="MicrosoftYaHei-68" d="M 3466 0 
L 2856 0 
L 2856 1988 
Q 2856 3031 2081 3031 
Q 1684 3031 1421 2726 
Q 1159 2422 1159 1959 
L 1159 0 
L 547 0 
L 547 5116 
L 1159 5116 
L 1159 2888 
L 1172 2888 
Q 1569 3538 2300 3538 
Q 3466 3538 3466 2128 
L 3466 0 
z
" transform="scale(0.015625)"/>
     </defs>
     <use xlink:href="#MicrosoftYaHei-50"/>
     <use xlink:href="#MicrosoftYaHei-75" transform="translate(61.181641 0)"/>
     <use xlink:href="#MicrosoftYaHei-62" transform="translate(122.802734 0)"/>
     <use xlink:href="#MicrosoftYaHei-6c" transform="translate(186.669922 0)"/>
     <use xlink:href="#MicrosoftYaHei-69" transform="translate(213.28125 0)"/>
     <use xlink:href="#MicrosoftYaHei-63" transform="translate(239.892578 0)"/>
     <use xlink:href="#MicrosoftYaHei-20" transform="translate(290.039062 0)"/>
     <use xlink:href="#MicrosoftYaHei-61" transform="translate(319.628906 0)"/>
     <use xlink:href="#MicrosoftYaHei-6e" transform="translate(374.902344 0)"/>
     <use xlink:href="#MicrosoftYaHei-63" transform="translate(436.523438 0)"/>
     <use xlink:href="#MicrosoftYaHei-68" transform="translate(486.669922 0)"/>
     <use xlink:href="#MicrosoftYaHei-6f" transform="translate(548.242188 0)"/>
     <use xlink:href="#MicrosoftYaHei-72" transform="translate(611.816406 0)"/>
     <use xlink:href="#MicrosoftYaHei-73" transform="translate(650.75 0)"/>
    </g>
   </g>
   <g id="text_11">
    <!-- Privacy refusal + -->
    <g transform="translate(415.470397 196.952223) scale(0.09 -0.09)">
     <defs>
      <path id="MicrosoftYaHei-2b" d="M 3972 1772 
L 2613 1772 
L 2613 419 
L 2141 419 
L 2141 1772 
L 788 1772 
L 788 2250 
L 2141 2250 
L 2141 3603 
L 2613 3603 
L 2613 2250 
L 3972 2250 
L 3972 1772 
z
" transform="scale(0.015625)"/>
     </defs>
     <use xlink:href="#MicrosoftYaHei-50"/>
     <use xlink:href="#MicrosoftYaHei-72" transform="translate(61.181641 0)"/>
     <use xlink:href="#MicrosoftYaHei-69" transform="translate(99.365234 0)"/>
     <use xlink:href="#MicrosoftYaHei-76" transform="translate(125.976562 0)"/>
     <use xlink:href="#MicrosoftYaHei-61" transform="translate(176.466797 0)"/>
     <use xlink:href="#MicrosoftYaHei-63" transform="translate(231.740234 0)"/>
     <use xlink:href="#MicrosoftYaHei-79" transform="translate(281.886719 0)"/>
     <use xlink:href="#MicrosoftYaHei-20" transform="translate(334.816406 0)"/>
     <use xlink:href="#MicrosoftYaHei-72" transform="translate(364.40625 0)"/>
     <use xlink:href="#MicrosoftYaHei-65" transform="translate(401.214844 0)"/>
     <use xlink:href="#MicrosoftYaHei-66" transform="translate(457.953125 0)"/>
     <use xlink:href="#MicrosoftYaHei-75" transform="translate(492.621094 0)"/>
     <use xlink:href="#MicrosoftYaHei-73" transform="translate(554.242188 0)"/>
     <use xlink:href="#MicrosoftYaHei-61" transform="translate(600.53125 0)"/>
     <use xlink:href="#MicrosoftYaHei-6c" transform="translate(655.804688 0)"/>
     <use xlink:href="#MicrosoftYaHei-20" transform="translate(682.416016 0)"/>
     <use xlink:href="#MicrosoftYaHei-2b" transform="translate(712.005859 0)"/>
    </g>
    <!-- public retain requests -->
    <g transform="translate(404.41235 207.874848) scale(0.09 -0.09)">
     <use xlink:href="#MicrosoftYaHei-70"/>
     <use xlink:href="#MicrosoftYaHei-75" transform="translate(63.867188 0)"/>
     <use xlink:href="#MicrosoftYaHei-62" transform="translate(125.488281 0)"/>
     <use xlink:href="#MicrosoftYaHei-6c" transform="translate(189.355469 0)"/>
     <use xlink:href="#MicrosoftYaHei-69" transform="translate(215.966797 0)"/>
     <use xlink:href="#MicrosoftYaHei-63" transform="translate(242.578125 0)"/>
     <use xlink:href="#MicrosoftYaHei-20" transform="translate(292.724609 0)"/>
     <use xlink:href="#MicrosoftYaHei-72" transform="translate(322.314453 0)"/>
     <use xlink:href="#MicrosoftYaHei-65" transform="translate(359.123047 0)"/>
     <use xlink:href="#MicrosoftYaHei-74" transform="translate(415.861328 0)"/>
     <use xlink:href="#MicrosoftYaHei-61" transform="translate(453.117188 0)"/>
     <use xlink:href="#MicrosoftYaHei-69" transform="translate(508.390625 0)"/>
     <use xlink:href="#MicrosoftYaHei-6e" transform="translate(535.001953 0)"/>
     <use xlink:href="#MicrosoftYaHei-20" transform="translate(596.623047 0)"/>
     <use xlink:href="#MicrosoftYaHei-72" transform="translate(626.212891 0)"/>
     <use xlink:href="#MicrosoftYaHei-65" transform="translate(663.021484 0)"/>
     <use xlink:href="#MicrosoftYaHei-71" transform="translate(719.759766 0)"/>
     <use xlink:href="#MicrosoftYaHei-75" transform="translate(783.724609 0)"/>
     <use xlink:href="#MicrosoftYaHei-65" transform="translate(845.345703 0)"/>
     <use xlink:href="#MicrosoftYaHei-73" transform="translate(902.083984 0)"/>
     <use xlink:href="#MicrosoftYaHei-74" transform="translate(948.373047 0)"/>
     <use xlink:href="#MicrosoftYaHei-73" transform="translate(985.628906 0)"/>
    </g>
   </g>
   <g id="text_12">
    <!-- $R_{final}=R_{round1}\cup R_{privacy}\cup R_{anchor}$ for CAPE-Anchor -->
    <g transform="translate(38.185096 274.896) scale(0.11 -0.11)">
     <defs>
      <path id="DejaVuSans-Oblique-52" d="M 1613 4147 
L 1294 2491 
L 2106 2491 
Q 2584 2491 2879 2755 
Q 3175 3019 3175 3444 
Q 3175 3784 2976 3965 
Q 2778 4147 2406 4147 
L 1613 4147 
z
M 2772 2241 
Q 2972 2194 3105 2009 
Q 3238 1825 3413 1275 
L 3809 0 
L 3144 0 
L 2778 1197 
Q 2638 1659 2453 1815 
Q 2269 1972 1888 1972 
L 1191 1972 
L 806 0 
L 172 0 
L 1081 4666 
L 2503 4666 
Q 3150 4666 3495 4373 
Q 3841 4081 3841 3531 
Q 3841 3044 3547 2687 
Q 3253 2331 2772 2241 
z
" transform="scale(0.015625)"/>
      <path id="DejaVuSans-Oblique-66" d="M 3059 4863 
L 2969 4384 
L 2419 4384 
Q 2106 4384 1964 4261 
Q 1822 4138 1753 3809 
L 1691 3500 
L 2638 3500 
L 2553 3053 
L 1606 3053 
L 1013 0 
L 434 0 
L 1031 3053 
L 481 3053 
L 563 3500 
L 1113 3500 
L 1159 3744 
Q 1278 4363 1576 4613 
Q 1875 4863 2516 4863 
L 3059 4863 
z
" transform="scale(0.015625)"/>
      <path id="DejaVuSans-Oblique-69" d="M 1172 4863 
L 1747 4863 
L 1606 4134 
L 1031 4134 
L 1172 4863 
z
M 909 3500 
L 1484 3500 
L 800 0 
L 225 0 
L 909 3500 
z
" transform="scale(0.015625)"/>
      <path id="DejaVuSans-Oblique-6e" d="M 3566 2113 
L 3156 0 
L 2578 0 
L 2988 2091 
Q 3016 2238 3031 2350 
Q 3047 2463 3047 2528 
Q 3047 2791 2881 2937 
Q 2716 3084 2419 3084 
Q 1956 3084 1622 2776 
Q 1288 2469 1184 1941 
L 800 0 
L 225 0 
L 903 3500 
L 1478 3500 
L 1363 2950 
Q 1603 3253 1940 3418 
Q 2278 3584 2650 3584 
Q 3113 3584 3367 3334 
Q 3622 3084 3622 2631 
Q 3622 2519 3608 2391 
Q 3594 2263 3566 2113 
z
" transform="scale(0.015625)"/>
      <path id="DejaVuSans-Oblique-61" d="M 3438 1997 
L 3047 0 
L 2472 0 
L 2578 531 
Q 2325 219 2001 64 
Q 1678 -91 1281 -91 
Q 834 -91 548 182 
Q 263 456 263 884 
Q 263 1497 752 1853 
Q 1241 2209 2100 2209 
L 2900 2209 
L 2931 2363 
Q 2938 2388 2941 2417 
Q 2944 2447 2944 2509 
Q 2944 2788 2717 2942 
Q 2491 3097 2081 3097 
Q 1800 3097 1504 3025 
Q 1209 2953 897 2809 
L 997 3341 
Q 1322 3463 1633 3523 
Q 1944 3584 2234 3584 
Q 2853 3584 3176 3315 
Q 3500 3047 3500 2534 
Q 3500 2431 3484 2292 
Q 3469 2153 3438 1997 
z
M 2816 1759 
L 2241 1759 
Q 1534 1759 1195 1570 
Q 856 1381 856 984 
Q 856 709 1029 553 
Q 1203 397 1509 397 
Q 1978 397 2328 733 
Q 2678 1069 2791 1631 
L 2816 1759 
z
" transform="scale(0.015625)"/>
      <path id="DejaVuSans-Oblique-6c" d="M 1172 4863 
L 1747 4863 
L 800 0 
L 225 0 
L 1172 4863 
z
" transform="scale(0.015625)"/>
      <path id="DejaVuSans-3d" d="M 678 2906 
L 4684 2906 
L 4684 2381 
L 678 2381 
L 678 2906 
z
M 678 1631 
L 4684 1631 
L 4684 1100 
L 678 1100 
L 678 1631 
z
" transform="scale(0.015625)"/>
      <path id="DejaVuSans-Oblique-72" d="M 2853 2969 
Q 2766 3016 2653 3041 
Q 2541 3066 2413 3066 
Q 1953 3066 1609 2717 
Q 1266 2369 1153 1784 
L 800 0 
L 225 0 
L 909 3500 
L 1484 3500 
L 1375 2956 
Q 1603 3259 1920 3421 
Q 2238 3584 2597 3584 
Q 2691 3584 2781 3573 
Q 2872 3563 2963 3538 
L 2853 2969 
z
" transform="scale(0.015625)"/>
      <path id="DejaVuSans-Oblique-6f" d="M 1625 -91 
Q 1009 -91 651 289 
Q 294 669 294 1325 
Q 294 1706 417 2101 
Q 541 2497 738 2766 
Q 1047 3184 1428 3384 
Q 1809 3584 2291 3584 
Q 2888 3584 3255 3212 
Q 3622 2841 3622 2241 
Q 3622 1825 3500 1412 
Q 3378 1000 3181 728 
Q 2875 309 2494 109 
Q 2113 -91 1625 -91 
z
M 891 1344 
Q 891 869 1089 633 
Q 1288 397 1691 397 
Q 2269 397 2648 901 
Q 3028 1406 3028 2181 
Q 3028 2634 2825 2865 
Q 2622 3097 2228 3097 
Q 1903 3097 1650 2945 
Q 1397 2794 1197 2484 
Q 1050 2253 970 1956 
Q 891 1659 891 1344 
z
" transform="scale(0.015625)"/>
      <path id="DejaVuSans-Oblique-75" d="M 428 1388 
L 838 3500 
L 1416 3500 
L 1006 1409 
Q 975 1256 961 1147 
Q 947 1038 947 966 
Q 947 700 1109 554 
Q 1272 409 1569 409 
Q 2031 409 2368 721 
Q 2706 1034 2809 1563 
L 3194 3500 
L 3769 3500 
L 3091 0 
L 2516 0 
L 2631 550 
Q 2388 244 2052 76 
Q 1716 -91 1338 -91 
Q 878 -91 622 161 
Q 366 413 366 863 
Q 366 956 381 1097 
Q 397 1238 428 1388 
z
" transform="scale(0.015625)"/>
      <path id="DejaVuSans-Oblique-64" d="M 2675 525 
Q 2444 222 2128 65 
Q 1813 -91 1428 -91 
Q 903 -91 598 267 
Q 294 625 294 1247 
Q 294 1766 478 2236 
Q 663 2706 1013 3078 
Q 1244 3325 1534 3454 
Q 1825 3584 2144 3584 
Q 2481 3584 2739 3421 
Q 2997 3259 3138 2956 
L 3513 4863 
L 4091 4863 
L 3144 0 
L 2566 0 
L 2675 525 
z
M 891 1350 
Q 891 897 1095 644 
Q 1300 391 1663 391 
Q 1931 391 2161 520 
Q 2391 650 2566 903 
Q 2750 1166 2856 1509 
Q 2963 1853 2963 2188 
Q 2963 2622 2758 2865 
Q 2553 3109 2194 3109 
Q 1922 3109 1687 2981 
Q 1453 2853 1288 2613 
Q 1106 2353 998 2009 
Q 891 1666 891 1350 
z
" transform="scale(0.015625)"/>
      <path id="DejaVuSans-31" d="M 794 531 
L 1825 531 
L 1825 4091 
L 703 3866 
L 703 4441 
L 1819 4666 
L 2450 4666 
L 2450 531 
L 3481 531 
L 3481 0 
L 794 0 
L 794 531 
z
" transform="scale(0.015625)"/>
      <path id="DejaVuSans-222a" d="M 825 1856 
L 825 3706 
L 1363 3706 
L 1363 1934 
Q 1363 1172 1594 842 
Q 1825 513 2344 513 
Q 2859 513 3090 842 
Q 3322 1172 3322 1934 
L 3322 3706 
L 3859 3706 
L 3859 1856 
Q 3859 931 3476 465 
Q 3094 0 2344 0 
Q 1591 0 1208 465 
Q 825 931 825 1856 
z
" transform="scale(0.015625)"/>
      <path id="DejaVuSans-Oblique-70" d="M 3175 2156 
Q 3175 2616 2975 2859 
Q 2775 3103 2400 3103 
Q 2144 3103 1911 2972 
Q 1678 2841 1497 2591 
Q 1319 2344 1212 1994 
Q 1106 1644 1106 1300 
Q 1106 863 1306 627 
Q 1506 391 1875 391 
Q 2147 391 2380 519 
Q 2613 647 2778 891 
Q 2956 1147 3065 1494 
Q 3175 1841 3175 2156 
z
M 1394 2969 
Q 1625 3272 1939 3428 
Q 2253 3584 2638 3584 
Q 3175 3584 3472 3232 
Q 3769 2881 3769 2247 
Q 3769 1728 3584 1258 
Q 3400 788 3053 416 
Q 2822 169 2531 39 
Q 2241 -91 1919 -91 
Q 1547 -91 1294 64 
Q 1041 219 916 525 
L 556 -1331 
L -19 -1331 
L 922 3500 
L 1497 3500 
L 1394 2969 
z
" transform="scale(0.015625)"/>
      <path id="DejaVuSans-Oblique-76" d="M 459 3500 
L 1069 3500 
L 1581 525 
L 3256 3500 
L 3866 3500 
L 1875 0 
L 1100 0 
L 459 3500 
z
" transform="scale(0.015625)"/>
      <path id="DejaVuSans-Oblique-63" d="M 3431 3366 
L 3316 2797 
Q 3109 2947 2876 3022 
Q 2644 3097 2394 3097 
Q 2119 3097 1870 3000 
Q 1622 2903 1453 2725 
Q 1184 2453 1037 2087 
Q 891 1722 891 1331 
Q 891 859 1127 628 
Q 1363 397 1844 397 
Q 2081 397 2348 469 
Q 2616 541 2906 684 
L 2797 116 
Q 2547 13 2283 -39 
Q 2019 -91 1741 -91 
Q 1044 -91 669 257 
Q 294 606 294 1253 
Q 294 1797 489 2255 
Q 684 2713 1069 3078 
Q 1331 3328 1684 3456 
Q 2038 3584 2456 3584 
Q 2700 3584 2940 3529 
Q 3181 3475 3431 3366 
z
" transform="scale(0.015625)"/>
      <path id="DejaVuSans-Oblique-79" d="M 1588 -325 
Q 1188 -997 936 -1164 
Q 684 -1331 294 -1331 
L -159 -1331 
L -63 -850 
L 269 -850 
Q 509 -850 678 -719 
Q 847 -588 1056 -206 
L 1234 128 
L 459 3500 
L 1069 3500 
L 1650 819 
L 3256 3500 
L 3859 3500 
L 1588 -325 
z
" transform="scale(0.015625)"/>
      <path id="DejaVuSans-Oblique-68" d="M 3566 2113 
L 3156 0 
L 2578 0 
L 2988 2091 
Q 3016 2238 3031 2350 
Q 3047 2463 3047 2528 
Q 3047 2791 2881 2937 
Q 2716 3084 2419 3084 
Q 1956 3084 1617 2771 
Q 1278 2459 1178 1941 
L 800 0 
L 225 0 
L 1172 4863 
L 1747 4863 
L 1375 2950 
Q 1594 3244 1934 3414 
Q 2275 3584 2650 3584 
Q 3113 3584 3367 3334 
Q 3622 3084 3622 2631 
Q 3622 2519 3608 2391 
Q 3594 2263 3566 2113 
z
" transform="scale(0.015625)"/>
      <path id="MicrosoftYaHei-43" d="M 3938 200 
Q 3403 -81 2597 -81 
Q 1556 -81 934 580 
Q 313 1241 313 2328 
Q 313 3497 1013 4209 
Q 1713 4922 2791 4922 
Q 3484 4922 3938 4725 
L 3938 4072 
Q 3419 4359 2797 4359 
Q 1988 4359 1478 3820 
Q 969 3281 969 2366 
Q 969 1497 1444 986 
Q 1919 475 2688 475 
Q 3406 475 3938 800 
L 3938 200 
z
" transform="scale(0.015625)"/>
      <path id="MicrosoftYaHei-41" d="M 4428 0 
L 3738 0 
L 3244 1325 
L 1228 1325 
L 763 0 
L 72 0 
L 1916 4841 
L 2584 4841 
L 4428 0 
z
M 3050 1872 
L 2319 3884 
Q 2284 3981 2244 4222 
L 2228 4222 
Q 2194 4003 2150 3884 
L 1425 1872 
L 3050 1872 
z
" transform="scale(0.015625)"/>
      <path id="MicrosoftYaHei-45" d="M 3228 0 
L 625 0 
L 625 4841 
L 3119 4841 
L 3119 4284 
L 1250 4284 
L 1250 2734 
L 2981 2734 
L 2981 2181 
L 1250 2181 
L 1250 553 
L 3228 553 
L 3228 0 
z
" transform="scale(0.015625)"/>
      <path id="MicrosoftYaHei-2d" d="M 2328 1681 
L 488 1681 
L 488 2153 
L 2328 2153 
L 2328 1681 
z
" transform="scale(0.015625)"/>
     </defs>
     <use xlink:href="#DejaVuSans-Oblique-52" transform="translate(0 0.890625)"/>
     <use xlink:href="#DejaVuSans-Oblique-66" transform="translate(69.482422 -15.515625) scale(0.7)"/>
     <use xlink:href="#DejaVuSans-Oblique-69" transform="translate(94.125977 -15.515625) scale(0.7)"/>
     <use xlink:href="#DejaVuSans-Oblique-6e" transform="translate(113.574219 -15.515625) scale(0.7)"/>
     <use xlink:href="#DejaVuSans-Oblique-61" transform="translate(157.939453 -15.515625) scale(0.7)"/>
     <use xlink:href="#DejaVuSans-Oblique-6c" transform="translate(200.834961 -15.515625) scale(0.7)"/>
     <use xlink:href="#DejaVuSans-3d" transform="translate(242.5 0.890625)"/>
     <use xlink:href="#DejaVuSans-Oblique-52" transform="translate(345.771484 0.890625)"/>
     <use xlink:href="#DejaVuSans-Oblique-72" transform="translate(415.253906 -15.515625) scale(0.7)"/>
     <use xlink:href="#DejaVuSans-Oblique-6f" transform="translate(444.033203 -15.515625) scale(0.7)"/>
     <use xlink:href="#DejaVuSans-Oblique-75" transform="translate(486.860352 -15.515625) scale(0.7)"/>
     <use xlink:href="#DejaVuSans-Oblique-6e" transform="translate(531.225586 -15.515625) scale(0.7)"/>
     <use xlink:href="#DejaVuSans-Oblique-64" transform="translate(575.59082 -15.515625) scale(0.7)"/>
     <use xlink:href="#DejaVuSans-31" transform="translate(620.024414 -15.515625) scale(0.7)"/>
     <use xlink:href="#DejaVuSans-222a" transform="translate(686.777344 0.890625)"/>
     <use xlink:href="#DejaVuSans-Oblique-52" transform="translate(779.453125 0.890625)"/>
     <use xlink:href="#DejaVuSans-Oblique-70" transform="translate(848.935547 -15.515625) scale(0.7)"/>
     <use xlink:href="#DejaVuSans-Oblique-72" transform="translate(893.369141 -15.515625) scale(0.7)"/>
     <use xlink:href="#DejaVuSans-Oblique-69" transform="translate(922.148438 -15.515625) scale(0.7)"/>
     <use xlink:href="#DejaVuSans-Oblique-76" transform="translate(941.59668 -15.515625) scale(0.7)"/>
     <use xlink:href="#DejaVuSans-Oblique-61" transform="translate(983.022461 -15.515625) scale(0.7)"/>
     <use xlink:href="#DejaVuSans-Oblique-63" transform="translate(1025.917969 -15.515625) scale(0.7)"/>
     <use xlink:href="#DejaVuSans-Oblique-79" transform="translate(1064.404297 -15.515625) scale(0.7)"/>
     <use xlink:href="#DejaVuSans-222a" transform="translate(1128.046875 0.890625)"/>
     <use xlink:href="#DejaVuSans-Oblique-52" transform="translate(1220.722656 0.890625)"/>
     <use xlink:href="#DejaVuSans-Oblique-61" transform="translate(1290.205078 -15.515625) scale(0.7)"/>
     <use xlink:href="#DejaVuSans-Oblique-6e" transform="translate(1333.100586 -15.515625) scale(0.7)"/>
     <use xlink:href="#DejaVuSans-Oblique-63" transform="translate(1377.46582 -15.515625) scale(0.7)"/>
     <use xlink:href="#DejaVuSans-Oblique-68" transform="translate(1415.952148 -15.515625) scale(0.7)"/>
     <use xlink:href="#DejaVuSans-Oblique-6f" transform="translate(1460.317383 -15.515625) scale(0.7)"/>
     <use xlink:href="#DejaVuSans-Oblique-72" transform="translate(1503.144531 -15.515625) scale(0.7)"/>
     <use xlink:href="#MicrosoftYaHei-20" transform="translate(1534.658203 0.890625)"/>
     <use xlink:href="#MicrosoftYaHei-66" transform="translate(1564.248047 0.890625)"/>
     <use xlink:href="#MicrosoftYaHei-6f" transform="translate(1598.916016 0.890625)"/>
     <use xlink:href="#MicrosoftYaHei-72" transform="translate(1662.490234 0.890625)"/>
     <use xlink:href="#MicrosoftYaHei-20" transform="translate(1700.673828 0.890625)"/>
     <use xlink:href="#MicrosoftYaHei-43" transform="translate(1730.263672 0.890625)"/>
     <use xlink:href="#MicrosoftYaHei-41" transform="translate(1797.158203 0.890625)"/>
     <use xlink:href="#MicrosoftYaHei-50" transform="translate(1879.769531 0.890625)"/>
     <use xlink:href="#MicrosoftYaHei-45" transform="translate(1940.951172 0.890625)"/>
     <use xlink:href="#MicrosoftYaHei-2d" transform="translate(1995.931641 0.890625)"/>
     <use xlink:href="#MicrosoftYaHei-41" transform="translate(2039.193359 0.890625)"/>
     <use xlink:href="#MicrosoftYaHei-6e" transform="translate(2109.554688 0.890625)"/>
     <use xlink:href="#MicrosoftYaHei-63" transform="translate(2171.175781 0.890625)"/>
     <use xlink:href="#MicrosoftYaHei-68" transform="translate(2221.322266 0.890625)"/>
     <use xlink:href="#MicrosoftYaHei-6f" transform="translate(2282.894531 0.890625)"/>
     <use xlink:href="#MicrosoftYaHei-72" transform="translate(2346.46875 0.890625)"/>
    </g>
   </g>
  </g>
 </g>
 <defs>
  <clipPath id="pb53d0f5d00">
   <rect x="7.2" y="7.2" width="585.9" height="288.288"/>
  </clipPath>
 </defs>
</svg>
