<?xml version="1.0" encoding="utf-8" standalone="no"?>
<!DOCTYPE svg PUBLIC "-//W3C//DTD SVG 1.1//EN"
  "http://www.w3.org/Graphics/SVG/1.1/DTD/svg11.dtd">
<svg xmlns:xlink="http://www.w3.org/1999/xlink" width="451.833437pt" height="354.438312pt" viewBox="0 0 451.833437 354.438312" xmlns="http://www.w3.org/2000/svg" version="1.1">
 <metadata>
  <rdf:RDF xmlns:dc="http://purl.org/dc/elements/1.1/" xmlns:cc="http://creativecommons.org/ns#" xmlns:rdf="http://www.w3.org/1999/02/22-rdf-syntax-ns#">
   <cc:Work>
    <dc:type rdf:resource="http://purl.org/dc/dcmitype/StillImage"/>
    <dc:date>2026-06-23T12:08:35.590992</dc:date>
    <dc:format>image/svg+xml</dc:format>
    <dc:creator>
     <cc:Agent>
      <dc:title>Matplotlib v3.10.1, https://matplotlib.org/</dc:title>
     </cc:Agent>
    </dc:creator>
   </cc:Work>
  </rdf:RDF>
 </metadata>
 <defs>
  <style type="text/css">*{stroke-linejoin: round; stroke-linecap: butt}</style>
 </defs>
 <g id="figure_1">
  <g id="patch_1">
   <path d="M 0 354.438312 
L 451.833437 354.438312 
L 451.833437 0 
L 0 0 
z
" style="fill: #ffffff"/>
  </g>
  <g id="axes_1">
   <g id="patch_2">
    <path d="M 42.873438 315.221125 
L 444.633438 315.221125 
L 444.633438 26.933125 
L 42.873438 26.933125 
z
" style="fill: #ffffff"/>
   </g>
   <g id="PathCollection_1">
    <path d="M 136.268716 87.891252 
L 144.92897 87.891252 
L 144.92897 79.230998 
L 136.268716 79.230998 
L 136.268716 87.891252 
z
" clip-path="url(#pa7d2a65be4)" style="fill: none; stroke-dasharray: 3.7,1.6; stroke-dashoffset: 0; stroke: #8c8c8c"/>
   </g>
   <g id="PathCollection_2">
    <path d="M 201.418986 87.891252 
L 210.07924 87.891252 
L 210.07924 79.230998 
L 201.418986 79.230998 
L 201.418986 87.891252 
z
" clip-path="url(#pa7d2a65be4)" style="fill: none; stroke-dasharray: 3.7,1.6; stroke-dashoffset: 0; stroke: #8c8c8c"/>
   </g>
   <g id="matplotlib.axis_1">
    <g id="xtick_1">
     <g id="line2d_1">
      <path d="M 53.731816 315.221125 
L 53.731816 26.933125 
" clip-path="url(#pa7d2a65be4)" style="fill: none; stroke: #b0b0b0; stroke-opacity: 0.22; stroke-width: 0.7; stroke-linecap: square"/>
     </g>
     <g id="line2d_2">
      <defs>
       <path id="m627b26eba3" d="M 0 0 
L 0 3.5 
" style="stroke: #000000; stroke-width: 0.8"/>
      </defs>
      <g>
       <use xlink:href="#m627b26eba3" x="53.731816" y="315.221125" style="stroke: #000000; stroke-width: 0.8"/>
      </g>
     </g>
     <g id="text_1">
      <!-- 0.0 -->
      <g transform="translate(46.663847 330.214875) scale(0.1 -0.1)">
       <defs>
        <path id="MicrosoftYaHei-30" d="M 284 2325 
Q 284 3606 709 4264 
Q 1134 4922 1941 4922 
Q 3478 4922 3478 2441 
Q 3478 1216 3045 567 
Q 2613 -81 1831 -81 
Q 1094 -81 689 534 
Q 284 1150 284 2325 
z
M 909 2353 
Q 909 425 1888 425 
Q 2850 425 2850 2384 
Q 2850 4413 1906 4413 
Q 909 4413 909 2353 
z
" transform="scale(0.015625)"/>
        <path id="MicrosoftYaHei-2e" d="M 372 322 
Q 372 491 487 606 
Q 603 722 775 722 
Q 950 722 1065 605 
Q 1181 488 1181 322 
Q 1181 159 1065 42 
Q 950 -75 772 -75 
Q 600 -75 486 42 
Q 372 159 372 322 
z
" transform="scale(0.015625)"/>
       </defs>
       <use xlink:href="#MicrosoftYaHei-30"/>
       <use xlink:href="#MicrosoftYaHei-2e" transform="translate(58.642578 0)"/>
       <use xlink:href="#MicrosoftYaHei-30" transform="translate(82.714844 0)"/>
      </g>
     </g>
    </g>
    <g id="xtick_2">
     <g id="line2d_3">
      <path d="M 126.121005 315.221125 
L 126.121005 26.933125 
" clip-path="url(#pa7d2a65be4)" style="fill: none; stroke: #b0b0b0; stroke-opacity: 0.22; stroke-width: 0.7; stroke-linecap: square"/>
     </g>
     <g id="line2d_4">
      <g>
       <use xlink:href="#m627b26eba3" x="126.121005" y="315.221125" style="stroke: #000000; stroke-width: 0.8"/>
      </g>
     </g>
     <g id="text_2">
      <!-- 0.2 -->
      <g transform="translate(119.053036 330.214875) scale(0.1 -0.1)">
       <defs>
        <path id="MicrosoftYaHei-32" d="M 2666 3572 
Q 2666 3963 2419 4186 
Q 2172 4409 1747 4409 
Q 1447 4409 1140 4256 
Q 834 4103 569 3819 
L 569 4413 
Q 806 4659 1107 4790 
Q 1409 4922 1816 4922 
Q 2472 4922 2872 4570 
Q 3272 4219 3272 3619 
Q 3272 3084 3026 2693 
Q 2781 2303 2188 1894 
Q 1581 1475 1376 1294 
Q 1172 1113 1090 947 
Q 1009 781 1009 544 
L 3416 544 
L 3416 0 
L 372 0 
L 372 241 
Q 372 659 486 951 
Q 600 1244 862 1520 
Q 1125 1797 1681 2184 
Q 2250 2584 2458 2886 
Q 2666 3188 2666 3572 
z
" transform="scale(0.015625)"/>
       </defs>
       <use xlink:href="#MicrosoftYaHei-30"/>
       <use xlink:href="#MicrosoftYaHei-2e" transform="translate(58.642578 0)"/>
       <use xlink:href="#MicrosoftYaHei-32" transform="translate(82.714844 0)"/>
      </g>
     </g>
    </g>
    <g id="xtick_3">
     <g id="line2d_5">
      <path d="M 198.510194 315.221125 
L 198.510194 26.933125 
" clip-path="url(#pa7d2a65be4)" style="fill: none; stroke: #b0b0b0; stroke-opacity: 0.22; stroke-width: 0.7; stroke-linecap: square"/>
     </g>
     <g id="line2d_6">
      <g>
       <use xlink:href="#m627b26eba3" x="198.510194" y="315.221125" style="stroke: #000000; stroke-width: 0.8"/>
      </g>
     </g>
     <g id="text_3">
      <!-- 0.4 -->
      <g transform="translate(191.442226 330.214875) scale(0.1 -0.1)">
       <defs>
        <path id="MicrosoftYaHei-34" d="M 2906 4841 
L 2906 1644 
L 3631 1644 
L 3631 1138 
L 2906 1138 
L 2906 0 
L 2313 0 
L 2313 1138 
L 53 1138 
L 53 1616 
Q 656 2294 1265 3178 
Q 1875 4063 2272 4841 
L 2906 4841 
z
M 741 1644 
L 2313 1644 
L 2313 3950 
Q 1988 3366 1616 2817 
Q 1244 2269 741 1644 
z
" transform="scale(0.015625)"/>
       </defs>
       <use xlink:href="#MicrosoftYaHei-30"/>
       <use xlink:href="#MicrosoftYaHei-2e" transform="translate(58.642578 0)"/>
       <use xlink:href="#MicrosoftYaHei-34" transform="translate(82.714844 0)"/>
      </g>
     </g>
    </g>
    <g id="xtick_4">
     <g id="line2d_7">
      <path d="M 270.899383 315.221125 
L 270.899383 26.933125 
" clip-path="url(#pa7d2a65be4)" style="fill: none; stroke: #b0b0b0; stroke-opacity: 0.22; stroke-width: 0.7; stroke-linecap: square"/>
     </g>
     <g id="line2d_8">
      <g>
       <use xlink:href="#m627b26eba3" x="270.899383" y="315.221125" style="stroke: #000000; stroke-width: 0.8"/>
      </g>
     </g>
     <g id="text_4">
      <!-- 0.6 -->
      <g transform="translate(263.831415 330.214875) scale(0.1 -0.1)">
       <defs>
        <path id="MicrosoftYaHei-36" d="M 3181 4219 
Q 2803 4413 2391 4413 
Q 1763 4413 1381 3866 
Q 1000 3319 994 2372 
L 1009 2372 
Q 1353 3038 2106 3038 
Q 2734 3038 3109 2628 
Q 3484 2219 3484 1541 
Q 3484 831 3051 375 
Q 2619 -81 1947 -81 
Q 1209 -81 789 495 
Q 369 1072 369 2131 
Q 369 3413 920 4167 
Q 1472 4922 2372 4922 
Q 2888 4922 3181 4781 
L 3181 4219 
z
M 1031 1584 
Q 1031 1106 1286 765 
Q 1541 425 1963 425 
Q 2363 425 2613 719 
Q 2863 1013 2863 1475 
Q 2863 1975 2627 2253 
Q 2391 2531 1956 2531 
Q 1544 2531 1287 2250 
Q 1031 1969 1031 1584 
z
" transform="scale(0.015625)"/>
       </defs>
       <use xlink:href="#MicrosoftYaHei-30"/>
       <use xlink:href="#MicrosoftYaHei-2e" transform="translate(58.642578 0)"/>
       <use xlink:href="#MicrosoftYaHei-36" transform="translate(82.714844 0)"/>
      </g>
     </g>
    </g>
    <g id="xtick_5">
     <g id="line2d_9">
      <path d="M 343.288573 315.221125 
L 343.288573 26.933125 
" clip-path="url(#pa7d2a65be4)" style="fill: none; stroke: #b0b0b0; stroke-opacity: 0.22; stroke-width: 0.7; stroke-linecap: square"/>
     </g>
     <g id="line2d_10">
      <g>
       <use xlink:href="#m627b26eba3" x="343.288573" y="315.221125" style="stroke: #000000; stroke-width: 0.8"/>
      </g>
     </g>
     <g id="text_5">
      <!-- 0.8 -->
      <g transform="translate(336.220604 330.214875) scale(0.1 -0.1)">
       <defs>
        <path id="MicrosoftYaHei-38" d="M 306 1350 
Q 306 1769 556 2122 
Q 806 2475 1200 2625 
Q 884 2803 700 3081 
Q 516 3359 516 3684 
Q 516 4028 692 4312 
Q 869 4597 1183 4759 
Q 1497 4922 1875 4922 
Q 2256 4922 2572 4761 
Q 2888 4600 3063 4315 
Q 3238 4031 3238 3684 
Q 3238 3366 3058 3086 
Q 2878 2806 2559 2625 
Q 2953 2472 3200 2119 
Q 3447 1766 3447 1350 
Q 3447 938 3250 611 
Q 3053 284 2690 103 
Q 2328 -78 1875 -78 
Q 1425 -78 1065 103 
Q 706 284 506 612 
Q 306 941 306 1350 
z
M 906 1378 
Q 906 947 1172 687 
Q 1438 428 1878 428 
Q 2309 428 2582 692 
Q 2856 956 2856 1378 
Q 2856 1778 2579 2051 
Q 2303 2325 1878 2325 
Q 1456 2325 1181 2058 
Q 906 1791 906 1378 
z
M 1081 3634 
Q 1081 3309 1312 3076 
Q 1544 2844 1878 2844 
Q 2206 2844 2445 3078 
Q 2684 3313 2684 3634 
Q 2684 3963 2454 4191 
Q 2225 4419 1878 4419 
Q 1534 4419 1307 4195 
Q 1081 3972 1081 3634 
z
" transform="scale(0.015625)"/>
       </defs>
       <use xlink:href="#MicrosoftYaHei-30"/>
       <use xlink:href="#MicrosoftYaHei-2e" transform="translate(58.642578 0)"/>
       <use xlink:href="#MicrosoftYaHei-38" transform="translate(82.714844 0)"/>
      </g>
     </g>
    </g>
    <g id="xtick_6">
     <g id="line2d_11">
      <path d="M 415.677762 315.221125 
L 415.677762 26.933125 
" clip-path="url(#pa7d2a65be4)" style="fill: none; stroke: #b0b0b0; stroke-opacity: 0.22; stroke-width: 0.7; stroke-linecap: square"/>
     </g>
     <g id="line2d_12">
      <g>
       <use xlink:href="#m627b26eba3" x="415.677762" y="315.221125" style="stroke: #000000; stroke-width: 0.8"/>
      </g>
     </g>
     <g id="text_6">
      <!-- 1.0 -->
      <g transform="translate(408.609793 330.214875) scale(0.1 -0.1)">
       <defs>
        <path id="MicrosoftYaHei-31" d="M 1781 0 
L 1781 4141 
Q 1638 3997 1295 3819 
Q 953 3641 663 3569 
L 663 4169 
Q 1047 4275 1484 4508 
Q 1922 4741 2156 4947 
L 2388 4947 
L 2388 0 
L 1781 0 
z
" transform="scale(0.015625)"/>
       </defs>
       <use xlink:href="#MicrosoftYaHei-31"/>
       <use xlink:href="#MicrosoftYaHei-2e" transform="translate(58.642578 0)"/>
       <use xlink:href="#MicrosoftYaHei-30" transform="translate(82.714844 0)"/>
      </g>
     </g>
    </g>
    <g id="text_7">
     <!-- Public Contains (utility) -->
     <g transform="translate(188.54875 344.694562) scale(0.1 -0.1)">
      <defs>
       <path id="MicrosoftYaHei-50" d="M 1250 1809 
L 1250 0 
L 625 0 
L 625 4841 
L 2000 4841 
Q 2784 4841 3217 4462 
Q 3650 4084 3650 3381 
Q 3650 2669 3144 2226 
Q 2638 1784 1878 1809 
L 1250 1809 
z
M 1250 4291 
L 1250 2359 
L 1828 2359 
Q 2400 2359 2697 2617 
Q 2994 2875 2994 3356 
Q 2994 4291 1888 4291 
L 1250 4291 
z
" transform="scale(0.015625)"/>
       <path id="MicrosoftYaHei-75" d="M 3400 0 
L 2784 0 
L 2784 544 
L 2772 544 
Q 2425 -81 1706 -81 
Q 478 -81 478 1388 
L 478 3456 
L 1084 3456 
L 1084 1478 
Q 1084 425 1891 425 
Q 2291 425 2537 720 
Q 2784 1016 2784 1466 
L 2784 3456 
L 3400 3456 
L 3400 0 
z
" transform="scale(0.015625)"/>
       <path id="MicrosoftYaHei-62" d="M 1159 488 
L 1159 0 
L 547 0 
L 547 5116 
L 1159 5116 
L 1159 2859 
L 1172 2859 
Q 1578 3538 2359 3538 
Q 3009 3538 3392 3080 
Q 3775 2622 3775 1828 
Q 3775 953 3345 436 
Q 2916 -81 2200 -81 
Q 1525 -81 1172 488 
L 1159 488 
z
M 1156 1422 
Q 1156 1003 1428 714 
Q 1700 425 2109 425 
Q 2597 425 2872 800 
Q 3147 1175 3147 1838 
Q 3147 2384 2890 2707 
Q 2634 3031 2191 3031 
Q 1741 3031 1448 2709 
Q 1156 2388 1156 1891 
L 1156 1422 
z
" transform="scale(0.015625)"/>
       <path id="MicrosoftYaHei-6c" d="M 544 0 
L 544 5116 
L 1156 5116 
L 1156 0 
L 544 0 
z
" transform="scale(0.015625)"/>
       <path id="MicrosoftYaHei-69" d="M 472 4675 
Q 472 4838 583 4948 
Q 694 5059 856 5059 
Q 1022 5059 1136 4950 
Q 1250 4841 1250 4675 
Q 1250 4513 1136 4405 
Q 1022 4297 856 4297 
Q 691 4297 581 4405 
Q 472 4513 472 4675 
z
M 544 0 
L 544 3456 
L 1156 3456 
L 1156 0 
L 544 0 
z
" transform="scale(0.015625)"/>
       <path id="MicrosoftYaHei-63" d="M 2934 156 
Q 2538 -81 1978 -81 
Q 1228 -81 772 400 
Q 316 881 316 1647 
Q 316 2497 808 3017 
Q 1300 3538 2125 3538 
Q 2600 3538 2938 3369 
L 2938 2763 
Q 2572 3031 2125 3031 
Q 1600 3031 1270 2667 
Q 941 2303 941 1697 
Q 941 1100 1252 762 
Q 1563 425 2091 425 
Q 2538 425 2934 719 
L 2934 156 
z
" transform="scale(0.015625)"/>
       <path id="MicrosoftYaHei-20" transform="scale(0.015625)"/>
       <path id="MicrosoftYaHei-43" d="M 3938 200 
Q 3403 -81 2597 -81 
Q 1556 -81 934 580 
Q 313 1241 313 2328 
Q 313 3497 1013 4209 
Q 1713 4922 2791 4922 
Q 3484 4922 3938 4725 
L 3938 4072 
Q 3419 4359 2797 4359 
Q 1988 4359 1478 3820 
Q 969 3281 969 2366 
Q 969 1497 1444 986 
Q 1919 475 2688 475 
Q 3406 475 3938 800 
L 3938 200 
z
" transform="scale(0.015625)"/>
       <path id="MicrosoftYaHei-6f" d="M 316 1691 
Q 316 2547 794 3042 
Q 1272 3538 2091 3538 
Q 2869 3538 3311 3061 
Q 3753 2584 3753 1744 
Q 3753 925 3281 422 
Q 2809 -81 2016 -81 
Q 1241 -81 778 406 
Q 316 894 316 1691 
z
M 941 1709 
Q 941 1113 1242 769 
Q 1544 425 2053 425 
Q 2578 425 2853 761 
Q 3128 1097 3128 1725 
Q 3128 2356 2853 2693 
Q 2578 3031 2053 3031 
Q 1538 3031 1239 2678 
Q 941 2325 941 1709 
z
" transform="scale(0.015625)"/>
       <path id="MicrosoftYaHei-6e" d="M 3469 0 
L 2859 0 
L 2859 1966 
Q 2859 3031 2081 3031 
Q 1678 3031 1418 2731 
Q 1159 2431 1159 1972 
L 1159 0 
L 547 0 
L 547 3456 
L 1159 3456 
L 1159 2884 
L 1172 2884 
Q 1563 3538 2306 3538 
Q 2875 3538 3172 3173 
Q 3469 2809 3469 2113 
L 3469 0 
z
" transform="scale(0.015625)"/>
       <path id="MicrosoftYaHei-74" d="M 2206 34 
Q 2006 -75 1666 -75 
Q 738 -75 738 953 
L 738 2950 
L 144 2950 
L 144 3456 
L 738 3456 
L 738 4288 
L 1347 4481 
L 1347 3456 
L 2206 3456 
L 2206 2950 
L 1347 2950 
L 1347 1063 
Q 1347 722 1462 575 
Q 1578 428 1847 428 
Q 2053 428 2206 544 
L 2206 34 
z
" transform="scale(0.015625)"/>
       <path id="MicrosoftYaHei-61" d="M 628 3216 
Q 1144 3538 1819 3538 
Q 3069 3538 3069 2225 
L 3069 0 
L 2463 0 
L 2463 534 
L 2447 534 
Q 2088 -81 1388 -81 
Q 884 -81 587 191 
Q 291 463 291 925 
Q 291 1894 1438 2053 
L 2463 2197 
Q 2463 3044 1763 3044 
Q 1141 3044 628 2625 
L 628 3216 
z
M 1653 1625 
Q 1228 1569 1067 1412 
Q 906 1256 906 975 
Q 906 728 1081 572 
Q 1256 416 1544 416 
Q 1944 416 2203 697 
Q 2463 978 2463 1403 
L 2463 1734 
L 1653 1625 
z
" transform="scale(0.015625)"/>
       <path id="MicrosoftYaHei-73" d="M 353 747 
Q 816 413 1350 413 
Q 2066 413 2066 881 
Q 2066 1081 1909 1211 
Q 1753 1341 1275 1519 
Q 700 1750 528 1976 
Q 356 2203 356 2525 
Q 356 2984 745 3261 
Q 1134 3538 1703 3538 
Q 2144 3538 2522 3384 
L 2522 2794 
Q 2134 3044 1644 3044 
Q 1350 3044 1165 2916 
Q 981 2788 981 2578 
Q 981 2372 1114 2256 
Q 1247 2141 1703 1959 
Q 2281 1744 2484 1512 
Q 2688 1281 2688 941 
Q 2688 466 2298 192 
Q 1909 -81 1291 -81 
Q 753 -81 353 122 
L 353 747 
z
" transform="scale(0.015625)"/>
       <path id="MicrosoftYaHei-28" d="M 1531 -1100 
Q 478 100 478 1847 
Q 478 3594 1531 4841 
L 2072 4841 
Q 1016 3544 1016 1853 
Q 1016 166 2066 -1100 
L 1531 -1100 
z
" transform="scale(0.015625)"/>
       <path id="MicrosoftYaHei-79" d="M 3359 3456 
L 1791 -522 
Q 1353 -1628 556 -1628 
Q 328 -1628 166 -1578 
L 166 -1041 
Q 344 -1109 509 -1109 
Q 925 -1109 1131 -622 
L 1397 6 
L 41 3456 
L 719 3456 
L 1622 859 
L 1697 575 
L 1713 575 
Q 1731 672 1788 853 
L 2731 3456 
L 3359 3456 
z
" transform="scale(0.015625)"/>
       <path id="MicrosoftYaHei-29" d="M 78 -1100 
Q 1131 163 1131 1853 
Q 1131 3547 72 4841 
L 616 4841 
Q 1672 3603 1672 1847 
Q 1672 91 616 -1100 
L 78 -1100 
z
" transform="scale(0.015625)"/>
      </defs>
      <use xlink:href="#MicrosoftYaHei-50"/>
      <use xlink:href="#MicrosoftYaHei-75" transform="translate(61.181641 0)"/>
      <use xlink:href="#MicrosoftYaHei-62" transform="translate(122.802734 0)"/>
      <use xlink:href="#MicrosoftYaHei-6c" transform="translate(186.669922 0)"/>
      <use xlink:href="#MicrosoftYaHei-69" transform="translate(213.28125 0)"/>
      <use xlink:href="#MicrosoftYaHei-63" transform="translate(239.892578 0)"/>
      <use xlink:href="#MicrosoftYaHei-20" transform="translate(290.039062 0)"/>
      <use xlink:href="#MicrosoftYaHei-43" transform="translate(319.628906 0)"/>
      <use xlink:href="#MicrosoftYaHei-6f" transform="translate(386.523438 0)"/>
      <use xlink:href="#MicrosoftYaHei-6e" transform="translate(450.097656 0)"/>
      <use xlink:href="#MicrosoftYaHei-74" transform="translate(511.71875 0)"/>
      <use xlink:href="#MicrosoftYaHei-61" transform="translate(548.974609 0)"/>
      <use xlink:href="#MicrosoftYaHei-69" transform="translate(604.248047 0)"/>
      <use xlink:href="#MicrosoftYaHei-6e" transform="translate(630.859375 0)"/>
      <use xlink:href="#MicrosoftYaHei-73" transform="translate(692.480469 0)"/>
      <use xlink:href="#MicrosoftYaHei-20" transform="translate(738.769531 0)"/>
      <use xlink:href="#MicrosoftYaHei-28" transform="translate(768.359375 0)"/>
      <use xlink:href="#MicrosoftYaHei-75" transform="translate(801.757812 0)"/>
      <use xlink:href="#MicrosoftYaHei-74" transform="translate(863.378906 0)"/>
      <use xlink:href="#MicrosoftYaHei-69" transform="translate(900.634766 0)"/>
      <use xlink:href="#MicrosoftYaHei-6c" transform="translate(927.246094 0)"/>
      <use xlink:href="#MicrosoftYaHei-69" transform="translate(953.857422 0)"/>
      <use xlink:href="#MicrosoftYaHei-74" transform="translate(980.46875 0)"/>
      <use xlink:href="#MicrosoftYaHei-79" transform="translate(1017.724609 0)"/>
      <use xlink:href="#MicrosoftYaHei-29" transform="translate(1070.654297 0)"/>
     </g>
    </g>
   </g>
   <g id="matplotlib.axis_2">
    <g id="ytick_1">
     <g id="line2d_13">
      <path d="M 42.873438 304.925125 
L 444.633438 304.925125 
" clip-path="url(#pa7d2a65be4)" style="fill: none; stroke: #b0b0b0; stroke-opacity: 0.22; stroke-width: 0.7; stroke-linecap: square"/>
     </g>
     <g id="line2d_14">
      <defs>
       <path id="m4916d1468c" d="M 0 0 
L -3.5 0 
" style="stroke: #000000; stroke-width: 0.8"/>
      </defs>
      <g>
       <use xlink:href="#m4916d1468c" x="42.873438" y="304.925125" style="stroke: #000000; stroke-width: 0.8"/>
      </g>
     </g>
     <g id="text_8">
      <!-- 0.0 -->
      <g transform="translate(21.7375 308.922) scale(0.1 -0.1)">
       <use xlink:href="#MicrosoftYaHei-30"/>
       <use xlink:href="#MicrosoftYaHei-2e" transform="translate(58.642578 0)"/>
       <use xlink:href="#MicrosoftYaHei-30" transform="translate(82.714844 0)"/>
      </g>
     </g>
    </g>
    <g id="ytick_2">
     <g id="line2d_15">
      <path d="M 42.873438 253.445125 
L 444.633438 253.445125 
" clip-path="url(#pa7d2a65be4)" style="fill: none; stroke: #b0b0b0; stroke-opacity: 0.22; stroke-width: 0.7; stroke-linecap: square"/>
     </g>
     <g id="line2d_16">
      <g>
       <use xlink:href="#m4916d1468c" x="42.873438" y="253.445125" style="stroke: #000000; stroke-width: 0.8"/>
      </g>
     </g>
     <g id="text_9">
      <!-- 0.2 -->
      <g transform="translate(21.7375 257.442) scale(0.1 -0.1)">
       <use xlink:href="#MicrosoftYaHei-30"/>
       <use xlink:href="#MicrosoftYaHei-2e" transform="translate(58.642578 0)"/>
       <use xlink:href="#MicrosoftYaHei-32" transform="translate(82.714844 0)"/>
      </g>
     </g>
    </g>
    <g id="ytick_3">
     <g id="line2d_17">
      <path d="M 42.873438 201.965125 
L 444.633438 201.965125 
" clip-path="url(#pa7d2a65be4)" style="fill: none; stroke: #b0b0b0; stroke-opacity: 0.22; stroke-width: 0.7; stroke-linecap: square"/>
     </g>
     <g id="line2d_18">
      <g>
       <use xlink:href="#m4916d1468c" x="42.873438" y="201.965125" style="stroke: #000000; stroke-width: 0.8"/>
      </g>
     </g>
     <g id="text_10">
      <!-- 0.4 -->
      <g transform="translate(21.7375 205.962) scale(0.1 -0.1)">
       <use xlink:href="#MicrosoftYaHei-30"/>
       <use xlink:href="#MicrosoftYaHei-2e" transform="translate(58.642578 0)"/>
       <use xlink:href="#MicrosoftYaHei-34" transform="translate(82.714844 0)"/>
      </g>
     </g>
    </g>
    <g id="ytick_4">
     <g id="line2d_19">
      <path d="M 42.873438 150.485125 
L 444.633438 150.485125 
" clip-path="url(#pa7d2a65be4)" style="fill: none; stroke: #b0b0b0; stroke-opacity: 0.22; stroke-width: 0.7; stroke-linecap: square"/>
     </g>
     <g id="line2d_20">
      <g>
       <use xlink:href="#m4916d1468c" x="42.873438" y="150.485125" style="stroke: #000000; stroke-width: 0.8"/>
      </g>
     </g>
     <g id="text_11">
      <!-- 0.6 -->
      <g transform="translate(21.7375 154.482) scale(0.1 -0.1)">
       <use xlink:href="#MicrosoftYaHei-30"/>
       <use xlink:href="#MicrosoftYaHei-2e" transform="translate(58.642578 0)"/>
       <use xlink:href="#MicrosoftYaHei-36" transform="translate(82.714844 0)"/>
      </g>
     </g>
    </g>
    <g id="ytick_5">
     <g id="line2d_21">
      <path d="M 42.873438 99.005125 
L 444.633438 99.005125 
" clip-path="url(#pa7d2a65be4)" style="fill: none; stroke: #b0b0b0; stroke-opacity: 0.22; stroke-width: 0.7; stroke-linecap: square"/>
     </g>
     <g id="line2d_22">
      <g>
       <use xlink:href="#m4916d1468c" x="42.873438" y="99.005125" style="stroke: #000000; stroke-width: 0.8"/>
      </g>
     </g>
     <g id="text_12">
      <!-- 0.8 -->
      <g transform="translate(21.7375 103.002) scale(0.1 -0.1)">
       <use xlink:href="#MicrosoftYaHei-30"/>
       <use xlink:href="#MicrosoftYaHei-2e" transform="translate(58.642578 0)"/>
       <use xlink:href="#MicrosoftYaHei-38" transform="translate(82.714844 0)"/>
      </g>
     </g>
    </g>
    <g id="ytick_6">
     <g id="line2d_23">
      <path d="M 42.873438 47.525125 
L 444.633438 47.525125 
" clip-path="url(#pa7d2a65be4)" style="fill: none; stroke: #b0b0b0; stroke-opacity: 0.22; stroke-width: 0.7; stroke-linecap: square"/>
     </g>
     <g id="line2d_24">
      <g>
       <use xlink:href="#m4916d1468c" x="42.873438" y="47.525125" style="stroke: #000000; stroke-width: 0.8"/>
      </g>
     </g>
     <g id="text_13">
      <!-- 1.0 -->
      <g transform="translate(21.7375 51.522) scale(0.1 -0.1)">
       <use xlink:href="#MicrosoftYaHei-31"/>
       <use xlink:href="#MicrosoftYaHei-2e" transform="translate(58.642578 0)"/>
       <use xlink:href="#MicrosoftYaHei-30" transform="translate(82.714844 0)"/>
      </g>
     </g>
    </g>
    <g id="text_14">
     <!-- 1 - Private Value Contains (privacy) -->
     <g transform="translate(15.19375 253.994312) rotate(-90) scale(0.1 -0.1)">
      <defs>
       <path id="MicrosoftYaHei-2d" d="M 2328 1681 
L 488 1681 
L 488 2153 
L 2328 2153 
L 2328 1681 
z
" transform="scale(0.015625)"/>
       <path id="MicrosoftYaHei-72" d="M 2400 2850 
Q 2247 2959 1978 2959 
Q 1622 2959 1390 2626 
Q 1159 2294 1159 1750 
L 1159 0 
L 547 0 
L 547 3456 
L 1159 3456 
L 1159 2753 
L 1172 2753 
Q 1434 3516 2078 3516 
Q 2288 3516 2400 3469 
L 2400 2850 
z
" transform="scale(0.015625)"/>
       <path id="MicrosoftYaHei-76" d="M 3331 3456 
L 1963 0 
L 1344 0 
L 44 3456 
L 713 3456 
L 1556 988 
Q 1659 691 1678 491 
L 1694 491 
Q 1725 753 1803 975 
L 2688 3456 
L 3331 3456 
z
" transform="scale(0.015625)"/>
       <path id="MicrosoftYaHei-65" d="M 3363 1572 
L 944 1572 
Q 959 1019 1246 717 
Q 1534 416 2050 416 
Q 2631 416 3116 788 
L 3116 241 
Q 2659 -81 1906 -81 
Q 1156 -81 736 394 
Q 316 869 316 1713 
Q 316 2506 777 3022 
Q 1238 3538 1922 3538 
Q 2600 3538 2981 3102 
Q 3363 2666 3363 1881 
L 3363 1572 
z
M 2750 2063 
Q 2747 2531 2528 2787 
Q 2309 3044 1913 3044 
Q 1547 3044 1280 2772 
Q 1013 2500 944 2063 
L 2750 2063 
z
" transform="scale(0.015625)"/>
       <path id="MicrosoftYaHei-56" d="M 4272 4841 
L 2494 0 
L 1800 0 
L 56 4841 
L 750 4841 
L 2053 1056 
Q 2119 869 2150 622 
L 2166 622 
Q 2191 838 2275 1063 
L 3603 4841 
L 4272 4841 
z
" transform="scale(0.015625)"/>
       <path id="MicrosoftYaHei-70" d="M 1159 488 
L 1159 -1591 
L 547 -1591 
L 547 3456 
L 1159 3456 
L 1159 2859 
L 1172 2859 
Q 1578 3538 2359 3538 
Q 3022 3538 3398 3073 
Q 3775 2609 3775 1828 
Q 3775 966 3348 442 
Q 2922 -81 2200 -81 
Q 1534 -81 1172 488 
L 1159 488 
z
M 1156 1425 
Q 1156 1003 1428 714 
Q 1700 425 2109 425 
Q 2597 425 2872 800 
Q 3147 1175 3147 1838 
Q 3147 2397 2890 2714 
Q 2634 3031 2191 3031 
Q 1738 3031 1447 2709 
Q 1156 2388 1156 1884 
L 1156 1425 
z
" transform="scale(0.015625)"/>
      </defs>
      <use xlink:href="#MicrosoftYaHei-31"/>
      <use xlink:href="#MicrosoftYaHei-20" transform="translate(58.642578 0)"/>
      <use xlink:href="#MicrosoftYaHei-2d" transform="translate(88.232422 0)"/>
      <use xlink:href="#MicrosoftYaHei-20" transform="translate(131.494141 0)"/>
      <use xlink:href="#MicrosoftYaHei-50" transform="translate(161.083984 0)"/>
      <use xlink:href="#MicrosoftYaHei-72" transform="translate(222.265625 0)"/>
      <use xlink:href="#MicrosoftYaHei-69" transform="translate(260.449219 0)"/>
      <use xlink:href="#MicrosoftYaHei-76" transform="translate(287.060547 0)"/>
      <use xlink:href="#MicrosoftYaHei-61" transform="translate(337.550781 0)"/>
      <use xlink:href="#MicrosoftYaHei-74" transform="translate(392.824219 0)"/>
      <use xlink:href="#MicrosoftYaHei-65" transform="translate(429.205078 0)"/>
      <use xlink:href="#MicrosoftYaHei-20" transform="translate(485.943359 0)"/>
      <use xlink:href="#MicrosoftYaHei-56" transform="translate(515.533203 0)"/>
      <use xlink:href="#MicrosoftYaHei-61" transform="translate(575.410156 0)"/>
      <use xlink:href="#MicrosoftYaHei-6c" transform="translate(630.683594 0)"/>
      <use xlink:href="#MicrosoftYaHei-75" transform="translate(657.294922 0)"/>
      <use xlink:href="#MicrosoftYaHei-65" transform="translate(718.916016 0)"/>
      <use xlink:href="#MicrosoftYaHei-20" transform="translate(775.654297 0)"/>
      <use xlink:href="#MicrosoftYaHei-43" transform="translate(805.244141 0)"/>
      <use xlink:href="#MicrosoftYaHei-6f" transform="translate(872.138672 0)"/>
      <use xlink:href="#MicrosoftYaHei-6e" transform="translate(935.712891 0)"/>
      <use xlink:href="#MicrosoftYaHei-74" transform="translate(997.333984 0)"/>
      <use xlink:href="#MicrosoftYaHei-61" transform="translate(1034.589844 0)"/>
      <use xlink:href="#MicrosoftYaHei-69" transform="translate(1089.863281 0)"/>
      <use xlink:href="#MicrosoftYaHei-6e" transform="translate(1116.474609 0)"/>
      <use xlink:href="#MicrosoftYaHei-73" transform="translate(1178.095703 0)"/>
      <use xlink:href="#MicrosoftYaHei-20" transform="translate(1224.384766 0)"/>
      <use xlink:href="#MicrosoftYaHei-28" transform="translate(1253.974609 0)"/>
      <use xlink:href="#MicrosoftYaHei-70" transform="translate(1287.373047 0)"/>
      <use xlink:href="#MicrosoftYaHei-72" transform="translate(1351.240234 0)"/>
      <use xlink:href="#MicrosoftYaHei-69" transform="translate(1389.423828 0)"/>
      <use xlink:href="#MicrosoftYaHei-76" transform="translate(1416.035156 0)"/>
      <use xlink:href="#MicrosoftYaHei-61" transform="translate(1466.525391 0)"/>
      <use xlink:href="#MicrosoftYaHei-63" transform="translate(1521.798828 0)"/>
      <use xlink:href="#MicrosoftYaHei-79" transform="translate(1571.945312 0)"/>
      <use xlink:href="#MicrosoftYaHei-29" transform="translate(1624.875 0)"/>
     </g>
    </g>
   </g>
   <g id="patch_3">
    <path d="M 42.873438 315.221125 
L 42.873438 26.933125 
" style="fill: none; stroke: #000000; stroke-width: 0.8; stroke-linejoin: miter; stroke-linecap: square"/>
   </g>
   <g id="patch_4">
    <path d="M 444.633438 315.221125 
L 444.633438 26.933125 
" style="fill: none; stroke: #000000; stroke-width: 0.8; stroke-linejoin: miter; stroke-linecap: square"/>
   </g>
   <g id="patch_5">
    <path d="M 42.873438 315.221125 
L 444.633437 315.221125 
" style="fill: none; stroke: #000000; stroke-width: 0.8; stroke-linejoin: miter; stroke-linecap: square"/>
   </g>
   <g id="patch_6">
    <path d="M 42.873438 26.933125 
L 444.633437 26.933125 
" style="fill: none; stroke: #000000; stroke-width: 0.8; stroke-linejoin: miter; stroke-linecap: square"/>
   </g>
   <g id="PathCollection_3">
    <defs>
     <path id="m60aa0643e5" d="M 0 4.472136 
C 1.186024 4.472136 2.323632 4.000923 3.162278 3.162278 
C 4.000923 2.323632 4.472136 1.186024 4.472136 0 
C 4.472136 -1.186024 4.000923 -2.323632 3.162278 -3.162278 
C 2.323632 -4.000923 1.186024 -4.472136 0 -4.472136 
C -1.186024 -4.472136 -2.323632 -4.000923 -3.162278 -3.162278 
C -4.000923 -2.323632 -4.472136 -1.186024 -4.472136 0 
C -4.472136 1.186024 -4.000923 2.323632 -3.162278 3.162278 
C -2.323632 4.000923 -1.186024 4.472136 0 4.472136 
z
" style="stroke: #ffffff; stroke-width: 0.8"/>
    </defs>
    <g clip-path="url(#pa7d2a65be4)">
     <use xlink:href="#m60aa0643e5" x="407.208227" y="289.146505" style="fill: #7a7a7a; stroke: #ffffff; stroke-width: 0.8"/>
    </g>
   </g>
   <g id="text_15">
    <!-- Merged -->
    <g transform="translate(367.208227 279.146505) scale(0.085 -0.085)">
     <defs>
      <path id="MicrosoftYaHei-4d" d="M 5003 0 
L 5003 3206 
Q 5003 3603 5050 4159 
L 5034 4159 
Q 4953 3809 4891 3672 
L 3294 0 
L 2947 0 
L 1353 3644 
Q 1297 3769 1209 4159 
L 1191 4159 
Q 1222 3822 1222 3178 
L 1222 0 
L 625 0 
L 625 4841 
L 1472 4841 
L 2900 1522 
Q 3063 1141 3116 928 
L 3138 928 
Q 3300 1375 3366 1534 
L 4819 4841 
L 5625 4841 
L 5625 0 
L 5003 0 
z
" transform="scale(0.015625)"/>
      <path id="MicrosoftYaHei-67" d="M 3547 291 
Q 3547 -1628 1684 -1628 
Q 1041 -1628 566 -1388 
L 566 -797 
Q 1144 -1119 1675 -1119 
Q 2934 -1119 2934 206 
L 2934 572 
L 2922 572 
Q 2528 -81 1747 -81 
Q 1097 -81 706 384 
Q 316 850 316 1619 
Q 316 2503 747 3020 
Q 1178 3538 1897 3538 
Q 2588 3538 2922 2988 
L 2934 2988 
L 2934 3456 
L 3547 3456 
L 3547 291 
z
M 2934 2056 
Q 2938 2456 2666 2743 
Q 2394 3031 1997 3031 
Q 1497 3031 1219 2664 
Q 941 2297 941 1656 
Q 941 1106 1209 765 
Q 1478 425 1922 425 
Q 2369 425 2653 750 
Q 2938 1075 2934 1575 
L 2934 2056 
z
" transform="scale(0.015625)"/>
      <path id="MicrosoftYaHei-64" d="M 3547 0 
L 2934 0 
L 2934 575 
L 2922 575 
Q 2544 -81 1747 -81 
Q 1091 -81 703 386 
Q 316 853 316 1647 
Q 316 2503 753 3020 
Q 1191 3538 1897 3538 
Q 2603 3538 2922 2988 
L 2934 2988 
L 2934 5116 
L 3547 5116 
L 3547 0 
z
M 2938 2056 
Q 2938 2472 2664 2751 
Q 2391 3031 1991 3031 
Q 1503 3031 1222 2667 
Q 941 2303 941 1675 
Q 941 1097 1211 761 
Q 1481 425 1931 425 
Q 2375 425 2656 754 
Q 2938 1084 2938 1575 
L 2938 2056 
z
" transform="scale(0.015625)"/>
     </defs>
     <use xlink:href="#MicrosoftYaHei-4d"/>
     <use xlink:href="#MicrosoftYaHei-65" transform="translate(97.705078 0)"/>
     <use xlink:href="#MicrosoftYaHei-72" transform="translate(154.443359 0)"/>
     <use xlink:href="#MicrosoftYaHei-67" transform="translate(191.251953 0)"/>
     <use xlink:href="#MicrosoftYaHei-65" transform="translate(255.216797 0)"/>
     <use xlink:href="#MicrosoftYaHei-64" transform="translate(311.955078 0)"/>
    </g>
   </g>
   <g id="PathCollection_4">
    <defs>
     <path id="mfc64e21c62" d="M 0 4.472136 
C 1.186024 4.472136 2.323632 4.000923 3.162278 3.162278 
C 4.000923 2.323632 4.472136 1.186024 4.472136 0 
C 4.472136 -1.186024 4.000923 -2.323632 3.162278 -3.162278 
C 2.323632 -4.000923 1.186024 -4.472136 0 -4.472136 
C -1.186024 -4.472136 -2.323632 -4.000923 -3.162278 -3.162278 
C -4.000923 -2.323632 -4.472136 -1.186024 -4.472136 0 
C -4.472136 1.186024 -4.000923 2.323632 -3.162278 3.162278 
C -2.323632 4.000923 -1.186024 4.472136 0 4.472136 
z
" style="stroke: #ffffff; stroke-width: 0.8"/>
    </defs>
    <g clip-path="url(#pa7d2a65be4)">
     <use xlink:href="#mfc64e21c62" x="256.095794" y="196.482505" style="fill: #4c78a8; stroke: #ffffff; stroke-width: 0.8"/>
    </g>
   </g>
   <g id="text_16">
    <!-- ROME -->
    <g transform="translate(266.095794 188.482505) scale(0.085 -0.085)">
     <defs>
      <path id="MicrosoftYaHei-52" d="M 4159 0 
L 3422 0 
L 2619 1344 
Q 2378 1747 2178 1892 
Q 1978 2038 1700 2038 
L 1250 2038 
L 1250 0 
L 625 0 
L 625 4841 
L 2100 4841 
Q 2806 4841 3206 4500 
Q 3606 4159 3606 3547 
Q 3606 2541 2531 2241 
L 2531 2225 
Q 2731 2141 2876 1984 
Q 3022 1828 3253 1450 
L 4159 0 
z
M 1250 4294 
L 1250 2584 
L 1988 2584 
Q 2416 2584 2683 2834 
Q 2950 3084 2950 3491 
Q 2950 3869 2706 4081 
Q 2463 4294 1997 4294 
L 1250 4294 
z
" transform="scale(0.015625)"/>
      <path id="MicrosoftYaHei-4f" d="M 313 2363 
Q 313 3534 947 4228 
Q 1581 4922 2666 4922 
Q 3675 4922 4290 4244 
Q 4906 3566 4906 2478 
Q 4906 1300 4275 609 
Q 3644 -81 2588 -81 
Q 1556 -81 934 597 
Q 313 1275 313 2363 
z
M 969 2413 
Q 969 1534 1417 1004 
Q 1866 475 2588 475 
Q 3363 475 3805 983 
Q 4247 1491 4247 2403 
Q 4247 3341 3814 3850 
Q 3381 4359 2628 4359 
Q 1888 4359 1428 3821 
Q 969 3284 969 2413 
z
" transform="scale(0.015625)"/>
      <path id="MicrosoftYaHei-45" d="M 3228 0 
L 625 0 
L 625 4841 
L 3119 4841 
L 3119 4284 
L 1250 4284 
L 1250 2734 
L 2981 2734 
L 2981 2181 
L 1250 2181 
L 1250 553 
L 3228 553 
L 3228 0 
z
" transform="scale(0.015625)"/>
     </defs>
     <use xlink:href="#MicrosoftYaHei-52"/>
     <use xlink:href="#MicrosoftYaHei-4f" transform="translate(64.158203 0)"/>
     <use xlink:href="#MicrosoftYaHei-4d" transform="translate(145.652344 0)"/>
     <use xlink:href="#MicrosoftYaHei-45" transform="translate(243.357422 0)"/>
    </g>
   </g>
   <g id="PathCollection_5">
    <defs>
     <path id="m6e82b5036b" d="M 0 4.472136 
C 1.186024 4.472136 2.323632 4.000923 3.162278 3.162278 
C 4.000923 2.323632 4.472136 1.186024 4.472136 0 
C 4.472136 -1.186024 4.000923 -2.323632 3.162278 -3.162278 
C 2.323632 -4.000923 1.186024 -4.472136 0 -4.472136 
C -1.186024 -4.472136 -2.323632 -4.000923 -3.162278 -3.162278 
C -4.000923 -2.323632 -4.472136 -1.186024 -4.472136 0 
C -4.472136 1.186024 -4.000923 2.323632 -3.162278 3.162278 
C -2.323632 4.000923 -1.186024 4.472136 0 4.472136 
z
" style="stroke: #ffffff; stroke-width: 0.8"/>
    </defs>
    <g clip-path="url(#pa7d2a65be4)">
     <use xlink:href="#m6e82b5036b" x="360.372421" y="257.048725" style="fill: #72b7b2; stroke: #ffffff; stroke-width: 0.8"/>
    </g>
   </g>
   <g id="text_17">
    <!-- MEMIT -->
    <g transform="translate(370.372421 265.048725) scale(0.085 -0.085)">
     <defs>
      <path id="MicrosoftYaHei-49" d="M 1250 4841 
L 1250 0 
L 625 0 
L 625 4841 
L 1250 4841 
z
" transform="scale(0.015625)"/>
      <path id="MicrosoftYaHei-54" d="M 3550 4284 
L 2153 4284 
L 2153 0 
L 1525 0 
L 1525 4284 
L 134 4284 
L 134 4841 
L 3550 4841 
L 3550 4284 
z
" transform="scale(0.015625)"/>
     </defs>
     <use xlink:href="#MicrosoftYaHei-4d"/>
     <use xlink:href="#MicrosoftYaHei-45" transform="translate(97.705078 0)"/>
     <use xlink:href="#MicrosoftYaHei-4d" transform="translate(152.685547 0)"/>
     <use xlink:href="#MicrosoftYaHei-49" transform="translate(250.390625 0)"/>
     <use xlink:href="#MicrosoftYaHei-54" transform="translate(279.785156 0)"/>
    </g>
   </g>
   <g id="PathCollection_6">
    <defs>
     <path id="m2fe1332780" d="M 0 4.472136 
C 1.186024 4.472136 2.323632 4.000923 3.162278 3.162278 
C 4.000923 2.323632 4.472136 1.186024 4.472136 0 
C 4.472136 -1.186024 4.000923 -2.323632 3.162278 -3.162278 
C 2.323632 -4.000923 1.186024 -4.472136 0 -4.472136 
C -1.186024 -4.472136 -2.323632 -4.000923 -3.162278 -3.162278 
C -4.000923 -2.323632 -4.472136 -1.186024 -4.472136 0 
C -4.472136 1.186024 -4.000923 2.323632 -3.162278 3.162278 
C -2.323632 4.000923 -1.186024 4.472136 0 4.472136 
z
" style="stroke: #ffffff; stroke-width: 0.8"/>
    </defs>
    <g clip-path="url(#pa7d2a65be4)">
     <use xlink:href="#m2fe1332780" x="89.347297" y="53.779945" style="fill: #e45756; stroke: #ffffff; stroke-width: 0.8"/>
    </g>
   </g>
   <g id="text_18">
    <!-- PACE -->
    <g transform="translate(99.347297 37.779945) scale(0.085 -0.085)">
     <defs>
      <path id="MicrosoftYaHei-41" d="M 4428 0 
L 3738 0 
L 3244 1325 
L 1228 1325 
L 763 0 
L 72 0 
L 1916 4841 
L 2584 4841 
L 4428 0 
z
M 3050 1872 
L 2319 3884 
Q 2284 3981 2244 4222 
L 2228 4222 
Q 2194 4003 2150 3884 
L 1425 1872 
L 3050 1872 
z
" transform="scale(0.015625)"/>
     </defs>
     <use xlink:href="#MicrosoftYaHei-50"/>
     <use xlink:href="#MicrosoftYaHei-41" transform="translate(52.806641 0)"/>
     <use xlink:href="#MicrosoftYaHei-43" transform="translate(121.792969 0)"/>
     <use xlink:href="#MicrosoftYaHei-45" transform="translate(188.6875 0)"/>
    </g>
   </g>
   <g id="PathCollection_7">
    <defs>
     <path id="m019470baa2" d="M 0 4.472136 
C 1.186024 4.472136 2.323632 4.000923 3.162278 3.162278 
C 4.000923 2.323632 4.472136 1.186024 4.472136 0 
C 4.472136 -1.186024 4.000923 -2.323632 3.162278 -3.162278 
C 2.323632 -4.000923 1.186024 -4.472136 0 -4.472136 
C -1.186024 -4.472136 -2.323632 -4.000923 -3.162278 -3.162278 
C -4.000923 -2.323632 -4.472136 -1.186024 -4.472136 0 
C -4.472136 1.186024 -4.000923 2.323632 -3.162278 3.162278 
C -2.323632 4.000923 -1.186024 4.472136 0 4.472136 
z
" style="stroke: #ffffff; stroke-width: 0.8"/>
    </defs>
    <g clip-path="url(#pa7d2a65be4)">
     <use xlink:href="#m019470baa2" x="55.903492" y="48.117145" style="fill: #b279a2; stroke: #ffffff; stroke-width: 0.8"/>
    </g>
   </g>
   <g id="text_19">
    <!-- CAPE-v0 -->
    <g transform="translate(65.903492 64.117145) scale(0.085 -0.085)">
     <use xlink:href="#MicrosoftYaHei-43"/>
     <use xlink:href="#MicrosoftYaHei-41" transform="translate(66.894531 0)"/>
     <use xlink:href="#MicrosoftYaHei-50" transform="translate(137.255859 0)"/>
     <use xlink:href="#MicrosoftYaHei-45" transform="translate(198.4375 0)"/>
     <use xlink:href="#MicrosoftYaHei-2d" transform="translate(253.417969 0)"/>
     <use xlink:href="#MicrosoftYaHei-76" transform="translate(296.679688 0)"/>
     <use xlink:href="#MicrosoftYaHei-30" transform="translate(349.169922 0)"/>
    </g>
   </g>
   <g id="PathCollection_8">
    <defs>
     <path id="m168a0d4b63" d="M 0 4.472136 
C 1.186024 4.472136 2.323632 4.000923 3.162278 3.162278 
C 4.000923 2.323632 4.472136 1.186024 4.472136 0 
C 4.472136 -1.186024 4.000923 -2.323632 3.162278 -3.162278 
C 2.323632 -4.000923 1.186024 -4.472136 0 -4.472136 
C -1.186024 -4.472136 -2.323632 -4.000923 -3.162278 -3.162278 
C -4.000923 -2.323632 -4.472136 -1.186024 -4.472136 0 
C -4.472136 1.186024 -4.000923 2.323632 -3.162278 3.162278 
C -2.323632 4.000923 -1.186024 4.472136 0 4.472136 
z
" style="stroke: #ffffff; stroke-width: 0.8"/>
    </defs>
    <g clip-path="url(#pa7d2a65be4)">
     <use xlink:href="#m168a0d4b63" x="94.233567" y="58.927945" style="fill: #54a24b; stroke: #ffffff; stroke-width: 0.8"/>
    </g>
   </g>
   <g id="text_20">
    <!-- CAPE-v1 -->
    <g transform="translate(106.233567 62.927945) scale(0.085 -0.085)">
     <use xlink:href="#MicrosoftYaHei-43"/>
     <use xlink:href="#MicrosoftYaHei-41" transform="translate(66.894531 0)"/>
     <use xlink:href="#MicrosoftYaHei-50" transform="translate(137.255859 0)"/>
     <use xlink:href="#MicrosoftYaHei-45" transform="translate(198.4375 0)"/>
     <use xlink:href="#MicrosoftYaHei-2d" transform="translate(253.417969 0)"/>
     <use xlink:href="#MicrosoftYaHei-76" transform="translate(296.679688 0)"/>
     <use xlink:href="#MicrosoftYaHei-31" transform="translate(349.169922 0)"/>
    </g>
   </g>
   <g id="text_21">
    <!-- Anchor K1 -->
    <g style="fill: #666666" transform="translate(122.598843 115.898375) scale(0.08 -0.08)">
     <defs>
      <path id="MicrosoftYaHei-68" d="M 3466 0 
L 2856 0 
L 2856 1988 
Q 2856 3031 2081 3031 
Q 1684 3031 1421 2726 
Q 1159 2422 1159 1959 
L 1159 0 
L 547 0 
L 547 5116 
L 1159 5116 
L 1159 2888 
L 1172 2888 
Q 1569 3538 2300 3538 
Q 3466 3538 3466 2128 
L 3466 0 
z
" transform="scale(0.015625)"/>
      <path id="MicrosoftYaHei-4b" d="M 4069 0 
L 3213 0 
L 1394 2200 
Q 1300 2316 1266 2381 
L 1250 2381 
L 1250 0 
L 625 0 
L 625 4841 
L 1250 4841 
L 1250 2563 
L 1266 2563 
Q 1319 2647 1394 2741 
L 3150 4841 
L 3922 4841 
L 1891 2519 
L 4069 0 
z
" transform="scale(0.015625)"/>
     </defs>
     <use xlink:href="#MicrosoftYaHei-41"/>
     <use xlink:href="#MicrosoftYaHei-6e" transform="translate(70.361328 0)"/>
     <use xlink:href="#MicrosoftYaHei-63" transform="translate(131.982422 0)"/>
     <use xlink:href="#MicrosoftYaHei-68" transform="translate(182.128906 0)"/>
     <use xlink:href="#MicrosoftYaHei-6f" transform="translate(243.701172 0)"/>
     <use xlink:href="#MicrosoftYaHei-72" transform="translate(307.275391 0)"/>
     <use xlink:href="#MicrosoftYaHei-20" transform="translate(345.458984 0)"/>
     <use xlink:href="#MicrosoftYaHei-4b" transform="translate(375.048828 0)"/>
     <use xlink:href="#MicrosoftYaHei-31" transform="translate(438.525391 0)"/>
    </g>
    <!-- pending -->
    <g style="fill: #666666" transform="translate(122.598843 125.561125) scale(0.08 -0.08)">
     <use xlink:href="#MicrosoftYaHei-70"/>
     <use xlink:href="#MicrosoftYaHei-65" transform="translate(63.867188 0)"/>
     <use xlink:href="#MicrosoftYaHei-6e" transform="translate(120.605469 0)"/>
     <use xlink:href="#MicrosoftYaHei-64" transform="translate(182.226562 0)"/>
     <use xlink:href="#MicrosoftYaHei-69" transform="translate(246.191406 0)"/>
     <use xlink:href="#MicrosoftYaHei-6e" transform="translate(272.802734 0)"/>
     <use xlink:href="#MicrosoftYaHei-67" transform="translate(334.423828 0)"/>
    </g>
   </g>
   <g id="text_22">
    <!-- Anchor K2 -->
    <g style="fill: #666666" transform="translate(213.749113 115.898375) scale(0.08 -0.08)">
     <use xlink:href="#MicrosoftYaHei-41"/>
     <use xlink:href="#MicrosoftYaHei-6e" transform="translate(70.361328 0)"/>
     <use xlink:href="#MicrosoftYaHei-63" transform="translate(131.982422 0)"/>
     <use xlink:href="#MicrosoftYaHei-68" transform="translate(182.128906 0)"/>
     <use xlink:href="#MicrosoftYaHei-6f" transform="translate(243.701172 0)"/>
     <use xlink:href="#MicrosoftYaHei-72" transform="translate(307.275391 0)"/>
     <use xlink:href="#MicrosoftYaHei-20" transform="translate(345.458984 0)"/>
     <use xlink:href="#MicrosoftYaHei-4b" transform="translate(375.048828 0)"/>
     <use xlink:href="#MicrosoftYaHei-32" transform="translate(438.525391 0)"/>
    </g>
    <!-- pending -->
    <g style="fill: #666666" transform="translate(213.749113 125.561125) scale(0.08 -0.08)">
     <use xlink:href="#MicrosoftYaHei-70"/>
     <use xlink:href="#MicrosoftYaHei-65" transform="translate(63.867188 0)"/>
     <use xlink:href="#MicrosoftYaHei-6e" transform="translate(120.605469 0)"/>
     <use xlink:href="#MicrosoftYaHei-64" transform="translate(182.226562 0)"/>
     <use xlink:href="#MicrosoftYaHei-69" transform="translate(246.191406 0)"/>
     <use xlink:href="#MicrosoftYaHei-6e" transform="translate(272.802734 0)"/>
     <use xlink:href="#MicrosoftYaHei-67" transform="translate(334.423828 0)"/>
    </g>
   </g>
   <g id="text_23">
    <!-- Privacy-utility trade-off on synthetic privacy v2 -->
    <g transform="translate(110.26375 16.933125) scale(0.12 -0.12)">
     <defs>
      <path id="MicrosoftYaHei-66" d="M 2319 4594 
Q 2147 4684 1947 4684 
Q 1372 4684 1372 3972 
L 1372 3456 
L 2181 3456 
L 2181 2950 
L 1372 2950 
L 1372 0 
L 766 0 
L 766 2950 
L 175 2950 
L 175 3456 
L 766 3456 
L 766 4000 
Q 766 4556 1086 4873 
Q 1406 5191 1900 5191 
Q 2163 5191 2319 5131 
L 2319 4594 
z
" transform="scale(0.015625)"/>
     </defs>
     <use xlink:href="#MicrosoftYaHei-50"/>
     <use xlink:href="#MicrosoftYaHei-72" transform="translate(61.181641 0)"/>
     <use xlink:href="#MicrosoftYaHei-69" transform="translate(99.365234 0)"/>
     <use xlink:href="#MicrosoftYaHei-76" transform="translate(125.976562 0)"/>
     <use xlink:href="#MicrosoftYaHei-61" transform="translate(176.466797 0)"/>
     <use xlink:href="#MicrosoftYaHei-63" transform="translate(231.740234 0)"/>
     <use xlink:href="#MicrosoftYaHei-79" transform="translate(281.886719 0)"/>
     <use xlink:href="#MicrosoftYaHei-2d" transform="translate(334.816406 0)"/>
     <use xlink:href="#MicrosoftYaHei-75" transform="translate(378.078125 0)"/>
     <use xlink:href="#MicrosoftYaHei-74" transform="translate(439.699219 0)"/>
     <use xlink:href="#MicrosoftYaHei-69" transform="translate(476.955078 0)"/>
     <use xlink:href="#MicrosoftYaHei-6c" transform="translate(503.566406 0)"/>
     <use xlink:href="#MicrosoftYaHei-69" transform="translate(530.177734 0)"/>
     <use xlink:href="#MicrosoftYaHei-74" transform="translate(556.789062 0)"/>
     <use xlink:href="#MicrosoftYaHei-79" transform="translate(594.044922 0)"/>
     <use xlink:href="#MicrosoftYaHei-20" transform="translate(646.974609 0)"/>
     <use xlink:href="#MicrosoftYaHei-74" transform="translate(676.564453 0)"/>
     <use xlink:href="#MicrosoftYaHei-72" transform="translate(713.820312 0)"/>
     <use xlink:href="#MicrosoftYaHei-61" transform="translate(752.003906 0)"/>
     <use xlink:href="#MicrosoftYaHei-64" transform="translate(807.277344 0)"/>
     <use xlink:href="#MicrosoftYaHei-65" transform="translate(871.242188 0)"/>
     <use xlink:href="#MicrosoftYaHei-2d" transform="translate(927.980469 0)"/>
     <use xlink:href="#MicrosoftYaHei-6f" transform="translate(971.242188 0)"/>
     <use xlink:href="#MicrosoftYaHei-66" transform="translate(1032.816406 0)"/>
     <use xlink:href="#MicrosoftYaHei-66" transform="translate(1067.484375 0)"/>
     <use xlink:href="#MicrosoftYaHei-20" transform="translate(1102.152344 0)"/>
     <use xlink:href="#MicrosoftYaHei-6f" transform="translate(1131.742188 0)"/>
     <use xlink:href="#MicrosoftYaHei-6e" transform="translate(1195.316406 0)"/>
     <use xlink:href="#MicrosoftYaHei-20" transform="translate(1256.9375 0)"/>
     <use xlink:href="#MicrosoftYaHei-73" transform="translate(1286.527344 0)"/>
     <use xlink:href="#MicrosoftYaHei-79" transform="translate(1332.816406 0)"/>
     <use xlink:href="#MicrosoftYaHei-6e" transform="translate(1385.746094 0)"/>
     <use xlink:href="#MicrosoftYaHei-74" transform="translate(1447.367188 0)"/>
     <use xlink:href="#MicrosoftYaHei-68" transform="translate(1484.623047 0)"/>
     <use xlink:href="#MicrosoftYaHei-65" transform="translate(1546.195312 0)"/>
     <use xlink:href="#MicrosoftYaHei-74" transform="translate(1602.933594 0)"/>
     <use xlink:href="#MicrosoftYaHei-69" transform="translate(1640.189453 0)"/>
     <use xlink:href="#MicrosoftYaHei-63" transform="translate(1666.800781 0)"/>
     <use xlink:href="#MicrosoftYaHei-20" transform="translate(1716.947266 0)"/>
     <use xlink:href="#MicrosoftYaHei-70" transform="translate(1746.537109 0)"/>
     <use xlink:href="#MicrosoftYaHei-72" transform="translate(1810.404297 0)"/>
     <use xlink:href="#MicrosoftYaHei-69" transform="translate(1848.587891 0)"/>
     <use xlink:href="#MicrosoftYaHei-76" transform="translate(1875.199219 0)"/>
     <use xlink:href="#MicrosoftYaHei-61" transform="translate(1925.689453 0)"/>
     <use xlink:href="#MicrosoftYaHei-63" transform="translate(1980.962891 0)"/>
     <use xlink:href="#MicrosoftYaHei-79" transform="translate(2031.109375 0)"/>
     <use xlink:href="#MicrosoftYaHei-20" transform="translate(2084.039062 0)"/>
     <use xlink:href="#MicrosoftYaHei-76" transform="translate(2113.628906 0)"/>
     <use xlink:href="#MicrosoftYaHei-32" transform="translate(2166.119141 0)"/>
    </g>
   </g>
  </g>
 </g>
 <defs>
  <clipPath id="pa7d2a65be4">
   <rect x="42.873438" y="26.933125" width="401.76" height="288.288"/>
  </clipPath>
 </defs>
</svg>
