<?xml version="1.0" encoding="utf-8" standalone="no"?>
<!DOCTYPE svg PUBLIC "-//W3C//DTD SVG 1.1//EN"
  "http://www.w3.org/Graphics/SVG/1.1/DTD/svg11.dtd">
<svg xmlns:xlink="http://www.w3.org/1999/xlink" width="462.935625pt" height="317.642pt" viewBox="0 0 462.935625 317.642" xmlns="http://www.w3.org/2000/svg" version="1.1">
 <metadata>
  <rdf:RDF xmlns:dc="http://purl.org/dc/elements/1.1/" xmlns:cc="http://creativecommons.org/ns#" xmlns:rdf="http://www.w3.org/1999/02/22-rdf-syntax-ns#">
   <cc:Work>
    <dc:type rdf:resource="http://purl.org/dc/dcmitype/StillImage"/>
    <dc:date>2026-06-23T12:08:36.910871</dc:date>
    <dc:format>image/svg+xml</dc:format>
    <dc:creator>
     <cc:Agent>
      <dc:title>Matplotlib v3.10.1, https://matplotlib.org/</dc:title>
     </cc:Agent>
    </dc:creator>
   </cc:Work>
  </rdf:RDF>
 </metadata>
 <defs>
  <style type="text/css">*{stroke-linejoin: round; stroke-linecap: butt}</style>
 </defs>
 <g id="figure_1">
  <g id="patch_1">
   <path d="M 0 317.642 
L 462.935625 317.642 
L 462.935625 0 
L 0 0 
z
" style="fill: #ffffff"/>
  </g>
  <g id="axes_1">
   <g id="patch_2">
    <path d="M 42.815625 292.9045 
L 455.735625 292.9045 
L 455.735625 26.7925 
L 42.815625 26.7925 
z
" style="fill: #ffffff"/>
   </g>
   <g id="patch_3">
    <path d="M 61.584716 292.9045 
L 111.960631 292.9045 
L 111.960631 55.9381 
L 61.584716 55.9381 
z
" clip-path="url(#p48d92fe053)" style="fill: #4c78a8"/>
   </g>
   <g id="patch_4">
    <path d="M 142.836192 292.9045 
L 193.212107 292.9045 
L 193.212107 54.2485 
L 142.836192 54.2485 
z
" clip-path="url(#p48d92fe053)" style="fill: #4c78a8"/>
   </g>
   <g id="patch_5">
    <path d="M 224.087668 292.9045 
L 274.463582 292.9045 
L 274.463582 57.6277 
L 224.087668 57.6277 
z
" clip-path="url(#p48d92fe053)" style="fill: #4c78a8"/>
   </g>
   <g id="patch_6">
    <path d="M 305.339143 292.9045 
L 355.715058 292.9045 
L 355.715058 54.2485 
L 305.339143 54.2485 
z
" clip-path="url(#p48d92fe053)" style="fill: #4c78a8"/>
   </g>
   <g id="patch_7">
    <path d="M 386.590619 292.9045 
L 436.966534 292.9045 
L 436.966534 52.9813 
L 386.590619 52.9813 
z
" clip-path="url(#p48d92fe053)" style="fill: #4c78a8"/>
   </g>
   <g id="patch_8">
    <path d="M 61.584716 292.9045 
L 111.960631 292.9045 
L 111.960631 131.5477 
L 61.584716 131.5477 
z
" clip-path="url(#p48d92fe053)" style="fill: #4c78a8"/>
   </g>
   <g id="patch_9">
    <path d="M 142.836192 292.9045 
L 193.212107 292.9045 
L 193.212107 156.8917 
L 142.836192 156.8917 
z
" clip-path="url(#p48d92fe053)" style="fill: #4c78a8"/>
   </g>
   <g id="patch_10">
    <path d="M 224.087668 292.9045 
L 274.463582 292.9045 
L 274.463582 131.1253 
L 224.087668 131.1253 
z
" clip-path="url(#p48d92fe053)" style="fill: #4c78a8"/>
   </g>
   <g id="patch_11">
    <path d="M 305.339143 292.9045 
L 355.715058 292.9045 
L 355.715058 181.8133 
L 305.339143 181.8133 
z
" clip-path="url(#p48d92fe053)" style="fill: #4c78a8"/>
   </g>
   <g id="patch_12">
    <path d="M 386.590619 292.9045 
L 436.966534 292.9045 
L 436.966534 129.8581 
L 386.590619 129.8581 
z
" clip-path="url(#p48d92fe053)" style="fill: #4c78a8"/>
   </g>
   <g id="patch_13">
    <path d="M 61.584716 292.9045 
L 111.960631 292.9045 
L 111.960631 83.3941 
L 61.584716 83.3941 
z
" clip-path="url(#p48d92fe053)" style="fill: #4c78a8"/>
   </g>
   <g id="patch_14">
    <path d="M 142.836192 292.9045 
L 193.212107 292.9045 
L 193.212107 94.3765 
L 142.836192 94.3765 
z
" clip-path="url(#p48d92fe053)" style="fill: #4c78a8"/>
   </g>
   <g id="patch_15">
    <path d="M 224.087668 292.9045 
L 274.463582 292.9045 
L 274.463582 65.2309 
L 224.087668 65.2309 
z
" clip-path="url(#p48d92fe053)" style="fill: #4c78a8"/>
   </g>
   <g id="patch_16">
    <path d="M 305.339143 292.9045 
L 355.715058 292.9045 
L 355.715058 110.8501 
L 305.339143 110.8501 
z
" clip-path="url(#p48d92fe053)" style="fill: #4c78a8"/>
   </g>
   <g id="patch_17">
    <path d="M 386.590619 292.9045 
L 436.966534 292.9045 
L 436.966534 79.1701 
L 386.590619 79.1701 
z
" clip-path="url(#p48d92fe053)" style="fill: #4c78a8"/>
   </g>
   <g id="patch_18">
    <path d="M 61.584716 292.9045 
L 111.960631 292.9045 
L 111.960631 292.9045 
L 61.584716 292.9045 
z
" clip-path="url(#p48d92fe053)" style="fill: #4c78a8"/>
   </g>
   <g id="patch_19">
    <path d="M 142.836192 292.9045 
L 193.212107 292.9045 
L 193.212107 292.9045 
L 142.836192 292.9045 
z
" clip-path="url(#p48d92fe053)" style="fill: #4c78a8"/>
   </g>
   <g id="patch_20">
    <path d="M 224.087668 292.9045 
L 274.463582 292.9045 
L 274.463582 292.9045 
L 224.087668 292.9045 
z
" clip-path="url(#p48d92fe053)" style="fill: #4c78a8"/>
   </g>
   <g id="patch_21">
    <path d="M 305.339143 292.9045 
L 355.715058 292.9045 
L 355.715058 292.9045 
L 305.339143 292.9045 
z
" clip-path="url(#p48d92fe053)" style="fill: #4c78a8"/>
   </g>
   <g id="patch_22">
    <path d="M 386.590619 292.9045 
L 436.966534 292.9045 
L 436.966534 292.9045 
L 386.590619 292.9045 
z
" clip-path="url(#p48d92fe053)" style="fill: #4c78a8"/>
   </g>
   <g id="patch_23">
    <path d="M 61.584716 292.9045 
L 111.960631 292.9045 
L 111.960631 292.9045 
L 61.584716 292.9045 
z
" clip-path="url(#p48d92fe053)" style="fill: #4c78a8"/>
   </g>
   <g id="patch_24">
    <path d="M 142.836192 292.9045 
L 193.212107 292.9045 
L 193.212107 292.9045 
L 142.836192 292.9045 
z
" clip-path="url(#p48d92fe053)" style="fill: #4c78a8"/>
   </g>
   <g id="patch_25">
    <path d="M 224.087668 292.9045 
L 274.463582 292.9045 
L 274.463582 292.4821 
L 224.087668 292.4821 
z
" clip-path="url(#p48d92fe053)" style="fill: #4c78a8"/>
   </g>
   <g id="patch_26">
    <path d="M 305.339143 292.9045 
L 355.715058 292.9045 
L 355.715058 292.9045 
L 305.339143 292.9045 
z
" clip-path="url(#p48d92fe053)" style="fill: #4c78a8"/>
   </g>
   <g id="patch_27">
    <path d="M 386.590619 292.9045 
L 436.966534 292.9045 
L 436.966534 292.9045 
L 386.590619 292.9045 
z
" clip-path="url(#p48d92fe053)" style="fill: #4c78a8"/>
   </g>
   <g id="patch_28">
    <path d="M 61.584716 292.9045 
L 111.960631 292.9045 
L 111.960631 285.3013 
L 61.584716 285.3013 
z
" clip-path="url(#p48d92fe053)" style="fill: #4c78a8"/>
   </g>
   <g id="patch_29">
    <path d="M 142.836192 292.9045 
L 193.212107 292.9045 
L 193.212107 286.5685 
L 142.836192 286.5685 
z
" clip-path="url(#p48d92fe053)" style="fill: #4c78a8"/>
   </g>
   <g id="patch_30">
    <path d="M 224.087668 292.9045 
L 274.463582 292.9045 
L 274.463582 284.8789 
L 224.087668 284.8789 
z
" clip-path="url(#p48d92fe053)" style="fill: #4c78a8"/>
   </g>
   <g id="patch_31">
    <path d="M 305.339143 292.9045 
L 355.715058 292.9045 
L 355.715058 292.9045 
L 305.339143 292.9045 
z
" clip-path="url(#p48d92fe053)" style="fill: #4c78a8"/>
   </g>
   <g id="patch_32">
    <path d="M 386.590619 292.9045 
L 436.966534 292.9045 
L 436.966534 284.0341 
L 386.590619 284.0341 
z
" clip-path="url(#p48d92fe053)" style="fill: #4c78a8"/>
   </g>
   <g id="matplotlib.axis_1">
    <g id="xtick_1">
     <g id="line2d_1">
      <defs>
       <path id="mdd133d8847" d="M 0 0 
L 0 3.5 
" style="stroke: #000000; stroke-width: 0.8"/>
      </defs>
      <g>
       <use xlink:href="#mdd133d8847" x="86.772673" y="292.9045" style="stroke: #000000; stroke-width: 0.8"/>
      </g>
     </g>
     <g id="text_1">
      <!-- direct -->
      <g transform="translate(73.196892 307.89825) scale(0.1 -0.1)">
       <defs>
        <path id="MicrosoftYaHei-64" d="M 3547 0 
L 2934 0 
L 2934 575 
L 2922 575 
Q 2544 -81 1747 -81 
Q 1091 -81 703 386 
Q 316 853 316 1647 
Q 316 2503 753 3020 
Q 1191 3538 1897 3538 
Q 2603 3538 2922 2988 
L 2934 2988 
L 2934 5116 
L 3547 5116 
L 3547 0 
z
M 2938 2056 
Q 2938 2472 2664 2751 
Q 2391 3031 1991 3031 
Q 1503 3031 1222 2667 
Q 941 2303 941 1675 
Q 941 1097 1211 761 
Q 1481 425 1931 425 
Q 2375 425 2656 754 
Q 2938 1084 2938 1575 
L 2938 2056 
z
" transform="scale(0.015625)"/>
        <path id="MicrosoftYaHei-69" d="M 472 4675 
Q 472 4838 583 4948 
Q 694 5059 856 5059 
Q 1022 5059 1136 4950 
Q 1250 4841 1250 4675 
Q 1250 4513 1136 4405 
Q 1022 4297 856 4297 
Q 691 4297 581 4405 
Q 472 4513 472 4675 
z
M 544 0 
L 544 3456 
L 1156 3456 
L 1156 0 
L 544 0 
z
" transform="scale(0.015625)"/>
        <path id="MicrosoftYaHei-72" d="M 2400 2850 
Q 2247 2959 1978 2959 
Q 1622 2959 1390 2626 
Q 1159 2294 1159 1750 
L 1159 0 
L 547 0 
L 547 3456 
L 1159 3456 
L 1159 2753 
L 1172 2753 
Q 1434 3516 2078 3516 
Q 2288 3516 2400 3469 
L 2400 2850 
z
" transform="scale(0.015625)"/>
        <path id="MicrosoftYaHei-65" d="M 3363 1572 
L 944 1572 
Q 959 1019 1246 717 
Q 1534 416 2050 416 
Q 2631 416 3116 788 
L 3116 241 
Q 2659 -81 1906 -81 
Q 1156 -81 736 394 
Q 316 869 316 1713 
Q 316 2506 777 3022 
Q 1238 3538 1922 3538 
Q 2600 3538 2981 3102 
Q 3363 2666 3363 1881 
L 3363 1572 
z
M 2750 2063 
Q 2747 2531 2528 2787 
Q 2309 3044 1913 3044 
Q 1547 3044 1280 2772 
Q 1013 2500 944 2063 
L 2750 2063 
z
" transform="scale(0.015625)"/>
        <path id="MicrosoftYaHei-63" d="M 2934 156 
Q 2538 -81 1978 -81 
Q 1228 -81 772 400 
Q 316 881 316 1647 
Q 316 2497 808 3017 
Q 1300 3538 2125 3538 
Q 2600 3538 2938 3369 
L 2938 2763 
Q 2572 3031 2125 3031 
Q 1600 3031 1270 2667 
Q 941 2303 941 1697 
Q 941 1100 1252 762 
Q 1563 425 2091 425 
Q 2538 425 2934 719 
L 2934 156 
z
" transform="scale(0.015625)"/>
        <path id="MicrosoftYaHei-74" d="M 2206 34 
Q 2006 -75 1666 -75 
Q 738 -75 738 953 
L 738 2950 
L 144 2950 
L 144 3456 
L 738 3456 
L 738 4288 
L 1347 4481 
L 1347 3456 
L 2206 3456 
L 2206 2950 
L 1347 2950 
L 1347 1063 
Q 1347 722 1462 575 
Q 1578 428 1847 428 
Q 2053 428 2206 544 
L 2206 34 
z
" transform="scale(0.015625)"/>
       </defs>
       <use xlink:href="#MicrosoftYaHei-64"/>
       <use xlink:href="#MicrosoftYaHei-69" transform="translate(63.964844 0)"/>
       <use xlink:href="#MicrosoftYaHei-72" transform="translate(90.576172 0)"/>
       <use xlink:href="#MicrosoftYaHei-65" transform="translate(127.384766 0)"/>
       <use xlink:href="#MicrosoftYaHei-63" transform="translate(184.123047 0)"/>
       <use xlink:href="#MicrosoftYaHei-74" transform="translate(234.269531 0)"/>
      </g>
     </g>
    </g>
    <g id="xtick_2">
     <g id="line2d_2">
      <g>
       <use xlink:href="#mdd133d8847" x="168.024149" y="292.9045" style="stroke: #000000; stroke-width: 0.8"/>
      </g>
     </g>
     <g id="text_2">
      <!-- paraphrase -->
      <g transform="translate(141.363993 307.89825) scale(0.1 -0.1)">
       <defs>
        <path id="MicrosoftYaHei-70" d="M 1159 488 
L 1159 -1591 
L 547 -1591 
L 547 3456 
L 1159 3456 
L 1159 2859 
L 1172 2859 
Q 1578 3538 2359 3538 
Q 3022 3538 3398 3073 
Q 3775 2609 3775 1828 
Q 3775 966 3348 442 
Q 2922 -81 2200 -81 
Q 1534 -81 1172 488 
L 1159 488 
z
M 1156 1425 
Q 1156 1003 1428 714 
Q 1700 425 2109 425 
Q 2597 425 2872 800 
Q 3147 1175 3147 1838 
Q 3147 2397 2890 2714 
Q 2634 3031 2191 3031 
Q 1738 3031 1447 2709 
Q 1156 2388 1156 1884 
L 1156 1425 
z
" transform="scale(0.015625)"/>
        <path id="MicrosoftYaHei-61" d="M 628 3216 
Q 1144 3538 1819 3538 
Q 3069 3538 3069 2225 
L 3069 0 
L 2463 0 
L 2463 534 
L 2447 534 
Q 2088 -81 1388 -81 
Q 884 -81 587 191 
Q 291 463 291 925 
Q 291 1894 1438 2053 
L 2463 2197 
Q 2463 3044 1763 3044 
Q 1141 3044 628 2625 
L 628 3216 
z
M 1653 1625 
Q 1228 1569 1067 1412 
Q 906 1256 906 975 
Q 906 728 1081 572 
Q 1256 416 1544 416 
Q 1944 416 2203 697 
Q 2463 978 2463 1403 
L 2463 1734 
L 1653 1625 
z
" transform="scale(0.015625)"/>
        <path id="MicrosoftYaHei-68" d="M 3466 0 
L 2856 0 
L 2856 1988 
Q 2856 3031 2081 3031 
Q 1684 3031 1421 2726 
Q 1159 2422 1159 1959 
L 1159 0 
L 547 0 
L 547 5116 
L 1159 5116 
L 1159 2888 
L 1172 2888 
Q 1569 3538 2300 3538 
Q 3466 3538 3466 2128 
L 3466 0 
z
" transform="scale(0.015625)"/>
        <path id="MicrosoftYaHei-73" d="M 353 747 
Q 816 413 1350 413 
Q 2066 413 2066 881 
Q 2066 1081 1909 1211 
Q 1753 1341 1275 1519 
Q 700 1750 528 1976 
Q 356 2203 356 2525 
Q 356 2984 745 3261 
Q 1134 3538 1703 3538 
Q 2144 3538 2522 3384 
L 2522 2794 
Q 2134 3044 1644 3044 
Q 1350 3044 1165 2916 
Q 981 2788 981 2578 
Q 981 2372 1114 2256 
Q 1247 2141 1703 1959 
Q 2281 1744 2484 1512 
Q 2688 1281 2688 941 
Q 2688 466 2298 192 
Q 1909 -81 1291 -81 
Q 753 -81 353 122 
L 353 747 
z
" transform="scale(0.015625)"/>
       </defs>
       <use xlink:href="#MicrosoftYaHei-70"/>
       <use xlink:href="#MicrosoftYaHei-61" transform="translate(62.492188 0)"/>
       <use xlink:href="#MicrosoftYaHei-72" transform="translate(117.765625 0)"/>
       <use xlink:href="#MicrosoftYaHei-61" transform="translate(155.949219 0)"/>
       <use xlink:href="#MicrosoftYaHei-70" transform="translate(211.222656 0)"/>
       <use xlink:href="#MicrosoftYaHei-68" transform="translate(275.089844 0)"/>
       <use xlink:href="#MicrosoftYaHei-72" transform="translate(336.662109 0)"/>
       <use xlink:href="#MicrosoftYaHei-61" transform="translate(374.845703 0)"/>
       <use xlink:href="#MicrosoftYaHei-73" transform="translate(430.119141 0)"/>
       <use xlink:href="#MicrosoftYaHei-65" transform="translate(476.408203 0)"/>
      </g>
     </g>
    </g>
    <g id="xtick_3">
     <g id="line2d_3">
      <g>
       <use xlink:href="#mdd133d8847" x="249.275625" y="292.9045" style="stroke: #000000; stroke-width: 0.8"/>
      </g>
     </g>
     <g id="text_3">
      <!-- completion -->
      <g transform="translate(222.090469 307.89825) scale(0.1 -0.1)">
       <defs>
        <path id="MicrosoftYaHei-6f" d="M 316 1691 
Q 316 2547 794 3042 
Q 1272 3538 2091 3538 
Q 2869 3538 3311 3061 
Q 3753 2584 3753 1744 
Q 3753 925 3281 422 
Q 2809 -81 2016 -81 
Q 1241 -81 778 406 
Q 316 894 316 1691 
z
M 941 1709 
Q 941 1113 1242 769 
Q 1544 425 2053 425 
Q 2578 425 2853 761 
Q 3128 1097 3128 1725 
Q 3128 2356 2853 2693 
Q 2578 3031 2053 3031 
Q 1538 3031 1239 2678 
Q 941 2325 941 1709 
z
" transform="scale(0.015625)"/>
        <path id="MicrosoftYaHei-6d" d="M 5522 0 
L 4909 0 
L 4909 1984 
Q 4909 2547 4734 2789 
Q 4559 3031 4159 3031 
Q 3822 3031 3581 2715 
Q 3341 2400 3341 1969 
L 3341 0 
L 2728 0 
L 2728 2047 
Q 2728 3031 1969 3031 
Q 1619 3031 1389 2731 
Q 1159 2431 1159 1966 
L 1159 0 
L 547 0 
L 547 3456 
L 1159 3456 
L 1159 2909 
L 1172 2909 
Q 1541 3538 2250 3538 
Q 2597 3538 2862 3347 
Q 3128 3156 3231 2831 
Q 3616 3538 4381 3538 
Q 5522 3538 5522 2131 
L 5522 0 
z
" transform="scale(0.015625)"/>
        <path id="MicrosoftYaHei-6c" d="M 544 0 
L 544 5116 
L 1156 5116 
L 1156 0 
L 544 0 
z
" transform="scale(0.015625)"/>
        <path id="MicrosoftYaHei-6e" d="M 3469 0 
L 2859 0 
L 2859 1966 
Q 2859 3031 2081 3031 
Q 1678 3031 1418 2731 
Q 1159 2431 1159 1972 
L 1159 0 
L 547 0 
L 547 3456 
L 1159 3456 
L 1159 2884 
L 1172 2884 
Q 1563 3538 2306 3538 
Q 2875 3538 3172 3173 
Q 3469 2809 3469 2113 
L 3469 0 
z
" transform="scale(0.015625)"/>
       </defs>
       <use xlink:href="#MicrosoftYaHei-63"/>
       <use xlink:href="#MicrosoftYaHei-6f" transform="translate(50.146484 0)"/>
       <use xlink:href="#MicrosoftYaHei-6d" transform="translate(113.720703 0)"/>
       <use xlink:href="#MicrosoftYaHei-70" transform="translate(207.421875 0)"/>
       <use xlink:href="#MicrosoftYaHei-6c" transform="translate(271.289062 0)"/>
       <use xlink:href="#MicrosoftYaHei-65" transform="translate(297.900391 0)"/>
       <use xlink:href="#MicrosoftYaHei-74" transform="translate(354.638672 0)"/>
       <use xlink:href="#MicrosoftYaHei-69" transform="translate(391.894531 0)"/>
       <use xlink:href="#MicrosoftYaHei-6f" transform="translate(418.505859 0)"/>
       <use xlink:href="#MicrosoftYaHei-6e" transform="translate(482.080078 0)"/>
      </g>
     </g>
    </g>
    <g id="xtick_4">
     <g id="line2d_4">
      <g>
       <use xlink:href="#mdd133d8847" x="330.527101" y="292.9045" style="stroke: #000000; stroke-width: 0.8"/>
      </g>
     </g>
     <g id="text_4">
      <!-- roleplay -->
      <g transform="translate(311.405226 307.89825) scale(0.1 -0.1)">
       <defs>
        <path id="MicrosoftYaHei-79" d="M 3359 3456 
L 1791 -522 
Q 1353 -1628 556 -1628 
Q 328 -1628 166 -1578 
L 166 -1041 
Q 344 -1109 509 -1109 
Q 925 -1109 1131 -622 
L 1397 6 
L 41 3456 
L 719 3456 
L 1622 859 
L 1697 575 
L 1713 575 
Q 1731 672 1788 853 
L 2731 3456 
L 3359 3456 
z
" transform="scale(0.015625)"/>
       </defs>
       <use xlink:href="#MicrosoftYaHei-72"/>
       <use xlink:href="#MicrosoftYaHei-6f" transform="translate(36.808594 0)"/>
       <use xlink:href="#MicrosoftYaHei-6c" transform="translate(100.382812 0)"/>
       <use xlink:href="#MicrosoftYaHei-65" transform="translate(126.994141 0)"/>
       <use xlink:href="#MicrosoftYaHei-70" transform="translate(183.732422 0)"/>
       <use xlink:href="#MicrosoftYaHei-6c" transform="translate(247.599609 0)"/>
       <use xlink:href="#MicrosoftYaHei-61" transform="translate(274.210938 0)"/>
       <use xlink:href="#MicrosoftYaHei-79" transform="translate(329.484375 0)"/>
      </g>
     </g>
    </g>
    <g id="xtick_5">
     <g id="line2d_5">
      <g>
       <use xlink:href="#mdd133d8847" x="411.778577" y="292.9045" style="stroke: #000000; stroke-width: 0.8"/>
      </g>
     </g>
     <g id="text_5">
      <!-- context -->
      <g transform="translate(393.959045 307.89825) scale(0.1 -0.1)">
       <defs>
        <path id="MicrosoftYaHei-78" d="M 3163 3456 
L 2006 1716 
L 3147 0 
L 2434 0 
L 1775 1100 
Q 1722 1188 1625 1369 
L 1613 1369 
Q 1609 1350 1456 1100 
L 784 0 
L 81 0 
L 1256 1697 
L 134 3456 
L 847 3456 
L 1494 2300 
Q 1553 2194 1638 2025 
L 1650 2025 
L 2491 3456 
L 3163 3456 
z
" transform="scale(0.015625)"/>
       </defs>
       <use xlink:href="#MicrosoftYaHei-63"/>
       <use xlink:href="#MicrosoftYaHei-6f" transform="translate(50.146484 0)"/>
       <use xlink:href="#MicrosoftYaHei-6e" transform="translate(113.720703 0)"/>
       <use xlink:href="#MicrosoftYaHei-74" transform="translate(175.341797 0)"/>
       <use xlink:href="#MicrosoftYaHei-65" transform="translate(211.722656 0)"/>
       <use xlink:href="#MicrosoftYaHei-78" transform="translate(268.460938 0)"/>
       <use xlink:href="#MicrosoftYaHei-74" transform="translate(319.144531 0)"/>
      </g>
     </g>
    </g>
   </g>
   <g id="matplotlib.axis_2">
    <g id="ytick_1">
     <g id="line2d_6">
      <path d="M 42.815625 292.9045 
L 455.735625 292.9045 
" clip-path="url(#p48d92fe053)" style="fill: none; stroke: #b0b0b0; stroke-opacity: 0.22; stroke-width: 0.8; stroke-linecap: square"/>
     </g>
     <g id="line2d_7">
      <defs>
       <path id="m89cec9d7b2" d="M 0 0 
L -3.5 0 
" style="stroke: #000000; stroke-width: 0.8"/>
      </defs>
      <g>
       <use xlink:href="#m89cec9d7b2" x="42.815625" y="292.9045" style="stroke: #000000; stroke-width: 0.8"/>
      </g>
     </g>
     <g id="text_6">
      <!-- 0.0 -->
      <g transform="translate(21.679687 296.901375) scale(0.1 -0.1)">
       <defs>
        <path id="MicrosoftYaHei-30" d="M 284 2325 
Q 284 3606 709 4264 
Q 1134 4922 1941 4922 
Q 3478 4922 3478 2441 
Q 3478 1216 3045 567 
Q 2613 -81 1831 -81 
Q 1094 -81 689 534 
Q 284 1150 284 2325 
z
M 909 2353 
Q 909 425 1888 425 
Q 2850 425 2850 2384 
Q 2850 4413 1906 4413 
Q 909 4413 909 2353 
z
" transform="scale(0.015625)"/>
        <path id="MicrosoftYaHei-2e" d="M 372 322 
Q 372 491 487 606 
Q 603 722 775 722 
Q 950 722 1065 605 
Q 1181 488 1181 322 
Q 1181 159 1065 42 
Q 950 -75 772 -75 
Q 600 -75 486 42 
Q 372 159 372 322 
z
" transform="scale(0.015625)"/>
       </defs>
       <use xlink:href="#MicrosoftYaHei-30"/>
       <use xlink:href="#MicrosoftYaHei-2e" transform="translate(58.642578 0)"/>
       <use xlink:href="#MicrosoftYaHei-30" transform="translate(82.714844 0)"/>
      </g>
     </g>
    </g>
    <g id="ytick_2">
     <g id="line2d_8">
      <path d="M 42.815625 242.2165 
L 455.735625 242.2165 
" clip-path="url(#p48d92fe053)" style="fill: none; stroke: #b0b0b0; stroke-opacity: 0.22; stroke-width: 0.8; stroke-linecap: square"/>
     </g>
     <g id="line2d_9">
      <g>
       <use xlink:href="#m89cec9d7b2" x="42.815625" y="242.2165" style="stroke: #000000; stroke-width: 0.8"/>
      </g>
     </g>
     <g id="text_7">
      <!-- 0.2 -->
      <g transform="translate(21.679687 246.213375) scale(0.1 -0.1)">
       <defs>
        <path id="MicrosoftYaHei-32" d="M 2666 3572 
Q 2666 3963 2419 4186 
Q 2172 4409 1747 4409 
Q 1447 4409 1140 4256 
Q 834 4103 569 3819 
L 569 4413 
Q 806 4659 1107 4790 
Q 1409 4922 1816 4922 
Q 2472 4922 2872 4570 
Q 3272 4219 3272 3619 
Q 3272 3084 3026 2693 
Q 2781 2303 2188 1894 
Q 1581 1475 1376 1294 
Q 1172 1113 1090 947 
Q 1009 781 1009 544 
L 3416 544 
L 3416 0 
L 372 0 
L 372 241 
Q 372 659 486 951 
Q 600 1244 862 1520 
Q 1125 1797 1681 2184 
Q 2250 2584 2458 2886 
Q 2666 3188 2666 3572 
z
" transform="scale(0.015625)"/>
       </defs>
       <use xlink:href="#MicrosoftYaHei-30"/>
       <use xlink:href="#MicrosoftYaHei-2e" transform="translate(58.642578 0)"/>
       <use xlink:href="#MicrosoftYaHei-32" transform="translate(82.714844 0)"/>
      </g>
     </g>
    </g>
    <g id="ytick_3">
     <g id="line2d_10">
      <path d="M 42.815625 191.5285 
L 455.735625 191.5285 
" clip-path="url(#p48d92fe053)" style="fill: none; stroke: #b0b0b0; stroke-opacity: 0.22; stroke-width: 0.8; stroke-linecap: square"/>
     </g>
     <g id="line2d_11">
      <g>
       <use xlink:href="#m89cec9d7b2" x="42.815625" y="191.5285" style="stroke: #000000; stroke-width: 0.8"/>
      </g>
     </g>
     <g id="text_8">
      <!-- 0.4 -->
      <g transform="translate(21.679687 195.525375) scale(0.1 -0.1)">
       <defs>
        <path id="MicrosoftYaHei-34" d="M 2906 4841 
L 2906 1644 
L 3631 1644 
L 3631 1138 
L 2906 1138 
L 2906 0 
L 2313 0 
L 2313 1138 
L 53 1138 
L 53 1616 
Q 656 2294 1265 3178 
Q 1875 4063 2272 4841 
L 2906 4841 
z
M 741 1644 
L 2313 1644 
L 2313 3950 
Q 1988 3366 1616 2817 
Q 1244 2269 741 1644 
z
" transform="scale(0.015625)"/>
       </defs>
       <use xlink:href="#MicrosoftYaHei-30"/>
       <use xlink:href="#MicrosoftYaHei-2e" transform="translate(58.642578 0)"/>
       <use xlink:href="#MicrosoftYaHei-34" transform="translate(82.714844 0)"/>
      </g>
     </g>
    </g>
    <g id="ytick_4">
     <g id="line2d_12">
      <path d="M 42.815625 140.8405 
L 455.735625 140.8405 
" clip-path="url(#p48d92fe053)" style="fill: none; stroke: #b0b0b0; stroke-opacity: 0.22; stroke-width: 0.8; stroke-linecap: square"/>
     </g>
     <g id="line2d_13">
      <g>
       <use xlink:href="#m89cec9d7b2" x="42.815625" y="140.8405" style="stroke: #000000; stroke-width: 0.8"/>
      </g>
     </g>
     <g id="text_9">
      <!-- 0.6 -->
      <g transform="translate(21.679687 144.837375) scale(0.1 -0.1)">
       <defs>
        <path id="MicrosoftYaHei-36" d="M 3181 4219 
Q 2803 4413 2391 4413 
Q 1763 4413 1381 3866 
Q 1000 3319 994 2372 
L 1009 2372 
Q 1353 3038 2106 3038 
Q 2734 3038 3109 2628 
Q 3484 2219 3484 1541 
Q 3484 831 3051 375 
Q 2619 -81 1947 -81 
Q 1209 -81 789 495 
Q 369 1072 369 2131 
Q 369 3413 920 4167 
Q 1472 4922 2372 4922 
Q 2888 4922 3181 4781 
L 3181 4219 
z
M 1031 1584 
Q 1031 1106 1286 765 
Q 1541 425 1963 425 
Q 2363 425 2613 719 
Q 2863 1013 2863 1475 
Q 2863 1975 2627 2253 
Q 2391 2531 1956 2531 
Q 1544 2531 1287 2250 
Q 1031 1969 1031 1584 
z
" transform="scale(0.015625)"/>
       </defs>
       <use xlink:href="#MicrosoftYaHei-30"/>
       <use xlink:href="#MicrosoftYaHei-2e" transform="translate(58.642578 0)"/>
       <use xlink:href="#MicrosoftYaHei-36" transform="translate(82.714844 0)"/>
      </g>
     </g>
    </g>
    <g id="ytick_5">
     <g id="line2d_14">
      <path d="M 42.815625 90.1525 
L 455.735625 90.1525 
" clip-path="url(#p48d92fe053)" style="fill: none; stroke: #b0b0b0; stroke-opacity: 0.22; stroke-width: 0.8; stroke-linecap: square"/>
     </g>
     <g id="line2d_15">
      <g>
       <use xlink:href="#m89cec9d7b2" x="42.815625" y="90.1525" style="stroke: #000000; stroke-width: 0.8"/>
      </g>
     </g>
     <g id="text_10">
      <!-- 0.8 -->
      <g transform="translate(21.679687 94.149375) scale(0.1 -0.1)">
       <defs>
        <path id="MicrosoftYaHei-38" d="M 306 1350 
Q 306 1769 556 2122 
Q 806 2475 1200 2625 
Q 884 2803 700 3081 
Q 516 3359 516 3684 
Q 516 4028 692 4312 
Q 869 4597 1183 4759 
Q 1497 4922 1875 4922 
Q 2256 4922 2572 4761 
Q 2888 4600 3063 4315 
Q 3238 4031 3238 3684 
Q 3238 3366 3058 3086 
Q 2878 2806 2559 2625 
Q 2953 2472 3200 2119 
Q 3447 1766 3447 1350 
Q 3447 938 3250 611 
Q 3053 284 2690 103 
Q 2328 -78 1875 -78 
Q 1425 -78 1065 103 
Q 706 284 506 612 
Q 306 941 306 1350 
z
M 906 1378 
Q 906 947 1172 687 
Q 1438 428 1878 428 
Q 2309 428 2582 692 
Q 2856 956 2856 1378 
Q 2856 1778 2579 2051 
Q 2303 2325 1878 2325 
Q 1456 2325 1181 2058 
Q 906 1791 906 1378 
z
M 1081 3634 
Q 1081 3309 1312 3076 
Q 1544 2844 1878 2844 
Q 2206 2844 2445 3078 
Q 2684 3313 2684 3634 
Q 2684 3963 2454 4191 
Q 2225 4419 1878 4419 
Q 1534 4419 1307 4195 
Q 1081 3972 1081 3634 
z
" transform="scale(0.015625)"/>
       </defs>
       <use xlink:href="#MicrosoftYaHei-30"/>
       <use xlink:href="#MicrosoftYaHei-2e" transform="translate(58.642578 0)"/>
       <use xlink:href="#MicrosoftYaHei-38" transform="translate(82.714844 0)"/>
      </g>
     </g>
    </g>
    <g id="ytick_6">
     <g id="line2d_16">
      <path d="M 42.815625 39.4645 
L 455.735625 39.4645 
" clip-path="url(#p48d92fe053)" style="fill: none; stroke: #b0b0b0; stroke-opacity: 0.22; stroke-width: 0.8; stroke-linecap: square"/>
     </g>
     <g id="line2d_17">
      <g>
       <use xlink:href="#m89cec9d7b2" x="42.815625" y="39.4645" style="stroke: #000000; stroke-width: 0.8"/>
      </g>
     </g>
     <g id="text_11">
      <!-- 1.0 -->
      <g transform="translate(21.679687 43.461375) scale(0.1 -0.1)">
       <defs>
        <path id="MicrosoftYaHei-31" d="M 1781 0 
L 1781 4141 
Q 1638 3997 1295 3819 
Q 953 3641 663 3569 
L 663 4169 
Q 1047 4275 1484 4508 
Q 1922 4741 2156 4947 
L 2388 4947 
L 2388 0 
L 1781 0 
z
" transform="scale(0.015625)"/>
       </defs>
       <use xlink:href="#MicrosoftYaHei-31"/>
       <use xlink:href="#MicrosoftYaHei-2e" transform="translate(58.642578 0)"/>
       <use xlink:href="#MicrosoftYaHei-30" transform="translate(82.714844 0)"/>
      </g>
     </g>
    </g>
    <g id="text_12">
     <!-- private_exact -->
     <g transform="translate(15.126562 190.971937) rotate(-90) scale(0.1 -0.1)">
      <defs>
       <path id="MicrosoftYaHei-76" d="M 3331 3456 
L 1963 0 
L 1344 0 
L 44 3456 
L 713 3456 
L 1556 988 
Q 1659 691 1678 491 
L 1694 491 
Q 1725 753 1803 975 
L 2688 3456 
L 3331 3456 
z
" transform="scale(0.015625)"/>
       <path id="MicrosoftYaHei-5f" d="M 2869 -1634 
L 0 -1634 
L 0 -1231 
L 2869 -1231 
L 2869 -1634 
z
" transform="scale(0.015625)"/>
      </defs>
      <use xlink:href="#MicrosoftYaHei-70"/>
      <use xlink:href="#MicrosoftYaHei-72" transform="translate(63.867188 0)"/>
      <use xlink:href="#MicrosoftYaHei-69" transform="translate(102.050781 0)"/>
      <use xlink:href="#MicrosoftYaHei-76" transform="translate(128.662109 0)"/>
      <use xlink:href="#MicrosoftYaHei-61" transform="translate(179.152344 0)"/>
      <use xlink:href="#MicrosoftYaHei-74" transform="translate(234.425781 0)"/>
      <use xlink:href="#MicrosoftYaHei-65" transform="translate(270.806641 0)"/>
      <use xlink:href="#MicrosoftYaHei-5f" transform="translate(327.544922 0)"/>
      <use xlink:href="#MicrosoftYaHei-65" transform="translate(372.369141 0)"/>
      <use xlink:href="#MicrosoftYaHei-78" transform="translate(429.107422 0)"/>
      <use xlink:href="#MicrosoftYaHei-61" transform="translate(479.791016 0)"/>
      <use xlink:href="#MicrosoftYaHei-63" transform="translate(535.064453 0)"/>
      <use xlink:href="#MicrosoftYaHei-74" transform="translate(585.210938 0)"/>
     </g>
    </g>
   </g>
   <g id="patch_33">
    <path d="M 42.815625 292.9045 
L 42.815625 26.7925 
" style="fill: none; stroke: #000000; stroke-width: 0.8; stroke-linejoin: miter; stroke-linecap: square"/>
   </g>
   <g id="patch_34">
    <path d="M 455.735625 292.9045 
L 455.735625 26.7925 
" style="fill: none; stroke: #000000; stroke-width: 0.8; stroke-linejoin: miter; stroke-linecap: square"/>
   </g>
   <g id="patch_35">
    <path d="M 42.815625 292.9045 
L 455.735625 292.9045 
" style="fill: none; stroke: #000000; stroke-width: 0.8; stroke-linejoin: miter; stroke-linecap: square"/>
   </g>
   <g id="patch_36">
    <path d="M 42.815625 26.7925 
L 455.735625 26.7925 
" style="fill: none; stroke: #000000; stroke-width: 0.8; stroke-linejoin: miter; stroke-linecap: square"/>
   </g>
   <g id="text_13">
    <!-- Attack-type leakage breakdown -->
    <g transform="translate(158.54625 16.7925) scale(0.12 -0.12)">
     <defs>
      <path id="MicrosoftYaHei-41" d="M 4428 0 
L 3738 0 
L 3244 1325 
L 1228 1325 
L 763 0 
L 72 0 
L 1916 4841 
L 2584 4841 
L 4428 0 
z
M 3050 1872 
L 2319 3884 
Q 2284 3981 2244 4222 
L 2228 4222 
Q 2194 4003 2150 3884 
L 1425 1872 
L 3050 1872 
z
" transform="scale(0.015625)"/>
      <path id="MicrosoftYaHei-6b" d="M 3484 0 
L 2650 0 
L 1172 1666 
L 1159 1666 
L 1159 0 
L 547 0 
L 547 5116 
L 1159 5116 
L 1159 1872 
L 1172 1872 
L 2575 3456 
L 3363 3456 
L 1800 1794 
L 3484 0 
z
" transform="scale(0.015625)"/>
      <path id="MicrosoftYaHei-2d" d="M 2328 1681 
L 488 1681 
L 488 2153 
L 2328 2153 
L 2328 1681 
z
" transform="scale(0.015625)"/>
      <path id="MicrosoftYaHei-20" transform="scale(0.015625)"/>
      <path id="MicrosoftYaHei-67" d="M 3547 291 
Q 3547 -1628 1684 -1628 
Q 1041 -1628 566 -1388 
L 566 -797 
Q 1144 -1119 1675 -1119 
Q 2934 -1119 2934 206 
L 2934 572 
L 2922 572 
Q 2528 -81 1747 -81 
Q 1097 -81 706 384 
Q 316 850 316 1619 
Q 316 2503 747 3020 
Q 1178 3538 1897 3538 
Q 2588 3538 2922 2988 
L 2934 2988 
L 2934 3456 
L 3547 3456 
L 3547 291 
z
M 2934 2056 
Q 2938 2456 2666 2743 
Q 2394 3031 1997 3031 
Q 1497 3031 1219 2664 
Q 941 2297 941 1656 
Q 941 1106 1209 765 
Q 1478 425 1922 425 
Q 2369 425 2653 750 
Q 2938 1075 2934 1575 
L 2934 2056 
z
" transform="scale(0.015625)"/>
      <path id="MicrosoftYaHei-62" d="M 1159 488 
L 1159 0 
L 547 0 
L 547 5116 
L 1159 5116 
L 1159 2859 
L 1172 2859 
Q 1578 3538 2359 3538 
Q 3009 3538 3392 3080 
Q 3775 2622 3775 1828 
Q 3775 953 3345 436 
Q 2916 -81 2200 -81 
Q 1525 -81 1172 488 
L 1159 488 
z
M 1156 1422 
Q 1156 1003 1428 714 
Q 1700 425 2109 425 
Q 2597 425 2872 800 
Q 3147 1175 3147 1838 
Q 3147 2384 2890 2707 
Q 2634 3031 2191 3031 
Q 1741 3031 1448 2709 
Q 1156 2388 1156 1891 
L 1156 1422 
z
" transform="scale(0.015625)"/>
      <path id="MicrosoftYaHei-77" d="M 4975 3456 
L 3944 0 
L 3306 0 
L 2619 2425 
Q 2575 2581 2563 2756 
L 2550 2756 
Q 2541 2625 2478 2431 
L 1734 0 
L 1116 0 
L 78 3456 
L 716 3456 
L 1406 894 
Q 1438 778 1453 578 
L 1478 578 
Q 1491 750 1538 903 
L 2281 3456 
L 2847 3456 
L 3572 891 
Q 3603 778 3622 572 
L 3650 572 
Q 3656 709 3706 891 
L 4381 3456 
L 4975 3456 
z
" transform="scale(0.015625)"/>
     </defs>
     <use xlink:href="#MicrosoftYaHei-41"/>
     <use xlink:href="#MicrosoftYaHei-74" transform="translate(68.986328 0)"/>
     <use xlink:href="#MicrosoftYaHei-74" transform="translate(106.242188 0)"/>
     <use xlink:href="#MicrosoftYaHei-61" transform="translate(143.498047 0)"/>
     <use xlink:href="#MicrosoftYaHei-63" transform="translate(198.771484 0)"/>
     <use xlink:href="#MicrosoftYaHei-6b" transform="translate(248.917969 0)"/>
     <use xlink:href="#MicrosoftYaHei-2d" transform="translate(295.986328 0)"/>
     <use xlink:href="#MicrosoftYaHei-74" transform="translate(339.248047 0)"/>
     <use xlink:href="#MicrosoftYaHei-79" transform="translate(376.503906 0)"/>
     <use xlink:href="#MicrosoftYaHei-70" transform="translate(429.433594 0)"/>
     <use xlink:href="#MicrosoftYaHei-65" transform="translate(493.300781 0)"/>
     <use xlink:href="#MicrosoftYaHei-20" transform="translate(550.039062 0)"/>
     <use xlink:href="#MicrosoftYaHei-6c" transform="translate(579.628906 0)"/>
     <use xlink:href="#MicrosoftYaHei-65" transform="translate(606.240234 0)"/>
     <use xlink:href="#MicrosoftYaHei-61" transform="translate(662.978516 0)"/>
     <use xlink:href="#MicrosoftYaHei-6b" transform="translate(718.251953 0)"/>
     <use xlink:href="#MicrosoftYaHei-61" transform="translate(772.695312 0)"/>
     <use xlink:href="#MicrosoftYaHei-67" transform="translate(827.96875 0)"/>
     <use xlink:href="#MicrosoftYaHei-65" transform="translate(891.933594 0)"/>
     <use xlink:href="#MicrosoftYaHei-20" transform="translate(948.671875 0)"/>
     <use xlink:href="#MicrosoftYaHei-62" transform="translate(978.261719 0)"/>
     <use xlink:href="#MicrosoftYaHei-72" transform="translate(1042.128906 0)"/>
     <use xlink:href="#MicrosoftYaHei-65" transform="translate(1078.9375 0)"/>
     <use xlink:href="#MicrosoftYaHei-61" transform="translate(1135.675781 0)"/>
     <use xlink:href="#MicrosoftYaHei-6b" transform="translate(1190.949219 0)"/>
     <use xlink:href="#MicrosoftYaHei-64" transform="translate(1244.017578 0)"/>
     <use xlink:href="#MicrosoftYaHei-6f" transform="translate(1307.982422 0)"/>
     <use xlink:href="#MicrosoftYaHei-77" transform="translate(1371.556641 0)"/>
     <use xlink:href="#MicrosoftYaHei-6e" transform="translate(1450.511719 0)"/>
    </g>
   </g>
  </g>
 </g>
 <defs>
  <clipPath id="p48d92fe053">
   <rect x="42.815625" y="26.7925" width="412.92" height="266.112"/>
  </clipPath>
 </defs>
</svg>
