<?xml version="1.0" encoding="utf-8" standalone="no"?>
<!DOCTYPE svg PUBLIC "-//W3C//DTD SVG 1.1//EN"
  "http://www.w3.org/Graphics/SVG/1.1/DTD/svg11.dtd">
<svg xmlns:xlink="http://www.w3.org/1999/xlink" width="507.633438pt" height="368.668305pt" viewBox="0 0 507.633438 368.668305" xmlns="http://www.w3.org/2000/svg" version="1.1">
 <metadata>
  <rdf:RDF xmlns:dc="http://purl.org/dc/elements/1.1/" xmlns:cc="http://creativecommons.org/ns#" xmlns:rdf="http://www.w3.org/1999/02/22-rdf-syntax-ns#">
   <cc:Work>
    <dc:type rdf:resource="http://purl.org/dc/dcmitype/StillImage"/>
    <dc:date>2026-06-23T12:08:37.836471</dc:date>
    <dc:format>image/svg+xml</dc:format>
    <dc:creator>
     <cc:Agent>
      <dc:title>Matplotlib v3.10.1, https://matplotlib.org/</dc:title>
     </cc:Agent>
    </dc:creator>
   </cc:Work>
  </rdf:RDF>
 </metadata>
 <defs>
  <style type="text/css">*{stroke-linejoin: round; stroke-linecap: butt}</style>
 </defs>
 <g id="figure_1">
  <g id="patch_1">
   <path d="M 0 368.668305 
L 507.633438 368.668305 
L 507.633438 0 
L 0 0 
z
" style="fill: #ffffff"/>
  </g>
  <g id="axes_1">
   <g id="patch_2">
    <path d="M 42.873438 293.045125 
L 500.433438 293.045125 
L 500.433438 26.933125 
L 42.873438 26.933125 
z
" style="fill: #ffffff"/>
   </g>
   <g id="patch_3">
    <path d="M 63.671619 293.045125 
L 89.998432 293.045125 
L 89.998432 287.722885 
L 63.671619 287.722885 
L 63.671619 293.045125 
z
" clip-path="url(#p54add163ae)" style="fill: none; stroke-dasharray: 3.7,1.6; stroke-dashoffset: 0; stroke: #9a9a9a; stroke-linejoin: miter"/>
   </g>
   <g id="patch_4">
    <path d="M 326.939744 293.045125 
L 353.266556 293.045125 
L 353.266556 287.722885 
L 326.939744 287.722885 
L 326.939744 293.045125 
z
" clip-path="url(#p54add163ae)" style="fill: none; stroke-dasharray: 3.7,1.6; stroke-dashoffset: 0; stroke: #9a9a9a; stroke-linejoin: miter"/>
   </g>
   <g id="patch_5">
    <path d="M 95.263794 293.045125 
L 121.590607 293.045125 
L 121.590607 287.722885 
L 95.263794 287.722885 
L 95.263794 293.045125 
z
" clip-path="url(#p54add163ae)" style="fill: none; stroke-dasharray: 3.7,1.6; stroke-dashoffset: 0; stroke: #9a9a9a; stroke-linejoin: miter"/>
   </g>
   <g id="patch_6">
    <path d="M 358.531919 293.045125 
L 384.858731 293.045125 
L 384.858731 287.722885 
L 358.531919 287.722885 
L 358.531919 293.045125 
z
" clip-path="url(#p54add163ae)" style="fill: none; stroke-dasharray: 3.7,1.6; stroke-dashoffset: 0; stroke: #9a9a9a; stroke-linejoin: miter"/>
   </g>
   <g id="patch_7">
    <path d="M 126.855969 293.045125 
L 153.182782 293.045125 
L 153.182782 287.722885 
L 126.855969 287.722885 
L 126.855969 293.045125 
z
" clip-path="url(#p54add163ae)" style="fill: none; stroke-dasharray: 3.7,1.6; stroke-dashoffset: 0; stroke: #9a9a9a; stroke-linejoin: miter"/>
   </g>
   <g id="patch_8">
    <path d="M 390.124093 293.045125 
L 416.450906 293.045125 
L 416.450906 287.722885 
L 390.124093 287.722885 
L 390.124093 293.045125 
z
" clip-path="url(#p54add163ae)" style="fill: none; stroke-dasharray: 3.7,1.6; stroke-dashoffset: 0; stroke: #9a9a9a; stroke-linejoin: miter"/>
   </g>
   <g id="patch_9">
    <path d="M 158.448144 293.045125 
L 184.774956 293.045125 
L 184.774956 287.722885 
L 158.448144 287.722885 
L 158.448144 293.045125 
z
" clip-path="url(#p54add163ae)" style="fill: none; stroke-dasharray: 3.7,1.6; stroke-dashoffset: 0; stroke: #9a9a9a; stroke-linejoin: miter"/>
   </g>
   <g id="patch_10">
    <path d="M 421.716268 293.045125 
L 448.043081 293.045125 
L 448.043081 287.722885 
L 421.716268 287.722885 
L 421.716268 293.045125 
z
" clip-path="url(#p54add163ae)" style="fill: none; stroke-dasharray: 3.7,1.6; stroke-dashoffset: 0; stroke: #9a9a9a; stroke-linejoin: miter"/>
   </g>
   <g id="patch_11">
    <path d="M 190.040319 293.045125 
L 216.367131 293.045125 
L 216.367131 287.722885 
L 190.040319 287.722885 
L 190.040319 293.045125 
z
" clip-path="url(#p54add163ae)" style="fill: none; stroke-dasharray: 3.7,1.6; stroke-dashoffset: 0; stroke: #9a9a9a; stroke-linejoin: miter"/>
   </g>
   <g id="patch_12">
    <path d="M 453.308443 293.045125 
L 479.635256 293.045125 
L 479.635256 287.722885 
L 453.308443 287.722885 
L 453.308443 293.045125 
z
" clip-path="url(#p54add163ae)" style="fill: none; stroke-dasharray: 3.7,1.6; stroke-dashoffset: 0; stroke: #9a9a9a; stroke-linejoin: miter"/>
   </g>
   <g id="matplotlib.axis_1">
    <g id="xtick_1">
     <g id="line2d_1">
      <defs>
       <path id="mbe66eb33af" d="M 0 0 
L 0 3.5 
" style="stroke: #000000; stroke-width: 0.8"/>
      </defs>
      <g>
       <use xlink:href="#mbe66eb33af" x="140.019375" y="293.045125" style="stroke: #000000; stroke-width: 0.8"/>
      </g>
     </g>
     <g id="text_1">
      <!-- CounterFact -->
      <g transform="translate(111.17875 308.038875) scale(0.1 -0.1)">
       <defs>
        <path id="MicrosoftYaHei-43" d="M 3938 200 
Q 3403 -81 2597 -81 
Q 1556 -81 934 580 
Q 313 1241 313 2328 
Q 313 3497 1013 4209 
Q 1713 4922 2791 4922 
Q 3484 4922 3938 4725 
L 3938 4072 
Q 3419 4359 2797 4359 
Q 1988 4359 1478 3820 
Q 969 3281 969 2366 
Q 969 1497 1444 986 
Q 1919 475 2688 475 
Q 3406 475 3938 800 
L 3938 200 
z
" transform="scale(0.015625)"/>
        <path id="MicrosoftYaHei-6f" d="M 316 1691 
Q 316 2547 794 3042 
Q 1272 3538 2091 3538 
Q 2869 3538 3311 3061 
Q 3753 2584 3753 1744 
Q 3753 925 3281 422 
Q 2809 -81 2016 -81 
Q 1241 -81 778 406 
Q 316 894 316 1691 
z
M 941 1709 
Q 941 1113 1242 769 
Q 1544 425 2053 425 
Q 2578 425 2853 761 
Q 3128 1097 3128 1725 
Q 3128 2356 2853 2693 
Q 2578 3031 2053 3031 
Q 1538 3031 1239 2678 
Q 941 2325 941 1709 
z
" transform="scale(0.015625)"/>
        <path id="MicrosoftYaHei-75" d="M 3400 0 
L 2784 0 
L 2784 544 
L 2772 544 
Q 2425 -81 1706 -81 
Q 478 -81 478 1388 
L 478 3456 
L 1084 3456 
L 1084 1478 
Q 1084 425 1891 425 
Q 2291 425 2537 720 
Q 2784 1016 2784 1466 
L 2784 3456 
L 3400 3456 
L 3400 0 
z
" transform="scale(0.015625)"/>
        <path id="MicrosoftYaHei-6e" d="M 3469 0 
L 2859 0 
L 2859 1966 
Q 2859 3031 2081 3031 
Q 1678 3031 1418 2731 
Q 1159 2431 1159 1972 
L 1159 0 
L 547 0 
L 547 3456 
L 1159 3456 
L 1159 2884 
L 1172 2884 
Q 1563 3538 2306 3538 
Q 2875 3538 3172 3173 
Q 3469 2809 3469 2113 
L 3469 0 
z
" transform="scale(0.015625)"/>
        <path id="MicrosoftYaHei-74" d="M 2206 34 
Q 2006 -75 1666 -75 
Q 738 -75 738 953 
L 738 2950 
L 144 2950 
L 144 3456 
L 738 3456 
L 738 4288 
L 1347 4481 
L 1347 3456 
L 2206 3456 
L 2206 2950 
L 1347 2950 
L 1347 1063 
Q 1347 722 1462 575 
Q 1578 428 1847 428 
Q 2053 428 2206 544 
L 2206 34 
z
" transform="scale(0.015625)"/>
        <path id="MicrosoftYaHei-65" d="M 3363 1572 
L 944 1572 
Q 959 1019 1246 717 
Q 1534 416 2050 416 
Q 2631 416 3116 788 
L 3116 241 
Q 2659 -81 1906 -81 
Q 1156 -81 736 394 
Q 316 869 316 1713 
Q 316 2506 777 3022 
Q 1238 3538 1922 3538 
Q 2600 3538 2981 3102 
Q 3363 2666 3363 1881 
L 3363 1572 
z
M 2750 2063 
Q 2747 2531 2528 2787 
Q 2309 3044 1913 3044 
Q 1547 3044 1280 2772 
Q 1013 2500 944 2063 
L 2750 2063 
z
" transform="scale(0.015625)"/>
        <path id="MicrosoftYaHei-72" d="M 2400 2850 
Q 2247 2959 1978 2959 
Q 1622 2959 1390 2626 
Q 1159 2294 1159 1750 
L 1159 0 
L 547 0 
L 547 3456 
L 1159 3456 
L 1159 2753 
L 1172 2753 
Q 1434 3516 2078 3516 
Q 2288 3516 2400 3469 
L 2400 2850 
z
" transform="scale(0.015625)"/>
        <path id="MicrosoftYaHei-46" d="M 3119 4284 
L 1250 4284 
L 1250 2666 
L 2981 2666 
L 2981 2116 
L 1250 2116 
L 1250 0 
L 625 0 
L 625 4841 
L 3119 4841 
L 3119 4284 
z
" transform="scale(0.015625)"/>
        <path id="MicrosoftYaHei-61" d="M 628 3216 
Q 1144 3538 1819 3538 
Q 3069 3538 3069 2225 
L 3069 0 
L 2463 0 
L 2463 534 
L 2447 534 
Q 2088 -81 1388 -81 
Q 884 -81 587 191 
Q 291 463 291 925 
Q 291 1894 1438 2053 
L 2463 2197 
Q 2463 3044 1763 3044 
Q 1141 3044 628 2625 
L 628 3216 
z
M 1653 1625 
Q 1228 1569 1067 1412 
Q 906 1256 906 975 
Q 906 728 1081 572 
Q 1256 416 1544 416 
Q 1944 416 2203 697 
Q 2463 978 2463 1403 
L 2463 1734 
L 1653 1625 
z
" transform="scale(0.015625)"/>
        <path id="MicrosoftYaHei-63" d="M 2934 156 
Q 2538 -81 1978 -81 
Q 1228 -81 772 400 
Q 316 881 316 1647 
Q 316 2497 808 3017 
Q 1300 3538 2125 3538 
Q 2600 3538 2938 3369 
L 2938 2763 
Q 2572 3031 2125 3031 
Q 1600 3031 1270 2667 
Q 941 2303 941 1697 
Q 941 1100 1252 762 
Q 1563 425 2091 425 
Q 2538 425 2934 719 
L 2934 156 
z
" transform="scale(0.015625)"/>
       </defs>
       <use xlink:href="#MicrosoftYaHei-43"/>
       <use xlink:href="#MicrosoftYaHei-6f" transform="translate(66.894531 0)"/>
       <use xlink:href="#MicrosoftYaHei-75" transform="translate(130.46875 0)"/>
       <use xlink:href="#MicrosoftYaHei-6e" transform="translate(192.089844 0)"/>
       <use xlink:href="#MicrosoftYaHei-74" transform="translate(253.710938 0)"/>
       <use xlink:href="#MicrosoftYaHei-65" transform="translate(290.091797 0)"/>
       <use xlink:href="#MicrosoftYaHei-72" transform="translate(346.830078 0)"/>
       <use xlink:href="#MicrosoftYaHei-46" transform="translate(385.013672 0)"/>
       <use xlink:href="#MicrosoftYaHei-61" transform="translate(434.138672 0)"/>
       <use xlink:href="#MicrosoftYaHei-63" transform="translate(489.412109 0)"/>
       <use xlink:href="#MicrosoftYaHei-74" transform="translate(539.558594 0)"/>
      </g>
     </g>
    </g>
    <g id="xtick_2">
     <g id="line2d_2">
      <g>
       <use xlink:href="#mbe66eb33af" x="403.2875" y="293.045125" style="stroke: #000000; stroke-width: 0.8"/>
      </g>
     </g>
     <g id="text_2">
      <!-- zsRE -->
      <g transform="translate(392.500781 308.038875) scale(0.1 -0.1)">
       <defs>
        <path id="MicrosoftYaHei-7a" d="M 2978 0 
L 109 0 
L 109 203 
L 2119 2950 
L 297 2950 
L 297 3456 
L 2991 3456 
L 2991 3256 
L 994 506 
L 2978 506 
L 2978 0 
z
" transform="scale(0.015625)"/>
        <path id="MicrosoftYaHei-73" d="M 353 747 
Q 816 413 1350 413 
Q 2066 413 2066 881 
Q 2066 1081 1909 1211 
Q 1753 1341 1275 1519 
Q 700 1750 528 1976 
Q 356 2203 356 2525 
Q 356 2984 745 3261 
Q 1134 3538 1703 3538 
Q 2144 3538 2522 3384 
L 2522 2794 
Q 2134 3044 1644 3044 
Q 1350 3044 1165 2916 
Q 981 2788 981 2578 
Q 981 2372 1114 2256 
Q 1247 2141 1703 1959 
Q 2281 1744 2484 1512 
Q 2688 1281 2688 941 
Q 2688 466 2298 192 
Q 1909 -81 1291 -81 
Q 753 -81 353 122 
L 353 747 
z
" transform="scale(0.015625)"/>
        <path id="MicrosoftYaHei-52" d="M 4159 0 
L 3422 0 
L 2619 1344 
Q 2378 1747 2178 1892 
Q 1978 2038 1700 2038 
L 1250 2038 
L 1250 0 
L 625 0 
L 625 4841 
L 2100 4841 
Q 2806 4841 3206 4500 
Q 3606 4159 3606 3547 
Q 3606 2541 2531 2241 
L 2531 2225 
Q 2731 2141 2876 1984 
Q 3022 1828 3253 1450 
L 4159 0 
z
M 1250 4294 
L 1250 2584 
L 1988 2584 
Q 2416 2584 2683 2834 
Q 2950 3084 2950 3491 
Q 2950 3869 2706 4081 
Q 2463 4294 1997 4294 
L 1250 4294 
z
" transform="scale(0.015625)"/>
        <path id="MicrosoftYaHei-45" d="M 3228 0 
L 625 0 
L 625 4841 
L 3119 4841 
L 3119 4284 
L 1250 4284 
L 1250 2734 
L 2981 2734 
L 2981 2181 
L 1250 2181 
L 1250 553 
L 3228 553 
L 3228 0 
z
" transform="scale(0.015625)"/>
       </defs>
       <use xlink:href="#MicrosoftYaHei-7a"/>
       <use xlink:href="#MicrosoftYaHei-73" transform="translate(49.169922 0)"/>
       <use xlink:href="#MicrosoftYaHei-52" transform="translate(95.458984 0)"/>
       <use xlink:href="#MicrosoftYaHei-45" transform="translate(160.742188 0)"/>
      </g>
     </g>
    </g>
   </g>
   <g id="matplotlib.axis_2">
    <g id="ytick_1">
     <g id="line2d_3">
      <path d="M 42.873438 293.045125 
L 500.433438 293.045125 
" clip-path="url(#p54add163ae)" style="fill: none; stroke: #b0b0b0; stroke-opacity: 0.22; stroke-width: 0.8; stroke-linecap: square"/>
     </g>
     <g id="line2d_4">
      <defs>
       <path id="m1be431bb90" d="M 0 0 
L -3.5 0 
" style="stroke: #000000; stroke-width: 0.8"/>
      </defs>
      <g>
       <use xlink:href="#m1be431bb90" x="42.873438" y="293.045125" style="stroke: #000000; stroke-width: 0.8"/>
      </g>
     </g>
     <g id="text_3">
      <!-- 0.0 -->
      <g transform="translate(21.7375 297.042) scale(0.1 -0.1)">
       <defs>
        <path id="MicrosoftYaHei-30" d="M 284 2325 
Q 284 3606 709 4264 
Q 1134 4922 1941 4922 
Q 3478 4922 3478 2441 
Q 3478 1216 3045 567 
Q 2613 -81 1831 -81 
Q 1094 -81 689 534 
Q 284 1150 284 2325 
z
M 909 2353 
Q 909 425 1888 425 
Q 2850 425 2850 2384 
Q 2850 4413 1906 4413 
Q 909 4413 909 2353 
z
" transform="scale(0.015625)"/>
        <path id="MicrosoftYaHei-2e" d="M 372 322 
Q 372 491 487 606 
Q 603 722 775 722 
Q 950 722 1065 605 
Q 1181 488 1181 322 
Q 1181 159 1065 42 
Q 950 -75 772 -75 
Q 600 -75 486 42 
Q 372 159 372 322 
z
" transform="scale(0.015625)"/>
       </defs>
       <use xlink:href="#MicrosoftYaHei-30"/>
       <use xlink:href="#MicrosoftYaHei-2e" transform="translate(58.642578 0)"/>
       <use xlink:href="#MicrosoftYaHei-30" transform="translate(82.714844 0)"/>
      </g>
     </g>
    </g>
    <g id="ytick_2">
     <g id="line2d_5">
      <path d="M 42.873438 239.822725 
L 500.433438 239.822725 
" clip-path="url(#p54add163ae)" style="fill: none; stroke: #b0b0b0; stroke-opacity: 0.22; stroke-width: 0.8; stroke-linecap: square"/>
     </g>
     <g id="line2d_6">
      <g>
       <use xlink:href="#m1be431bb90" x="42.873438" y="239.822725" style="stroke: #000000; stroke-width: 0.8"/>
      </g>
     </g>
     <g id="text_4">
      <!-- 0.2 -->
      <g transform="translate(21.7375 243.8196) scale(0.1 -0.1)">
       <defs>
        <path id="MicrosoftYaHei-32" d="M 2666 3572 
Q 2666 3963 2419 4186 
Q 2172 4409 1747 4409 
Q 1447 4409 1140 4256 
Q 834 4103 569 3819 
L 569 4413 
Q 806 4659 1107 4790 
Q 1409 4922 1816 4922 
Q 2472 4922 2872 4570 
Q 3272 4219 3272 3619 
Q 3272 3084 3026 2693 
Q 2781 2303 2188 1894 
Q 1581 1475 1376 1294 
Q 1172 1113 1090 947 
Q 1009 781 1009 544 
L 3416 544 
L 3416 0 
L 372 0 
L 372 241 
Q 372 659 486 951 
Q 600 1244 862 1520 
Q 1125 1797 1681 2184 
Q 2250 2584 2458 2886 
Q 2666 3188 2666 3572 
z
" transform="scale(0.015625)"/>
       </defs>
       <use xlink:href="#MicrosoftYaHei-30"/>
       <use xlink:href="#MicrosoftYaHei-2e" transform="translate(58.642578 0)"/>
       <use xlink:href="#MicrosoftYaHei-32" transform="translate(82.714844 0)"/>
      </g>
     </g>
    </g>
    <g id="ytick_3">
     <g id="line2d_7">
      <path d="M 42.873438 186.600325 
L 500.433438 186.600325 
" clip-path="url(#p54add163ae)" style="fill: none; stroke: #b0b0b0; stroke-opacity: 0.22; stroke-width: 0.8; stroke-linecap: square"/>
     </g>
     <g id="line2d_8">
      <g>
       <use xlink:href="#m1be431bb90" x="42.873438" y="186.600325" style="stroke: #000000; stroke-width: 0.8"/>
      </g>
     </g>
     <g id="text_5">
      <!-- 0.4 -->
      <g transform="translate(21.7375 190.5972) scale(0.1 -0.1)">
       <defs>
        <path id="MicrosoftYaHei-34" d="M 2906 4841 
L 2906 1644 
L 3631 1644 
L 3631 1138 
L 2906 1138 
L 2906 0 
L 2313 0 
L 2313 1138 
L 53 1138 
L 53 1616 
Q 656 2294 1265 3178 
Q 1875 4063 2272 4841 
L 2906 4841 
z
M 741 1644 
L 2313 1644 
L 2313 3950 
Q 1988 3366 1616 2817 
Q 1244 2269 741 1644 
z
" transform="scale(0.015625)"/>
       </defs>
       <use xlink:href="#MicrosoftYaHei-30"/>
       <use xlink:href="#MicrosoftYaHei-2e" transform="translate(58.642578 0)"/>
       <use xlink:href="#MicrosoftYaHei-34" transform="translate(82.714844 0)"/>
      </g>
     </g>
    </g>
    <g id="ytick_4">
     <g id="line2d_9">
      <path d="M 42.873438 133.377925 
L 500.433438 133.377925 
" clip-path="url(#p54add163ae)" style="fill: none; stroke: #b0b0b0; stroke-opacity: 0.22; stroke-width: 0.8; stroke-linecap: square"/>
     </g>
     <g id="line2d_10">
      <g>
       <use xlink:href="#m1be431bb90" x="42.873438" y="133.377925" style="stroke: #000000; stroke-width: 0.8"/>
      </g>
     </g>
     <g id="text_6">
      <!-- 0.6 -->
      <g transform="translate(21.7375 137.3748) scale(0.1 -0.1)">
       <defs>
        <path id="MicrosoftYaHei-36" d="M 3181 4219 
Q 2803 4413 2391 4413 
Q 1763 4413 1381 3866 
Q 1000 3319 994 2372 
L 1009 2372 
Q 1353 3038 2106 3038 
Q 2734 3038 3109 2628 
Q 3484 2219 3484 1541 
Q 3484 831 3051 375 
Q 2619 -81 1947 -81 
Q 1209 -81 789 495 
Q 369 1072 369 2131 
Q 369 3413 920 4167 
Q 1472 4922 2372 4922 
Q 2888 4922 3181 4781 
L 3181 4219 
z
M 1031 1584 
Q 1031 1106 1286 765 
Q 1541 425 1963 425 
Q 2363 425 2613 719 
Q 2863 1013 2863 1475 
Q 2863 1975 2627 2253 
Q 2391 2531 1956 2531 
Q 1544 2531 1287 2250 
Q 1031 1969 1031 1584 
z
" transform="scale(0.015625)"/>
       </defs>
       <use xlink:href="#MicrosoftYaHei-30"/>
       <use xlink:href="#MicrosoftYaHei-2e" transform="translate(58.642578 0)"/>
       <use xlink:href="#MicrosoftYaHei-36" transform="translate(82.714844 0)"/>
      </g>
     </g>
    </g>
    <g id="ytick_5">
     <g id="line2d_11">
      <path d="M 42.873438 80.155525 
L 500.433438 80.155525 
" clip-path="url(#p54add163ae)" style="fill: none; stroke: #b0b0b0; stroke-opacity: 0.22; stroke-width: 0.8; stroke-linecap: square"/>
     </g>
     <g id="line2d_12">
      <g>
       <use xlink:href="#m1be431bb90" x="42.873438" y="80.155525" style="stroke: #000000; stroke-width: 0.8"/>
      </g>
     </g>
     <g id="text_7">
      <!-- 0.8 -->
      <g transform="translate(21.7375 84.1524) scale(0.1 -0.1)">
       <defs>
        <path id="MicrosoftYaHei-38" d="M 306 1350 
Q 306 1769 556 2122 
Q 806 2475 1200 2625 
Q 884 2803 700 3081 
Q 516 3359 516 3684 
Q 516 4028 692 4312 
Q 869 4597 1183 4759 
Q 1497 4922 1875 4922 
Q 2256 4922 2572 4761 
Q 2888 4600 3063 4315 
Q 3238 4031 3238 3684 
Q 3238 3366 3058 3086 
Q 2878 2806 2559 2625 
Q 2953 2472 3200 2119 
Q 3447 1766 3447 1350 
Q 3447 938 3250 611 
Q 3053 284 2690 103 
Q 2328 -78 1875 -78 
Q 1425 -78 1065 103 
Q 706 284 506 612 
Q 306 941 306 1350 
z
M 906 1378 
Q 906 947 1172 687 
Q 1438 428 1878 428 
Q 2309 428 2582 692 
Q 2856 956 2856 1378 
Q 2856 1778 2579 2051 
Q 2303 2325 1878 2325 
Q 1456 2325 1181 2058 
Q 906 1791 906 1378 
z
M 1081 3634 
Q 1081 3309 1312 3076 
Q 1544 2844 1878 2844 
Q 2206 2844 2445 3078 
Q 2684 3313 2684 3634 
Q 2684 3963 2454 4191 
Q 2225 4419 1878 4419 
Q 1534 4419 1307 4195 
Q 1081 3972 1081 3634 
z
" transform="scale(0.015625)"/>
       </defs>
       <use xlink:href="#MicrosoftYaHei-30"/>
       <use xlink:href="#MicrosoftYaHei-2e" transform="translate(58.642578 0)"/>
       <use xlink:href="#MicrosoftYaHei-38" transform="translate(82.714844 0)"/>
      </g>
     </g>
    </g>
    <g id="ytick_6">
     <g id="line2d_13">
      <path d="M 42.873438 26.933125 
L 500.433438 26.933125 
" clip-path="url(#p54add163ae)" style="fill: none; stroke: #b0b0b0; stroke-opacity: 0.22; stroke-width: 0.8; stroke-linecap: square"/>
     </g>
     <g id="line2d_14">
      <g>
       <use xlink:href="#m1be431bb90" x="42.873438" y="26.933125" style="stroke: #000000; stroke-width: 0.8"/>
      </g>
     </g>
     <g id="text_8">
      <!-- 1.0 -->
      <g transform="translate(21.7375 30.93) scale(0.1 -0.1)">
       <defs>
        <path id="MicrosoftYaHei-31" d="M 1781 0 
L 1781 4141 
Q 1638 3997 1295 3819 
Q 953 3641 663 3569 
L 663 4169 
Q 1047 4275 1484 4508 
Q 1922 4741 2156 4947 
L 2388 4947 
L 2388 0 
L 1781 0 
z
" transform="scale(0.015625)"/>
       </defs>
       <use xlink:href="#MicrosoftYaHei-31"/>
       <use xlink:href="#MicrosoftYaHei-2e" transform="translate(58.642578 0)"/>
       <use xlink:href="#MicrosoftYaHei-30" transform="translate(82.714844 0)"/>
      </g>
     </g>
    </g>
    <g id="text_9">
     <!-- Reliability / Locality -->
     <g transform="translate(15.19375 206.340687) rotate(-90) scale(0.1 -0.1)">
      <defs>
       <path id="MicrosoftYaHei-6c" d="M 544 0 
L 544 5116 
L 1156 5116 
L 1156 0 
L 544 0 
z
" transform="scale(0.015625)"/>
       <path id="MicrosoftYaHei-69" d="M 472 4675 
Q 472 4838 583 4948 
Q 694 5059 856 5059 
Q 1022 5059 1136 4950 
Q 1250 4841 1250 4675 
Q 1250 4513 1136 4405 
Q 1022 4297 856 4297 
Q 691 4297 581 4405 
Q 472 4513 472 4675 
z
M 544 0 
L 544 3456 
L 1156 3456 
L 1156 0 
L 544 0 
z
" transform="scale(0.015625)"/>
       <path id="MicrosoftYaHei-62" d="M 1159 488 
L 1159 0 
L 547 0 
L 547 5116 
L 1159 5116 
L 1159 2859 
L 1172 2859 
Q 1578 3538 2359 3538 
Q 3009 3538 3392 3080 
Q 3775 2622 3775 1828 
Q 3775 953 3345 436 
Q 2916 -81 2200 -81 
Q 1525 -81 1172 488 
L 1159 488 
z
M 1156 1422 
Q 1156 1003 1428 714 
Q 1700 425 2109 425 
Q 2597 425 2872 800 
Q 3147 1175 3147 1838 
Q 3147 2384 2890 2707 
Q 2634 3031 2191 3031 
Q 1741 3031 1448 2709 
Q 1156 2388 1156 1891 
L 1156 1422 
z
" transform="scale(0.015625)"/>
       <path id="MicrosoftYaHei-79" d="M 3359 3456 
L 1791 -522 
Q 1353 -1628 556 -1628 
Q 328 -1628 166 -1578 
L 166 -1041 
Q 344 -1109 509 -1109 
Q 925 -1109 1131 -622 
L 1397 6 
L 41 3456 
L 719 3456 
L 1622 859 
L 1697 575 
L 1713 575 
Q 1731 672 1788 853 
L 2731 3456 
L 3359 3456 
z
" transform="scale(0.015625)"/>
       <path id="MicrosoftYaHei-20" transform="scale(0.015625)"/>
       <path id="MicrosoftYaHei-2f" d="M 2791 4841 
L 469 -803 
L -103 -803 
L 2219 4841 
L 2791 4841 
z
" transform="scale(0.015625)"/>
       <path id="MicrosoftYaHei-4c" d="M 3178 0 
L 625 0 
L 625 4841 
L 1250 4841 
L 1250 553 
L 3178 553 
L 3178 0 
z
" transform="scale(0.015625)"/>
      </defs>
      <use xlink:href="#MicrosoftYaHei-52"/>
      <use xlink:href="#MicrosoftYaHei-65" transform="translate(62.283203 0)"/>
      <use xlink:href="#MicrosoftYaHei-6c" transform="translate(119.021484 0)"/>
      <use xlink:href="#MicrosoftYaHei-69" transform="translate(145.632812 0)"/>
      <use xlink:href="#MicrosoftYaHei-61" transform="translate(172.244141 0)"/>
      <use xlink:href="#MicrosoftYaHei-62" transform="translate(227.517578 0)"/>
      <use xlink:href="#MicrosoftYaHei-69" transform="translate(291.384766 0)"/>
      <use xlink:href="#MicrosoftYaHei-6c" transform="translate(317.996094 0)"/>
      <use xlink:href="#MicrosoftYaHei-69" transform="translate(344.607422 0)"/>
      <use xlink:href="#MicrosoftYaHei-74" transform="translate(371.21875 0)"/>
      <use xlink:href="#MicrosoftYaHei-79" transform="translate(408.474609 0)"/>
      <use xlink:href="#MicrosoftYaHei-20" transform="translate(461.404297 0)"/>
      <use xlink:href="#MicrosoftYaHei-2f" transform="translate(490.994141 0)"/>
      <use xlink:href="#MicrosoftYaHei-20" transform="translate(533.71875 0)"/>
      <use xlink:href="#MicrosoftYaHei-4c" transform="translate(563.308594 0)"/>
      <use xlink:href="#MicrosoftYaHei-6f" transform="translate(614.626953 0)"/>
      <use xlink:href="#MicrosoftYaHei-63" transform="translate(678.201172 0)"/>
      <use xlink:href="#MicrosoftYaHei-61" transform="translate(728.347656 0)"/>
      <use xlink:href="#MicrosoftYaHei-6c" transform="translate(783.621094 0)"/>
      <use xlink:href="#MicrosoftYaHei-69" transform="translate(810.232422 0)"/>
      <use xlink:href="#MicrosoftYaHei-74" transform="translate(836.84375 0)"/>
      <use xlink:href="#MicrosoftYaHei-79" transform="translate(874.099609 0)"/>
     </g>
    </g>
   </g>
   <g id="patch_13">
    <path d="M 42.873438 293.045125 
L 42.873438 26.933125 
" style="fill: none; stroke: #000000; stroke-width: 0.8; stroke-linejoin: miter; stroke-linecap: square"/>
   </g>
   <g id="patch_14">
    <path d="M 500.433438 293.045125 
L 500.433438 26.933125 
" style="fill: none; stroke: #000000; stroke-width: 0.8; stroke-linejoin: miter; stroke-linecap: square"/>
   </g>
   <g id="patch_15">
    <path d="M 42.873438 293.045125 
L 500.433438 293.045125 
" style="fill: none; stroke: #000000; stroke-width: 0.8; stroke-linejoin: miter; stroke-linecap: square"/>
   </g>
   <g id="patch_16">
    <path d="M 42.873438 26.933125 
L 500.433438 26.933125 
" style="fill: none; stroke: #000000; stroke-width: 0.8; stroke-linejoin: miter; stroke-linecap: square"/>
   </g>
   <g id="text_10">
    <!-- Qwen public benchmark pending -->
    <g style="fill: #666666" transform="translate(183.994609 149.681025) scale(0.11 -0.11)">
     <defs>
      <path id="MicrosoftYaHei-51" d="M 313 2363 
Q 313 3534 947 4228 
Q 1581 4922 2666 4922 
Q 3675 4922 4290 4244 
Q 4906 3566 4906 2478 
Q 4906 1300 4275 609 
Q 4125 447 3953 322 
L 5313 -653 
L 4284 -653 
L 3366 28 
Q 3009 -81 2588 -81 
Q 1556 -81 934 597 
Q 313 1275 313 2363 
z
M 969 2413 
Q 969 1534 1417 1004 
Q 1866 475 2588 475 
Q 3363 475 3805 983 
Q 4247 1491 4247 2403 
Q 4247 3341 3814 3850 
Q 3381 4359 2628 4359 
Q 1888 4359 1428 3821 
Q 969 3284 969 2413 
z
" transform="scale(0.015625)"/>
      <path id="MicrosoftYaHei-77" d="M 4975 3456 
L 3944 0 
L 3306 0 
L 2619 2425 
Q 2575 2581 2563 2756 
L 2550 2756 
Q 2541 2625 2478 2431 
L 1734 0 
L 1116 0 
L 78 3456 
L 716 3456 
L 1406 894 
Q 1438 778 1453 578 
L 1478 578 
Q 1491 750 1538 903 
L 2281 3456 
L 2847 3456 
L 3572 891 
Q 3603 778 3622 572 
L 3650 572 
Q 3656 709 3706 891 
L 4381 3456 
L 4975 3456 
z
" transform="scale(0.015625)"/>
      <path id="MicrosoftYaHei-70" d="M 1159 488 
L 1159 -1591 
L 547 -1591 
L 547 3456 
L 1159 3456 
L 1159 2859 
L 1172 2859 
Q 1578 3538 2359 3538 
Q 3022 3538 3398 3073 
Q 3775 2609 3775 1828 
Q 3775 966 3348 442 
Q 2922 -81 2200 -81 
Q 1534 -81 1172 488 
L 1159 488 
z
M 1156 1425 
Q 1156 1003 1428 714 
Q 1700 425 2109 425 
Q 2597 425 2872 800 
Q 3147 1175 3147 1838 
Q 3147 2397 2890 2714 
Q 2634 3031 2191 3031 
Q 1738 3031 1447 2709 
Q 1156 2388 1156 1884 
L 1156 1425 
z
" transform="scale(0.015625)"/>
      <path id="MicrosoftYaHei-68" d="M 3466 0 
L 2856 0 
L 2856 1988 
Q 2856 3031 2081 3031 
Q 1684 3031 1421 2726 
Q 1159 2422 1159 1959 
L 1159 0 
L 547 0 
L 547 5116 
L 1159 5116 
L 1159 2888 
L 1172 2888 
Q 1569 3538 2300 3538 
Q 3466 3538 3466 2128 
L 3466 0 
z
" transform="scale(0.015625)"/>
      <path id="MicrosoftYaHei-6d" d="M 5522 0 
L 4909 0 
L 4909 1984 
Q 4909 2547 4734 2789 
Q 4559 3031 4159 3031 
Q 3822 3031 3581 2715 
Q 3341 2400 3341 1969 
L 3341 0 
L 2728 0 
L 2728 2047 
Q 2728 3031 1969 3031 
Q 1619 3031 1389 2731 
Q 1159 2431 1159 1966 
L 1159 0 
L 547 0 
L 547 3456 
L 1159 3456 
L 1159 2909 
L 1172 2909 
Q 1541 3538 2250 3538 
Q 2597 3538 2862 3347 
Q 3128 3156 3231 2831 
Q 3616 3538 4381 3538 
Q 5522 3538 5522 2131 
L 5522 0 
z
" transform="scale(0.015625)"/>
      <path id="MicrosoftYaHei-6b" d="M 3484 0 
L 2650 0 
L 1172 1666 
L 1159 1666 
L 1159 0 
L 547 0 
L 547 5116 
L 1159 5116 
L 1159 1872 
L 1172 1872 
L 2575 3456 
L 3363 3456 
L 1800 1794 
L 3484 0 
z
" transform="scale(0.015625)"/>
      <path id="MicrosoftYaHei-64" d="M 3547 0 
L 2934 0 
L 2934 575 
L 2922 575 
Q 2544 -81 1747 -81 
Q 1091 -81 703 386 
Q 316 853 316 1647 
Q 316 2503 753 3020 
Q 1191 3538 1897 3538 
Q 2603 3538 2922 2988 
L 2934 2988 
L 2934 5116 
L 3547 5116 
L 3547 0 
z
M 2938 2056 
Q 2938 2472 2664 2751 
Q 2391 3031 1991 3031 
Q 1503 3031 1222 2667 
Q 941 2303 941 1675 
Q 941 1097 1211 761 
Q 1481 425 1931 425 
Q 2375 425 2656 754 
Q 2938 1084 2938 1575 
L 2938 2056 
z
" transform="scale(0.015625)"/>
      <path id="MicrosoftYaHei-67" d="M 3547 291 
Q 3547 -1628 1684 -1628 
Q 1041 -1628 566 -1388 
L 566 -797 
Q 1144 -1119 1675 -1119 
Q 2934 -1119 2934 206 
L 2934 572 
L 2922 572 
Q 2528 -81 1747 -81 
Q 1097 -81 706 384 
Q 316 850 316 1619 
Q 316 2503 747 3020 
Q 1178 3538 1897 3538 
Q 2588 3538 2922 2988 
L 2934 2988 
L 2934 3456 
L 3547 3456 
L 3547 291 
z
M 2934 2056 
Q 2938 2456 2666 2743 
Q 2394 3031 1997 3031 
Q 1497 3031 1219 2664 
Q 941 2297 941 1656 
Q 941 1106 1209 765 
Q 1478 425 1922 425 
Q 2369 425 2653 750 
Q 2938 1075 2934 1575 
L 2934 2056 
z
" transform="scale(0.015625)"/>
     </defs>
     <use xlink:href="#MicrosoftYaHei-51"/>
     <use xlink:href="#MicrosoftYaHei-77" transform="translate(81.494141 0)"/>
     <use xlink:href="#MicrosoftYaHei-65" transform="translate(159.949219 0)"/>
     <use xlink:href="#MicrosoftYaHei-6e" transform="translate(216.6875 0)"/>
     <use xlink:href="#MicrosoftYaHei-20" transform="translate(278.308594 0)"/>
     <use xlink:href="#MicrosoftYaHei-70" transform="translate(307.898438 0)"/>
     <use xlink:href="#MicrosoftYaHei-75" transform="translate(371.765625 0)"/>
     <use xlink:href="#MicrosoftYaHei-62" transform="translate(433.386719 0)"/>
     <use xlink:href="#MicrosoftYaHei-6c" transform="translate(497.253906 0)"/>
     <use xlink:href="#MicrosoftYaHei-69" transform="translate(523.865234 0)"/>
     <use xlink:href="#MicrosoftYaHei-63" transform="translate(550.476562 0)"/>
     <use xlink:href="#MicrosoftYaHei-20" transform="translate(600.623047 0)"/>
     <use xlink:href="#MicrosoftYaHei-62" transform="translate(630.212891 0)"/>
     <use xlink:href="#MicrosoftYaHei-65" transform="translate(694.080078 0)"/>
     <use xlink:href="#MicrosoftYaHei-6e" transform="translate(750.818359 0)"/>
     <use xlink:href="#MicrosoftYaHei-63" transform="translate(812.439453 0)"/>
     <use xlink:href="#MicrosoftYaHei-68" transform="translate(862.585938 0)"/>
     <use xlink:href="#MicrosoftYaHei-6d" transform="translate(924.158203 0)"/>
     <use xlink:href="#MicrosoftYaHei-61" transform="translate(1017.859375 0)"/>
     <use xlink:href="#MicrosoftYaHei-72" transform="translate(1073.132812 0)"/>
     <use xlink:href="#MicrosoftYaHei-6b" transform="translate(1111.316406 0)"/>
     <use xlink:href="#MicrosoftYaHei-20" transform="translate(1165.759766 0)"/>
     <use xlink:href="#MicrosoftYaHei-70" transform="translate(1195.349609 0)"/>
     <use xlink:href="#MicrosoftYaHei-65" transform="translate(1259.216797 0)"/>
     <use xlink:href="#MicrosoftYaHei-6e" transform="translate(1315.955078 0)"/>
     <use xlink:href="#MicrosoftYaHei-64" transform="translate(1377.576172 0)"/>
     <use xlink:href="#MicrosoftYaHei-69" transform="translate(1441.541016 0)"/>
     <use xlink:href="#MicrosoftYaHei-6e" transform="translate(1468.152344 0)"/>
     <use xlink:href="#MicrosoftYaHei-67" transform="translate(1529.773438 0)"/>
    </g>
   </g>
   <g id="text_11">
    <!-- Public factual editing migration validation -->
    <g transform="translate(151.644063 16.933125) scale(0.12 -0.12)">
     <defs>
      <path id="MicrosoftYaHei-50" d="M 1250 1809 
L 1250 0 
L 625 0 
L 625 4841 
L 2000 4841 
Q 2784 4841 3217 4462 
Q 3650 4084 3650 3381 
Q 3650 2669 3144 2226 
Q 2638 1784 1878 1809 
L 1250 1809 
z
M 1250 4291 
L 1250 2359 
L 1828 2359 
Q 2400 2359 2697 2617 
Q 2994 2875 2994 3356 
Q 2994 4291 1888 4291 
L 1250 4291 
z
" transform="scale(0.015625)"/>
      <path id="MicrosoftYaHei-66" d="M 2319 4594 
Q 2147 4684 1947 4684 
Q 1372 4684 1372 3972 
L 1372 3456 
L 2181 3456 
L 2181 2950 
L 1372 2950 
L 1372 0 
L 766 0 
L 766 2950 
L 175 2950 
L 175 3456 
L 766 3456 
L 766 4000 
Q 766 4556 1086 4873 
Q 1406 5191 1900 5191 
Q 2163 5191 2319 5131 
L 2319 4594 
z
" transform="scale(0.015625)"/>
      <path id="MicrosoftYaHei-76" d="M 3331 3456 
L 1963 0 
L 1344 0 
L 44 3456 
L 713 3456 
L 1556 988 
Q 1659 691 1678 491 
L 1694 491 
Q 1725 753 1803 975 
L 2688 3456 
L 3331 3456 
z
" transform="scale(0.015625)"/>
     </defs>
     <use xlink:href="#MicrosoftYaHei-50"/>
     <use xlink:href="#MicrosoftYaHei-75" transform="translate(61.181641 0)"/>
     <use xlink:href="#MicrosoftYaHei-62" transform="translate(122.802734 0)"/>
     <use xlink:href="#MicrosoftYaHei-6c" transform="translate(186.669922 0)"/>
     <use xlink:href="#MicrosoftYaHei-69" transform="translate(213.28125 0)"/>
     <use xlink:href="#MicrosoftYaHei-63" transform="translate(239.892578 0)"/>
     <use xlink:href="#MicrosoftYaHei-20" transform="translate(290.039062 0)"/>
     <use xlink:href="#MicrosoftYaHei-66" transform="translate(319.628906 0)"/>
     <use xlink:href="#MicrosoftYaHei-61" transform="translate(354.296875 0)"/>
     <use xlink:href="#MicrosoftYaHei-63" transform="translate(409.570312 0)"/>
     <use xlink:href="#MicrosoftYaHei-74" transform="translate(459.716797 0)"/>
     <use xlink:href="#MicrosoftYaHei-75" transform="translate(496.972656 0)"/>
     <use xlink:href="#MicrosoftYaHei-61" transform="translate(558.59375 0)"/>
     <use xlink:href="#MicrosoftYaHei-6c" transform="translate(613.867188 0)"/>
     <use xlink:href="#MicrosoftYaHei-20" transform="translate(640.478516 0)"/>
     <use xlink:href="#MicrosoftYaHei-65" transform="translate(670.068359 0)"/>
     <use xlink:href="#MicrosoftYaHei-64" transform="translate(726.806641 0)"/>
     <use xlink:href="#MicrosoftYaHei-69" transform="translate(790.771484 0)"/>
     <use xlink:href="#MicrosoftYaHei-74" transform="translate(817.382812 0)"/>
     <use xlink:href="#MicrosoftYaHei-69" transform="translate(854.638672 0)"/>
     <use xlink:href="#MicrosoftYaHei-6e" transform="translate(881.25 0)"/>
     <use xlink:href="#MicrosoftYaHei-67" transform="translate(942.871094 0)"/>
     <use xlink:href="#MicrosoftYaHei-20" transform="translate(1006.835938 0)"/>
     <use xlink:href="#MicrosoftYaHei-6d" transform="translate(1036.425781 0)"/>
     <use xlink:href="#MicrosoftYaHei-69" transform="translate(1130.126953 0)"/>
     <use xlink:href="#MicrosoftYaHei-67" transform="translate(1156.738281 0)"/>
     <use xlink:href="#MicrosoftYaHei-72" transform="translate(1220.703125 0)"/>
     <use xlink:href="#MicrosoftYaHei-61" transform="translate(1258.886719 0)"/>
     <use xlink:href="#MicrosoftYaHei-74" transform="translate(1314.160156 0)"/>
     <use xlink:href="#MicrosoftYaHei-69" transform="translate(1351.416016 0)"/>
     <use xlink:href="#MicrosoftYaHei-6f" transform="translate(1378.027344 0)"/>
     <use xlink:href="#MicrosoftYaHei-6e" transform="translate(1441.601562 0)"/>
     <use xlink:href="#MicrosoftYaHei-20" transform="translate(1503.222656 0)"/>
     <use xlink:href="#MicrosoftYaHei-76" transform="translate(1532.8125 0)"/>
     <use xlink:href="#MicrosoftYaHei-61" transform="translate(1583.302734 0)"/>
     <use xlink:href="#MicrosoftYaHei-6c" transform="translate(1638.576172 0)"/>
     <use xlink:href="#MicrosoftYaHei-69" transform="translate(1665.1875 0)"/>
     <use xlink:href="#MicrosoftYaHei-64" transform="translate(1691.798828 0)"/>
     <use xlink:href="#MicrosoftYaHei-61" transform="translate(1755.763672 0)"/>
     <use xlink:href="#MicrosoftYaHei-74" transform="translate(1811.037109 0)"/>
     <use xlink:href="#MicrosoftYaHei-69" transform="translate(1848.292969 0)"/>
     <use xlink:href="#MicrosoftYaHei-6f" transform="translate(1874.904297 0)"/>
     <use xlink:href="#MicrosoftYaHei-6e" transform="translate(1938.478516 0)"/>
    </g>
   </g>
   <g id="legend_1">
    <g id="patch_17">
     <path d="M 160.434687 343.895805 
L 176.434687 343.895805 
L 176.434687 338.295805 
L 160.434687 338.295805 
L 160.434687 343.895805 
z
" style="fill: none; stroke-dasharray: 3.7,1.6; stroke-dashoffset: 0; stroke: #9a9a9a; stroke-linejoin: miter"/>
    </g>
    <g id="text_12">
     <!-- ROME -->
     <g transform="translate(182.834688 343.895805) scale(0.08 -0.08)">
      <defs>
       <path id="MicrosoftYaHei-4f" d="M 313 2363 
Q 313 3534 947 4228 
Q 1581 4922 2666 4922 
Q 3675 4922 4290 4244 
Q 4906 3566 4906 2478 
Q 4906 1300 4275 609 
Q 3644 -81 2588 -81 
Q 1556 -81 934 597 
Q 313 1275 313 2363 
z
M 969 2413 
Q 969 1534 1417 1004 
Q 1866 475 2588 475 
Q 3363 475 3805 983 
Q 4247 1491 4247 2403 
Q 4247 3341 3814 3850 
Q 3381 4359 2628 4359 
Q 1888 4359 1428 3821 
Q 969 3284 969 2413 
z
" transform="scale(0.015625)"/>
       <path id="MicrosoftYaHei-4d" d="M 5003 0 
L 5003 3206 
Q 5003 3603 5050 4159 
L 5034 4159 
Q 4953 3809 4891 3672 
L 3294 0 
L 2947 0 
L 1353 3644 
Q 1297 3769 1209 4159 
L 1191 4159 
Q 1222 3822 1222 3178 
L 1222 0 
L 625 0 
L 625 4841 
L 1472 4841 
L 2900 1522 
Q 3063 1141 3116 928 
L 3138 928 
Q 3300 1375 3366 1534 
L 4819 4841 
L 5625 4841 
L 5625 0 
L 5003 0 
z
" transform="scale(0.015625)"/>
      </defs>
      <use xlink:href="#MicrosoftYaHei-52"/>
      <use xlink:href="#MicrosoftYaHei-4f" transform="translate(64.158203 0)"/>
      <use xlink:href="#MicrosoftYaHei-4d" transform="translate(145.652344 0)"/>
      <use xlink:href="#MicrosoftYaHei-45" transform="translate(243.357422 0)"/>
     </g>
    </g>
    <g id="patch_18">
     <path d="M 160.434687 356.279555 
L 176.434687 356.279555 
L 176.434687 350.679555 
L 160.434687 350.679555 
L 160.434687 356.279555 
z
" style="fill: none; stroke-dasharray: 3.7,1.6; stroke-dashoffset: 0; stroke: #9a9a9a; stroke-linejoin: miter"/>
    </g>
    <g id="text_13">
     <!-- FT -->
     <g transform="translate(182.834688 356.279555) scale(0.08 -0.08)">
      <defs>
       <path id="MicrosoftYaHei-54" d="M 3550 4284 
L 2153 4284 
L 2153 0 
L 1525 0 
L 1525 4284 
L 134 4284 
L 134 4841 
L 3550 4841 
L 3550 4284 
z
" transform="scale(0.015625)"/>
      </defs>
      <use xlink:href="#MicrosoftYaHei-46"/>
      <use xlink:href="#MicrosoftYaHei-54" transform="translate(53.875 0)"/>
     </g>
    </g>
    <g id="patch_19">
     <path d="M 222.702187 343.895805 
L 238.702187 343.895805 
L 238.702187 338.295805 
L 222.702187 338.295805 
L 222.702187 343.895805 
z
" style="fill: none; stroke-dasharray: 3.7,1.6; stroke-dashoffset: 0; stroke: #9a9a9a; stroke-linejoin: miter"/>
    </g>
    <g id="text_14">
     <!-- KN -->
     <g transform="translate(245.102187 343.895805) scale(0.08 -0.08)">
      <defs>
       <path id="MicrosoftYaHei-4b" d="M 4069 0 
L 3213 0 
L 1394 2200 
Q 1300 2316 1266 2381 
L 1250 2381 
L 1250 0 
L 625 0 
L 625 4841 
L 1250 4841 
L 1250 2563 
L 1266 2563 
Q 1319 2647 1394 2741 
L 3150 4841 
L 3922 4841 
L 1891 2519 
L 4069 0 
z
" transform="scale(0.015625)"/>
       <path id="MicrosoftYaHei-4e" d="M 4578 0 
L 3838 0 
L 1403 3766 
Q 1300 3925 1238 4081 
L 1219 4081 
Q 1244 3919 1244 3403 
L 1244 0 
L 625 0 
L 625 4841 
L 1409 4841 
L 3778 1141 
Q 3947 878 3978 806 
L 3991 806 
Q 3959 1013 3959 1513 
L 3959 4841 
L 4578 4841 
L 4578 0 
z
" transform="scale(0.015625)"/>
      </defs>
      <use xlink:href="#MicrosoftYaHei-4b"/>
      <use xlink:href="#MicrosoftYaHei-4e" transform="translate(63.476562 0)"/>
     </g>
    </g>
    <g id="patch_20">
     <path d="M 222.702187 356.279555 
L 238.702187 356.279555 
L 238.702187 350.679555 
L 222.702187 350.679555 
L 222.702187 356.279555 
z
" style="fill: none; stroke-dasharray: 3.7,1.6; stroke-dashoffset: 0; stroke: #9a9a9a; stroke-linejoin: miter"/>
    </g>
    <g id="text_15">
     <!-- ROME+PACE -->
     <g transform="translate(245.102187 356.279555) scale(0.08 -0.08)">
      <defs>
       <path id="MicrosoftYaHei-2b" d="M 3972 1772 
L 2613 1772 
L 2613 419 
L 2141 419 
L 2141 1772 
L 788 1772 
L 788 2250 
L 2141 2250 
L 2141 3603 
L 2613 3603 
L 2613 2250 
L 3972 2250 
L 3972 1772 
z
" transform="scale(0.015625)"/>
       <path id="MicrosoftYaHei-41" d="M 4428 0 
L 3738 0 
L 3244 1325 
L 1228 1325 
L 763 0 
L 72 0 
L 1916 4841 
L 2584 4841 
L 4428 0 
z
M 3050 1872 
L 2319 3884 
Q 2284 3981 2244 4222 
L 2228 4222 
Q 2194 4003 2150 3884 
L 1425 1872 
L 3050 1872 
z
" transform="scale(0.015625)"/>
      </defs>
      <use xlink:href="#MicrosoftYaHei-52"/>
      <use xlink:href="#MicrosoftYaHei-4f" transform="translate(64.158203 0)"/>
      <use xlink:href="#MicrosoftYaHei-4d" transform="translate(145.652344 0)"/>
      <use xlink:href="#MicrosoftYaHei-45" transform="translate(243.357422 0)"/>
      <use xlink:href="#MicrosoftYaHei-2b" transform="translate(298.337891 0)"/>
      <use xlink:href="#MicrosoftYaHei-50" transform="translate(372.507812 0)"/>
      <use xlink:href="#MicrosoftYaHei-41" transform="translate(425.314453 0)"/>
      <use xlink:href="#MicrosoftYaHei-43" transform="translate(494.300781 0)"/>
      <use xlink:href="#MicrosoftYaHei-45" transform="translate(561.195312 0)"/>
     </g>
    </g>
    <g id="patch_21">
     <path d="M 310.397187 343.895805 
L 326.397187 343.895805 
L 326.397187 338.295805 
L 310.397187 338.295805 
L 310.397187 343.895805 
z
" style="fill: none; stroke-dasharray: 3.7,1.6; stroke-dashoffset: 0; stroke: #9a9a9a; stroke-linejoin: miter"/>
    </g>
    <g id="text_16">
     <!-- ROME+CAPE -->
     <g transform="translate(332.797187 343.895805) scale(0.08 -0.08)">
      <use xlink:href="#MicrosoftYaHei-52"/>
      <use xlink:href="#MicrosoftYaHei-4f" transform="translate(64.158203 0)"/>
      <use xlink:href="#MicrosoftYaHei-4d" transform="translate(145.652344 0)"/>
      <use xlink:href="#MicrosoftYaHei-45" transform="translate(243.357422 0)"/>
      <use xlink:href="#MicrosoftYaHei-2b" transform="translate(298.337891 0)"/>
      <use xlink:href="#MicrosoftYaHei-43" transform="translate(372.507812 0)"/>
      <use xlink:href="#MicrosoftYaHei-41" transform="translate(439.402344 0)"/>
      <use xlink:href="#MicrosoftYaHei-50" transform="translate(509.763672 0)"/>
      <use xlink:href="#MicrosoftYaHei-45" transform="translate(570.945312 0)"/>
     </g>
    </g>
   </g>
  </g>
 </g>
 <defs>
  <clipPath id="p54add163ae">
   <rect x="42.873438" y="26.933125" width="457.56" height="266.112"/>
  </clipPath>
 </defs>
</svg>
