<?xml version="1.0" encoding="utf-8" standalone="no"?>
<!DOCTYPE svg PUBLIC "-//W3C//DTD SVG 1.1//EN"
  "http://www.w3.org/Graphics/SVG/1.1/DTD/svg11.dtd">
<svg xmlns:xlink="http://www.w3.org/1999/xlink" width="784.8pt" height="223.2pt" viewBox="0 0 784.8 223.2" xmlns="http://www.w3.org/2000/svg" version="1.1">
 <metadata>
  <rdf:RDF xmlns:dc="http://purl.org/dc/elements/1.1/" xmlns:cc="http://creativecommons.org/ns#" xmlns:rdf="http://www.w3.org/1999/02/22-rdf-syntax-ns#">
   <cc:Work>
    <dc:type rdf:resource="http://purl.org/dc/dcmitype/StillImage"/>
    <dc:date>2026-06-23T22:22:13.603566</dc:date>
    <dc:format>image/svg+xml</dc:format>
    <dc:creator>
     <cc:Agent>
      <dc:title>Matplotlib v3.10.1, https://matplotlib.org/</dc:title>
     </cc:Agent>
    </dc:creator>
   </cc:Work>
  </rdf:RDF>
 </metadata>
 <defs>
  <style type="text/css">*{stroke-linejoin: round; stroke-linecap: butt}</style>
 </defs>
 <g id="figure_1">
  <g id="patch_1">
   <path d="M 0 223.2 
L 784.8 223.2 
L 784.8 0 
L 0 0 
z
" style="fill: #ffffff"/>
  </g>
  <g id="axes_1">
   <g id="patch_2">
    <path d="M -0.504 132.48 
L 107.352 132.48 
Q 126.612 132.48 126.612 127.26 
L 126.612 70.884 
Q 126.612 65.664 107.352 65.664 
L -0.504 65.664 
Q -19.764 65.664 -19.764 70.884 
L -19.764 127.26 
Q -19.764 132.48 -0.504 132.48 
z
" clip-path="url(#p0cc7afd87b)" style="fill: #d9eaf7; stroke: #34495e; stroke-width: 1.2; stroke-linejoin: miter"/>
   </g>
   <g id="patch_3">
    <path d="M 153.576 132.48 
L 261.432 132.48 
Q 280.692 132.48 280.692 127.26 
L 280.692 70.884 
Q 280.692 65.664 261.432 65.664 
L 153.576 65.664 
Q 134.316 65.664 134.316 70.884 
L 134.316 127.26 
Q 134.316 132.48 153.576 132.48 
z
" clip-path="url(#p0cc7afd87b)" style="fill: #e7f0d9; stroke: #34495e; stroke-width: 1.2; stroke-linejoin: miter"/>
   </g>
   <g id="patch_4">
    <path d="M 307.656 132.48 
L 415.512 132.48 
Q 434.772 132.48 434.772 127.26 
L 434.772 70.884 
Q 434.772 65.664 415.512 65.664 
L 307.656 65.664 
Q 288.396 65.664 288.396 70.884 
L 288.396 127.26 
Q 288.396 132.48 307.656 132.48 
z
" clip-path="url(#p0cc7afd87b)" style="fill: #f5e6cc; stroke: #34495e; stroke-width: 1.2; stroke-linejoin: miter"/>
   </g>
   <g id="patch_5">
    <path d="M 461.736 132.48 
L 569.592 132.48 
Q 588.852 132.48 588.852 127.26 
L 588.852 70.884 
Q 588.852 65.664 569.592 65.664 
L 461.736 65.664 
Q 442.476 65.664 442.476 70.884 
L 442.476 127.26 
Q 442.476 132.48 461.736 132.48 
z
" clip-path="url(#p0cc7afd87b)" style="fill: #eadcf8; stroke: #34495e; stroke-width: 1.2; stroke-linejoin: miter"/>
   </g>
   <g id="patch_6">
    <path d="M 615.816 132.48 
L 723.672 132.48 
Q 742.932 132.48 742.932 127.26 
L 742.932 70.884 
Q 742.932 65.664 723.672 65.664 
L 615.816 65.664 
Q 596.556 65.664 596.556 70.884 
L 596.556 127.26 
Q 596.556 132.48 615.816 132.48 
z
" clip-path="url(#p0cc7afd87b)" style="fill: #f2d8d8; stroke: #34495e; stroke-width: 1.2; stroke-linejoin: miter"/>
   </g>
   <g id="patch_7">
    <path d="M 120.908294 99.072 
Q 130.462939 99.072 138.675943 99.072 
" clip-path="url(#p0cc7afd87b)" style="fill: none; stroke: #566573; stroke-width: 1.2; stroke-linecap: round"/>
    <path d="M 133.475943 96.472 
L 138.675943 99.072 
L 133.475943 101.672 
z
" clip-path="url(#p0cc7afd87b)" style="fill: #566573; stroke: #566573; stroke-width: 1.2; stroke-linecap: round"/>
   </g>
   <g id="patch_8">
    <path d="M 274.988294 99.072 
Q 284.542939 99.072 292.755943 99.072 
" clip-path="url(#p0cc7afd87b)" style="fill: none; stroke: #566573; stroke-width: 1.2; stroke-linecap: round"/>
    <path d="M 287.555943 96.472 
L 292.755943 99.072 
L 287.555943 101.672 
z
" clip-path="url(#p0cc7afd87b)" style="fill: #566573; stroke: #566573; stroke-width: 1.2; stroke-linecap: round"/>
   </g>
   <g id="patch_9">
    <path d="M 429.068294 99.072 
Q 438.622939 99.072 446.835943 99.072 
" clip-path="url(#p0cc7afd87b)" style="fill: none; stroke: #566573; stroke-width: 1.2; stroke-linecap: round"/>
    <path d="M 441.635943 96.472 
L 446.835943 99.072 
L 441.635943 101.672 
z
" clip-path="url(#p0cc7afd87b)" style="fill: #566573; stroke: #566573; stroke-width: 1.2; stroke-linecap: round"/>
   </g>
   <g id="patch_10">
    <path d="M 583.148294 99.072 
Q 592.702939 99.072 600.915943 99.072 
" clip-path="url(#p0cc7afd87b)" style="fill: none; stroke: #566573; stroke-width: 1.2; stroke-linecap: round"/>
    <path d="M 595.715943 96.472 
L 600.915943 99.072 
L 595.715943 101.672 
z
" clip-path="url(#p0cc7afd87b)" style="fill: #566573; stroke: #566573; stroke-width: 1.2; stroke-linecap: round"/>
   </g>
   <g id="text_1">
    <!-- 合成数据 -->
    <g style="fill: #1f2d3d" transform="translate(31.424 95.458156) scale(0.11 -0.11)">
     <defs>
      <path id="MicrosoftYaHei-5408" d="M 1025 1909 
L 5381 1909 
L 5381 -866 
L 4881 -866 
L 4881 -447 
L 1525 -447 
L 1525 -878 
L 1025 -878 
L 1025 1909 
z
M 3700 5234 
L 3550 5053 
Q 4594 3697 6319 3009 
Q 6125 2734 5988 2509 
Q 5481 2753 5025 3059 
L 5025 2703 
L 1369 2703 
L 1369 3016 
Q 913 2716 394 2428 
Q 269 2641 81 2897 
Q 2013 3866 3000 5234 
L 3700 5234 
z
M 4881 1453 
L 1525 1453 
L 1525 -3 
L 4881 -3 
L 4881 1453 
z
M 3219 4691 
Q 2581 3872 1550 3147 
L 4894 3147 
Q 3944 3797 3219 4691 
z
" transform="scale(0.015625)"/>
      <path id="MicrosoftYaHei-6210" d="M 2750 -347 
Q 3472 138 4038 781 
Q 3675 1703 3609 3759 
L 1250 3759 
L 1250 2809 
L 3050 2809 
Q 3013 1616 2950 803 
Q 2875 -59 2113 -59 
Q 1856 -59 1431 -34 
Q 1394 197 1331 484 
Q 1769 422 2063 422 
Q 2425 422 2469 922 
Q 2519 1497 2544 2347 
L 1247 2347 
Q 1197 175 369 -866 
Q 213 -653 44 -434 
Q 750 503 750 2528 
L 750 4222 
L 3591 4222 
Q 3569 4716 3550 5291 
L 4069 5291 
Q 4066 4850 4084 4222 
L 6238 4222 
L 6238 3759 
L 4100 3759 
Q 4163 2078 4409 1247 
Q 5016 2069 5406 3109 
L 5900 2903 
Q 5363 1631 4609 691 
Q 5069 -244 5506 -244 
Q 5666 -244 5750 47 
Q 5838 503 5888 984 
Q 6156 878 6363 809 
Q 6269 141 6156 -284 
Q 6038 -741 5631 -778 
Q 5250 -803 4900 -522 
Q 4522 -231 4256 278 
Q 3728 -291 3106 -722 
Q 2944 -534 2750 -347 
z
M 4544 4984 
L 4806 5309 
Q 5331 5009 5788 4684 
L 5488 4309 
Q 5038 4666 4544 4984 
z
" transform="scale(0.015625)"/>
      <path id="MicrosoftYaHei-6570" d="M 4175 5303 
L 4675 5228 
Q 4544 4622 4369 4097 
L 6281 4097 
L 6281 3672 
L 5888 3672 
Q 5731 1834 5088 753 
Q 5594 66 6375 -372 
Q 6175 -647 6038 -866 
Q 5275 -372 4769 309 
Q 4194 -403 3400 -928 
Q 3263 -747 3044 -534 
Q 3919 41 4463 772 
Q 3956 1647 3794 2791 
Q 3663 2559 3519 2359 
Q 3394 2541 3206 2759 
Q 3931 3803 4175 5303 
z
M 150 1697 
L 1100 1697 
Q 1238 1934 1369 2184 
L 1819 2041 
Q 1719 1866 1619 1697 
L 3150 1697 
L 3150 1291 
Q 2913 678 2431 216 
Q 2775 53 3131 -109 
L 2856 -541 
Q 2469 -322 2050 -103 
Q 1344 -609 269 -903 
Q 169 -703 56 -466 
Q 969 -259 1600 128 
Q 1063 403 475 691 
Q 675 978 863 1284 
L 150 1284 
L 150 1697 
z
M 219 3847 
L 1656 3847 
L 1656 5247 
L 2119 5247 
L 2119 3847 
L 3319 3847 
L 3319 3434 
L 2119 3434 
L 2119 3053 
L 2306 3266 
Q 2888 2841 3281 2516 
L 2981 2166 
Q 2638 2491 2119 2897 
L 2119 2184 
L 1656 2184 
L 1656 3059 
Q 1088 2466 331 2016 
Q 213 2197 63 2397 
Q 850 2822 1506 3434 
L 219 3434 
L 219 3847 
z
M 5388 3672 
L 4219 3672 
Q 4188 3591 4150 3516 
Q 4263 2191 4775 1247 
Q 5275 2159 5388 3672 
z
M 1088 834 
Q 1531 634 2000 416 
Q 2431 784 2675 1284 
L 1375 1284 
Q 1231 1053 1088 834 
z
M 3038 5091 
L 3425 4834 
Q 3081 4384 2738 4003 
Q 2594 4128 2400 4266 
Q 2725 4647 3038 5091 
z
M 381 4816 
L 738 5059 
Q 1019 4716 1319 4322 
L 931 4047 
Q 656 4453 381 4816 
z
" transform="scale(0.015625)"/>
      <path id="MicrosoftYaHei-636e" d="M 2900 1334 
L 4188 1334 
L 4188 2128 
L 2731 2128 
Q 2663 206 1844 -841 
Q 1694 -647 1506 -447 
Q 2288 516 2288 2509 
L 2288 4947 
L 5975 4947 
L 5975 3134 
L 5525 3134 
L 5525 3328 
L 2738 3328 
L 2738 2553 
L 4188 2553 
L 4188 3209 
L 4638 3209 
L 4638 2553 
L 6288 2553 
L 6288 2128 
L 4638 2128 
L 4638 1334 
L 5938 1334 
L 5938 -778 
L 5488 -778 
L 5488 -416 
L 3350 -416 
L 3350 -778 
L 2900 -778 
L 2900 1334 
z
M 100 1966 
Q 544 2088 963 2213 
L 963 3641 
L 175 3641 
L 175 4091 
L 963 4091 
L 963 5284 
L 1425 5284 
L 1425 4091 
L 2106 4091 
L 2106 3641 
L 1425 3641 
L 1425 2356 
Q 1722 2450 2006 2547 
Q 2013 2266 2044 2059 
Q 1722 1956 1425 1856 
L 1425 -34 
Q 1425 -741 806 -753 
Q 613 -759 231 -747 
Q 206 -497 156 -228 
Q 500 -266 681 -266 
Q 963 -266 963 53 
L 963 1703 
Q 534 1559 163 1428 
L 100 1966 
z
M 5525 4534 
L 2738 4534 
L 2738 3741 
L 5525 3741 
L 5525 4534 
z
M 5488 922 
L 3350 922 
L 3350 -9 
L 5488 -9 
L 5488 922 
z
" transform="scale(0.015625)"/>
     </defs>
     <use xlink:href="#MicrosoftYaHei-5408"/>
     <use xlink:href="#MicrosoftYaHei-6210" transform="translate(100 0)"/>
     <use xlink:href="#MicrosoftYaHei-6570" transform="translate(200 0)"/>
     <use xlink:href="#MicrosoftYaHei-636e" transform="translate(300 0)"/>
    </g>
    <!-- 构建 -->
    <g style="fill: #1f2d3d" transform="translate(42.424 108.744438) scale(0.11 -0.11)">
     <defs>
      <path id="MicrosoftYaHei-6784" d="M 2138 3059 
Q 2838 4047 3256 5309 
L 3738 5153 
Q 3556 4722 3388 4347 
L 6081 4347 
Q 5994 1153 5956 397 
Q 5925 -259 5656 -503 
Q 5400 -747 4731 -747 
Q 4238 -747 3700 -716 
Q 3663 -466 3594 -166 
Q 4213 -234 4713 -247 
Q 5144 -253 5294 -97 
Q 5450 34 5469 472 
Q 5513 1316 5575 3891 
L 3169 3891 
Q 2838 3241 2525 2797 
Q 2369 2916 2138 3059 
z
M 81 1359 
Q 731 2372 1000 3578 
L 125 3578 
L 125 3997 
L 1006 3997 
L 1006 5234 
L 1438 5234 
L 1438 3997 
L 2250 3997 
L 2250 3578 
L 1438 3578 
L 1438 2734 
L 1613 2916 
Q 2038 2528 2494 2091 
L 2163 1747 
Q 1775 2191 1438 2516 
L 1438 -834 
L 1006 -834 
L 1006 2384 
Q 700 1409 281 809 
Q 200 1078 81 1359 
z
M 3925 2253 
L 4306 2453 
Q 4763 1666 5250 734 
L 4806 497 
Q 4731 666 4650 834 
Q 3838 784 3050 722 
Q 2856 703 2500 628 
L 2288 1078 
Q 2488 1216 2625 1416 
Q 3138 2222 3638 3397 
L 4106 3203 
Q 3738 2391 2981 1172 
Q 3881 1197 4463 1222 
Q 4213 1741 3925 2253 
z
" transform="scale(0.015625)"/>
      <path id="MicrosoftYaHei-5efa" d="M 2075 1009 
L 3675 1009 
L 3675 1553 
L 2288 1553 
L 2288 1928 
L 3675 1928 
L 3675 2472 
L 2375 2472 
L 2375 2847 
L 3675 2847 
L 3675 3391 
L 2050 3391 
L 2050 3778 
L 3675 3778 
L 3675 4322 
L 2375 4322 
L 2375 4697 
L 3675 4697 
L 3675 5309 
L 4138 5309 
L 4138 4697 
L 5588 4697 
L 5588 3778 
L 6244 3778 
L 6244 3391 
L 5588 3391 
L 5588 2303 
L 5138 2303 
L 5138 2472 
L 4138 2472 
L 4138 1928 
L 5713 1928 
L 5713 1553 
L 4138 1553 
L 4138 1009 
L 6000 1009 
L 6000 634 
L 4138 634 
L 4138 -9 
L 3675 -9 
L 3675 634 
L 2075 634 
L 2075 1009 
z
M 600 2066 
Q 788 1303 1125 813 
Q 1459 1500 1544 2397 
L 294 2397 
L 294 2853 
L 1444 4272 
L 169 4272 
L 169 4697 
L 2019 4697 
L 2019 4272 
L 844 2822 
L 2013 2822 
L 2013 2453 
Q 1897 1294 1447 444 
Q 2128 -147 3563 -153 
Q 4750 -178 6319 -122 
Q 6213 -378 6113 -616 
Q 4681 -609 3344 -603 
Q 1950 -603 1206 47 
Q 853 -466 350 -847 
Q 250 -666 94 -441 
Q 563 -84 881 391 
Q 463 922 188 1909 
L 600 2066 
z
M 4138 2847 
L 5138 2847 
L 5138 3391 
L 4138 3391 
L 4138 2847 
z
M 5138 4322 
L 4138 4322 
L 4138 3778 
L 5138 3778 
L 5138 4322 
z
" transform="scale(0.015625)"/>
     </defs>
     <use xlink:href="#MicrosoftYaHei-6784"/>
     <use xlink:href="#MicrosoftYaHei-5efa" transform="translate(100 0)"/>
    </g>
   </g>
   <g id="text_2">
    <!-- LoRA 可控 -->
    <g style="fill: #1f2d3d" transform="translate(181.097125 95.458156) scale(0.11 -0.11)">
     <defs>
      <path id="MicrosoftYaHei-4c" d="M 3178 0 
L 625 0 
L 625 4841 
L 1250 4841 
L 1250 553 
L 3178 553 
L 3178 0 
z
" transform="scale(0.015625)"/>
      <path id="MicrosoftYaHei-6f" d="M 316 1691 
Q 316 2547 794 3042 
Q 1272 3538 2091 3538 
Q 2869 3538 3311 3061 
Q 3753 2584 3753 1744 
Q 3753 925 3281 422 
Q 2809 -81 2016 -81 
Q 1241 -81 778 406 
Q 316 894 316 1691 
z
M 941 1709 
Q 941 1113 1242 769 
Q 1544 425 2053 425 
Q 2578 425 2853 761 
Q 3128 1097 3128 1725 
Q 3128 2356 2853 2693 
Q 2578 3031 2053 3031 
Q 1538 3031 1239 2678 
Q 941 2325 941 1709 
z
" transform="scale(0.015625)"/>
      <path id="MicrosoftYaHei-52" d="M 4159 0 
L 3422 0 
L 2619 1344 
Q 2378 1747 2178 1892 
Q 1978 2038 1700 2038 
L 1250 2038 
L 1250 0 
L 625 0 
L 625 4841 
L 2100 4841 
Q 2806 4841 3206 4500 
Q 3606 4159 3606 3547 
Q 3606 2541 2531 2241 
L 2531 2225 
Q 2731 2141 2876 1984 
Q 3022 1828 3253 1450 
L 4159 0 
z
M 1250 4294 
L 1250 2584 
L 1988 2584 
Q 2416 2584 2683 2834 
Q 2950 3084 2950 3491 
Q 2950 3869 2706 4081 
Q 2463 4294 1997 4294 
L 1250 4294 
z
" transform="scale(0.015625)"/>
      <path id="MicrosoftYaHei-41" d="M 4428 0 
L 3738 0 
L 3244 1325 
L 1228 1325 
L 763 0 
L 72 0 
L 1916 4841 
L 2584 4841 
L 4428 0 
z
M 3050 1872 
L 2319 3884 
Q 2284 3981 2244 4222 
L 2228 4222 
Q 2194 4003 2150 3884 
L 1425 1872 
L 3050 1872 
z
" transform="scale(0.015625)"/>
      <path id="MicrosoftYaHei-20" transform="scale(0.015625)"/>
      <path id="MicrosoftYaHei-53ef" d="M 813 3409 
L 3569 3409 
L 3569 941 
L 1306 941 
L 1306 497 
L 813 497 
L 813 3409 
z
M 119 4809 
L 6294 4809 
L 6294 4334 
L 5256 4334 
L 5256 103 
Q 5256 -741 4438 -747 
Q 3850 -747 3294 -741 
Q 3263 -453 3194 -172 
Q 3900 -222 4269 -222 
Q 4731 -222 4731 278 
L 4731 4334 
L 119 4334 
L 119 4809 
z
M 3075 2966 
L 1306 2966 
L 1306 1384 
L 3075 1384 
L 3075 2966 
z
" transform="scale(0.015625)"/>
      <path id="MicrosoftYaHei-63a7" d="M 88 1978 
Q 550 2091 975 2200 
L 975 3647 
L 119 3647 
L 119 4097 
L 975 4097 
L 975 5309 
L 1463 5309 
L 1463 4097 
L 2100 4097 
L 2100 3647 
L 1463 3647 
L 1463 2328 
Q 1788 2416 2088 2503 
Q 2100 2216 2131 2016 
Q 1784 1919 1463 1825 
L 1463 -103 
Q 1463 -766 869 -766 
Q 663 -766 225 -753 
Q 200 -497 144 -234 
Q 513 -278 694 -278 
Q 975 -278 975 16 
L 975 1684 
Q 534 1556 150 1441 
L 88 1978 
z
M 2425 1884 
L 5975 1884 
L 5975 1447 
L 4438 1447 
L 4438 -109 
L 6275 -109 
L 6275 -572 
L 2013 -572 
L 2013 -109 
L 3950 -109 
L 3950 1447 
L 2425 1447 
L 2425 1884 
z
M 2331 4372 
L 4125 4372 
Q 3894 4738 3613 5103 
L 4013 5359 
Q 4363 4928 4606 4578 
L 4297 4372 
L 6100 4372 
L 6100 3247 
L 5613 3247 
L 5613 3916 
L 2819 3916 
L 2819 3247 
L 2331 3247 
L 2331 4372 
z
M 4506 3166 
L 4838 3491 
Q 5669 2884 6244 2372 
L 5894 1978 
Q 5325 2541 4506 3166 
z
M 3919 3159 
Q 3188 2503 2531 1984 
L 2188 2359 
Q 2950 2909 3563 3503 
L 3919 3159 
z
" transform="scale(0.015625)"/>
     </defs>
     <use xlink:href="#MicrosoftYaHei-4c"/>
     <use xlink:href="#MicrosoftYaHei-6f" transform="translate(51.318359 0)"/>
     <use xlink:href="#MicrosoftYaHei-52" transform="translate(114.892578 0)"/>
     <use xlink:href="#MicrosoftYaHei-41" transform="translate(180.175781 0)"/>
     <use xlink:href="#MicrosoftYaHei-20" transform="translate(250.537109 0)"/>
     <use xlink:href="#MicrosoftYaHei-53ef" transform="translate(280.126953 0)"/>
     <use xlink:href="#MicrosoftYaHei-63a7" transform="translate(380.126953 0)"/>
    </g>
    <!-- 隐私注入 -->
    <g style="fill: #1f2d3d" transform="translate(185.504 108.744438) scale(0.11 -0.11)">
     <defs>
      <path id="MicrosoftYaHei-9690" d="M 2481 1791 
L 5425 1791 
L 5425 2353 
L 2631 2353 
L 2631 2741 
L 5425 2741 
L 5425 3291 
L 2619 3291 
L 2619 3581 
Q 2459 3394 2294 3216 
Q 2213 3366 2019 3572 
Q 2800 4397 3300 5353 
L 3763 5228 
Q 3606 4953 3438 4691 
L 5356 4691 
L 5356 4272 
Q 5088 3947 4869 3691 
L 5875 3691 
L 5875 1228 
L 5425 1228 
L 5425 1391 
L 2481 1391 
L 2481 1791 
z
M 2181 1897 
Q 2319 866 1613 741 
Q 1388 697 1019 734 
Q 969 991 881 1228 
Q 1181 1153 1444 1178 
Q 1850 1216 1719 1916 
Q 1644 2422 1181 3028 
Q 1588 4022 1788 4616 
L 856 4616 
L 856 -847 
L 400 -847 
L 400 5053 
L 2256 5053 
L 2256 4616 
Q 1963 3834 1650 3103 
Q 2113 2472 2181 1897 
z
M 2881 1109 
L 3319 1109 
L 3319 147 
Q 3319 -234 3631 -234 
L 4319 -234 
Q 4769 -234 4819 53 
Q 4863 272 4888 659 
Q 5119 559 5338 484 
Q 5275 78 5225 -109 
Q 5106 -647 4481 -641 
L 3525 -641 
Q 2881 -641 2881 116 
L 2881 1109 
z
M 4775 4291 
L 3169 4291 
Q 2947 3981 2709 3691 
L 4316 3691 
Q 4553 4000 4775 4291 
z
M 2238 978 
L 2650 834 
Q 2438 153 2106 -422 
Q 1956 -341 1700 -216 
Q 2031 303 2238 978 
z
M 5256 859 
L 5588 1091 
Q 5969 647 6338 116 
L 5950 -141 
Q 5594 416 5256 859 
z
M 3588 1103 
L 3913 1347 
Q 4338 891 4525 616 
L 4156 334 
Q 3938 697 3588 1103 
z
" transform="scale(0.015625)"/>
      <path id="MicrosoftYaHei-79c1" d="M 75 872 
Q 819 1791 1213 3003 
L 106 3003 
L 106 3459 
L 1250 3459 
L 1250 4372 
Q 763 4322 288 4278 
Q 244 4509 163 4753 
Q 1769 4891 2731 5034 
L 2856 4559 
Q 2281 4491 1719 4422 
L 1719 3459 
L 2925 3459 
L 2925 3003 
L 1719 3003 
L 1719 2091 
L 2000 2366 
Q 2488 1953 2919 1509 
L 2575 1153 
Q 2144 1603 1719 1997 
L 1719 -822 
L 1250 -822 
L 1250 1928 
Q 881 1003 313 341 
Q 206 597 75 872 
z
M 5031 2847 
Q 5719 1116 6319 -516 
L 5806 -747 
Q 5694 -403 5581 -66 
Q 4269 -184 3388 -284 
Q 3100 -328 2869 -409 
L 2663 116 
Q 2900 278 3056 741 
Q 3769 2772 4344 5178 
L 4913 5078 
Q 4094 2022 3369 222 
Q 4269 278 5425 378 
Q 5013 1578 4581 2672 
L 5031 2847 
z
" transform="scale(0.015625)"/>
      <path id="MicrosoftYaHei-6ce8" d="M 1625 16 
L 3725 16 
L 3725 1791 
L 2100 1791 
L 2100 2266 
L 3725 2266 
L 3725 3778 
L 1925 3778 
L 1925 4253 
L 3919 4253 
Q 3625 4719 3319 5103 
L 3731 5366 
Q 4150 4878 4394 4503 
L 4003 4253 
L 6100 4253 
L 6100 3778 
L 4250 3778 
L 4250 2266 
L 5875 2266 
L 5875 1791 
L 4250 1791 
L 4250 16 
L 6275 16 
L 6275 -459 
L 1625 -459 
L 1625 16 
z
M 956 1816 
Q 1213 1703 1450 1609 
Q 1106 509 731 -791 
L 194 -603 
Q 588 466 956 1816 
z
M 631 5234 
Q 1238 4778 1713 4322 
Q 1500 4109 1338 3941 
Q 1000 4297 313 4891 
L 631 5234 
z
M 394 3616 
Q 844 3303 1500 2766 
Q 1269 2503 1131 2359 
Q 475 2959 81 3259 
L 394 3616 
z
" transform="scale(0.015625)"/>
      <path id="MicrosoftYaHei-5165" d="M 1831 4947 
L 2244 5241 
Q 2944 4809 3781 3028 
Q 4950 472 6319 -91 
L 5881 -641 
Q 4513 172 3350 2784 
Q 3256 2994 3166 3184 
Q 2441 700 469 -678 
Q 300 -428 88 -209 
Q 2116 1069 2819 3834 
Q 2328 4653 1831 4947 
z
" transform="scale(0.015625)"/>
     </defs>
     <use xlink:href="#MicrosoftYaHei-9690"/>
     <use xlink:href="#MicrosoftYaHei-79c1" transform="translate(100 0)"/>
     <use xlink:href="#MicrosoftYaHei-6ce8" transform="translate(200 0)"/>
     <use xlink:href="#MicrosoftYaHei-5165" transform="translate(300 0)"/>
    </g>
   </g>
   <g id="text_3">
    <!-- 模型编辑 -->
    <g style="fill: #1f2d3d" transform="translate(339.584 95.458156) scale(0.11 -0.11)">
     <defs>
      <path id="MicrosoftYaHei-6a21" d="M 2050 984 
L 3859 984 
Q 3900 1213 3913 1547 
L 2950 1547 
L 2950 1372 
L 2500 1372 
L 2500 3634 
L 5844 3634 
L 5844 1372 
L 5394 1372 
L 5394 1547 
L 4344 1547 
Q 4325 1203 4288 984 
L 6250 984 
L 6250 584 
L 4525 584 
Q 5203 -175 6319 -341 
Q 6144 -572 6013 -809 
Q 4803 -456 4128 466 
Q 3681 -431 2075 -847 
Q 1969 -628 1831 -416 
Q 3303 -106 3713 584 
L 2050 584 
L 2050 984 
z
M 63 1409 
Q 603 2316 922 3509 
L 138 3509 
L 138 3922 
L 1006 3922 
L 1006 5309 
L 1444 5309 
L 1444 3922 
L 2256 3922 
L 2256 3509 
L 1444 3509 
L 1444 2684 
L 1688 2884 
Q 2044 2503 2350 2116 
L 2006 1828 
Q 1719 2244 1444 2563 
L 1444 -822 
L 1006 -822 
L 1006 2581 
Q 672 1438 275 859 
Q 188 1128 63 1409 
z
M 4713 5303 
L 5150 5303 
L 5150 4703 
L 6225 4703 
L 6225 4303 
L 5150 4303 
L 5150 3797 
L 4713 3797 
L 4713 4303 
L 3600 4303 
L 3600 3797 
L 3163 3797 
L 3163 4303 
L 2175 4303 
L 2175 4703 
L 3163 4703 
L 3163 5309 
L 3600 5309 
L 3600 4703 
L 4713 4703 
L 4713 5303 
z
M 5394 3247 
L 2950 3247 
L 2950 2778 
L 5394 2778 
L 5394 3247 
z
M 2950 1934 
L 5394 1934 
L 5394 2403 
L 2950 2403 
L 2950 1934 
z
" transform="scale(0.015625)"/>
      <path id="MicrosoftYaHei-578b" d="M 150 3503 
L 1100 3503 
Q 1106 3638 1106 4547 
L 413 4547 
L 413 4959 
L 3675 4959 
L 3675 4547 
L 2994 4547 
L 2994 3503 
L 3881 3503 
L 3881 3091 
L 2994 3091 
L 2994 1747 
L 2538 1747 
L 2538 3091 
L 1528 3091 
Q 1450 2191 638 1534 
Q 475 1716 294 1897 
Q 1013 2453 1066 3091 
L 150 3091 
L 150 3503 
z
M 138 -103 
L 2938 -103 
L 2938 741 
L 706 741 
L 706 1172 
L 2938 1172 
L 2938 1659 
L 3425 1659 
L 3425 1172 
L 5713 1172 
L 5713 741 
L 3425 741 
L 3425 -103 
L 6256 -103 
L 6256 -534 
L 138 -534 
L 138 -103 
z
M 5856 5209 
L 5856 2334 
Q 5856 1672 5200 1659 
Q 4825 1647 4331 1659 
Q 4306 1897 4256 2153 
Q 4781 2122 5044 2122 
Q 5400 2122 5400 2516 
L 5400 5209 
L 5856 5209 
z
M 1556 3503 
L 2538 3503 
L 2538 4547 
L 1563 4547 
Q 1563 3791 1556 3503 
z
M 4138 4859 
L 4588 4859 
L 4588 2697 
L 4138 2697 
L 4138 4859 
z
" transform="scale(0.015625)"/>
      <path id="MicrosoftYaHei-7f16" d="M 3144 -797 
L 2744 -797 
L 2744 2534 
L 6050 2534 
L 6050 -228 
Q 6050 -772 5563 -772 
Q 5219 -784 5019 -784 
Q 4994 -609 4953 -459 
L 4663 -459 
L 4663 803 
L 4094 803 
L 4094 -484 
L 3713 -484 
L 3713 803 
L 3144 803 
L 3144 -797 
z
M 75 353 
Q 838 456 1875 616 
Q 2125 1444 2125 2659 
L 2125 4684 
L 3884 4684 
Q 3738 4947 3606 5147 
L 4081 5366 
Q 4259 5081 4481 4684 
L 5956 4684 
L 5956 2972 
L 5531 2972 
L 5531 3172 
L 2550 3172 
L 2550 2653 
Q 2550 241 1631 -834 
Q 1500 -641 1325 -447 
Q 1556 -175 1719 197 
Q 759 3 188 -122 
L 75 353 
z
M 813 1634 
Q 1106 1647 1894 1722 
Q 1863 1459 1844 1316 
Q 619 1209 288 1159 
L 200 1553 
Q 519 1872 1031 2831 
Q 553 2794 200 2759 
L 81 3153 
Q 681 4109 1138 5303 
L 1625 5128 
Q 1100 4009 613 3191 
Q 816 3191 1222 3200 
Q 1388 3522 1569 3903 
L 2019 3703 
Q 1219 2259 813 1634 
z
M 5531 4284 
L 2550 4284 
L 2550 3572 
L 5531 3572 
L 5531 4284 
z
M 5388 -378 
Q 5631 -378 5631 -109 
L 5631 803 
L 5044 803 
L 5044 -369 
Q 5203 -378 5388 -378 
z
M 5631 2134 
L 5044 2134 
L 5044 1184 
L 5631 1184 
L 5631 2134 
z
M 4094 1184 
L 4663 1184 
L 4663 2134 
L 4094 2134 
L 4094 1184 
z
M 3144 1184 
L 3713 1184 
L 3713 2134 
L 3144 2134 
L 3144 1184 
z
" transform="scale(0.015625)"/>
      <path id="MicrosoftYaHei-8f91" d="M 2281 228 
Q 2559 241 2850 250 
L 2850 2759 
L 2469 2759 
L 2469 3147 
L 6231 3147 
L 6231 2759 
L 5819 2759 
L 5819 400 
Q 6066 413 6319 428 
Q 6288 184 6275 16 
Q 6050 6 5819 0 
L 5819 -841 
L 5381 -841 
L 5381 -19 
Q 3991 -81 2313 -184 
L 2281 228 
z
M 681 2241 
L 1350 2241 
L 1350 3622 
L 1763 3622 
L 1763 2241 
L 2494 2241 
L 2494 1828 
L 1763 1828 
L 1763 969 
Q 2188 1019 2606 1078 
Q 2575 841 2563 647 
Q 2181 603 1763 550 
L 1763 -841 
L 1350 -841 
L 1350 497 
Q 772 422 131 334 
L 81 791 
Q 722 850 1350 919 
L 1350 1828 
L 225 1828 
L 225 2222 
Q 572 3181 809 3941 
L 156 3941 
L 156 4347 
L 934 4347 
Q 1100 4913 1194 5347 
L 1675 5247 
Q 1572 4891 1394 4347 
L 2544 4347 
L 2544 3941 
L 1263 3941 
Q 1025 3222 681 2241 
z
M 2794 5041 
L 5875 5041 
L 5875 3422 
L 5444 3422 
L 5444 3647 
L 3231 3647 
L 3231 3422 
L 2794 3422 
L 2794 5041 
z
M 5444 4672 
L 3231 4672 
L 3231 4016 
L 5444 4016 
L 5444 4672 
z
M 5381 375 
L 5381 903 
L 3288 903 
L 3288 272 
Q 4266 319 5381 375 
z
M 3288 1266 
L 5381 1266 
L 5381 1834 
L 3288 1834 
L 3288 1266 
z
M 3288 2197 
L 5381 2197 
L 5381 2759 
L 3288 2759 
L 3288 2197 
z
" transform="scale(0.015625)"/>
     </defs>
     <use xlink:href="#MicrosoftYaHei-6a21"/>
     <use xlink:href="#MicrosoftYaHei-578b" transform="translate(100 0)"/>
     <use xlink:href="#MicrosoftYaHei-7f16" transform="translate(200 0)"/>
     <use xlink:href="#MicrosoftYaHei-8f91" transform="translate(300 0)"/>
    </g>
    <!-- 执行 -->
    <g style="fill: #1f2d3d" transform="translate(350.584 108.744438) scale(0.11 -0.11)">
     <defs>
      <path id="MicrosoftYaHei-6267" d="M 2225 2272 
L 2519 2647 
Q 2788 2472 3059 2294 
Q 3128 2856 3147 3622 
L 2406 3622 
L 2406 4097 
L 3156 4097 
Q 3169 4672 3175 5303 
L 3663 5303 
Q 3656 4653 3644 4097 
L 5363 4097 
Q 5350 3228 5344 2341 
Q 5319 616 5488 34 
Q 5531 -103 5618 -103 
Q 5706 -103 5744 59 
Q 5831 409 5913 1059 
Q 6156 934 6375 878 
Q 6288 253 6175 -159 
Q 6025 -691 5613 -691 
Q 5194 -691 5013 -103 
Q 4869 397 4875 1847 
Q 4869 2672 4869 3622 
L 3634 3622 
Q 3616 2709 3513 1988 
Q 3994 1663 4481 1322 
L 4163 891 
Q 3791 1172 3416 1444 
Q 3113 100 2088 -847 
Q 1931 -634 1713 -422 
Q 2725 506 2975 1756 
Q 2600 2019 2225 2272 
z
M 88 1966 
Q 525 2069 969 2181 
L 969 3647 
L 144 3647 
L 144 4097 
L 969 4097 
L 969 5303 
L 1431 5303 
L 1431 4097 
L 2163 4097 
L 2163 3647 
L 1431 3647 
L 1431 2303 
Q 1772 2394 2113 2491 
Q 2125 2216 2156 2016 
L 1431 1813 
L 1431 -78 
Q 1431 -759 875 -759 
Q 606 -759 219 -747 
Q 194 -516 138 -247 
Q 538 -291 694 -291 
Q 969 -291 969 3 
L 969 1678 
Q 559 1559 150 1441 
L 88 1966 
z
" transform="scale(0.015625)"/>
      <path id="MicrosoftYaHei-884c" d="M 2363 2978 
L 6319 2978 
L 6319 2509 
L 5106 2509 
L 5106 66 
Q 5106 -709 4325 -709 
Q 3800 -709 3256 -703 
Q 3219 -453 3163 -141 
Q 3650 -191 4144 -191 
Q 4575 -191 4575 234 
L 4575 2509 
L 2363 2509 
L 2363 2978 
z
M 100 1578 
Q 1069 2372 1863 3809 
L 2300 3541 
Q 1978 2984 1619 2500 
L 1619 -809 
L 1100 -809 
L 1100 1856 
Q 725 1431 319 1072 
Q 219 1334 100 1578 
z
M 2725 4866 
L 5969 4866 
L 5969 4397 
L 2725 4397 
L 2725 4866 
z
M 131 3559 
Q 1125 4328 1731 5347 
L 2181 5072 
Q 1456 3959 381 3078 
Q 269 3316 131 3559 
z
" transform="scale(0.015625)"/>
     </defs>
     <use xlink:href="#MicrosoftYaHei-6267"/>
     <use xlink:href="#MicrosoftYaHei-884c" transform="translate(100 0)"/>
    </g>
   </g>
   <g id="text_4">
    <!-- 隐私/公开 -->
    <g style="fill: #1f2d3d" transform="translate(491.314469 95.458156) scale(0.11 -0.11)">
     <defs>
      <path id="MicrosoftYaHei-2f" d="M 2791 4841 
L 469 -803 
L -103 -803 
L 2219 4841 
L 2791 4841 
z
" transform="scale(0.015625)"/>
      <path id="MicrosoftYaHei-516c" d="M 4144 1591 
Q 5044 422 5663 -534 
L 5188 -847 
Q 5013 -559 4816 -250 
Q 2753 -350 1463 -453 
Q 1225 -478 888 -559 
L 613 -28 
Q 894 84 1131 316 
Q 1863 1159 2719 2809 
L 3256 2566 
Q 2481 1234 1600 78 
Q 2891 119 4522 194 
Q 4166 734 3738 1334 
L 4144 1591 
z
M 3606 4953 
L 4069 5134 
Q 4675 3503 6325 2547 
Q 6156 2372 5938 2059 
Q 4213 3247 3606 4953 
z
M 75 2366 
Q 1469 3503 2156 5047 
L 2650 4841 
Q 1806 3084 475 1966 
Q 313 2172 75 2366 
z
" transform="scale(0.015625)"/>
      <path id="MicrosoftYaHei-5f00" d="M 125 2553 
L 1756 2553 
L 1756 4372 
L 400 4372 
L 400 4866 
L 6006 4866 
L 6006 4372 
L 4731 4372 
L 4731 2553 
L 6275 2553 
L 6275 2059 
L 4731 2059 
L 4731 -791 
L 4219 -791 
L 4219 2059 
L 2266 2059 
Q 2244 916 1938 359 
Q 1631 -253 531 -872 
Q 369 -647 175 -434 
Q 1131 53 1450 584 
Q 1734 1013 1753 2059 
L 125 2059 
L 125 2553 
z
M 2269 2553 
L 4219 2553 
L 4219 4372 
L 2269 4372 
L 2269 2553 
z
" transform="scale(0.015625)"/>
     </defs>
     <use xlink:href="#MicrosoftYaHei-9690"/>
     <use xlink:href="#MicrosoftYaHei-79c1" transform="translate(100 0)"/>
     <use xlink:href="#MicrosoftYaHei-2f" transform="translate(200 0)"/>
     <use xlink:href="#MicrosoftYaHei-516c" transform="translate(242.724609 0)"/>
     <use xlink:href="#MicrosoftYaHei-5f00" transform="translate(342.724609 0)"/>
    </g>
    <!-- 双重评估 -->
    <g style="fill: #1f2d3d" transform="translate(493.664 108.744438) scale(0.11 -0.11)">
     <defs>
      <path id="MicrosoftYaHei-53cc" d="M 2950 4384 
L 2950 4859 
L 5894 4859 
L 5894 4403 
Q 5628 2144 4750 953 
Q 5413 184 6325 -241 
Q 6106 -503 5919 -716 
Q 5072 -181 4434 566 
Q 3728 -222 2525 -866 
Q 2413 -703 2194 -428 
Q 3406 159 4119 963 
Q 3269 2159 3119 4384 
L 2950 4384 
z
M 250 3634 
L 644 3878 
Q 1213 3041 1778 2156 
Q 2159 3163 2275 4372 
L 175 4372 
L 175 4847 
L 2775 4847 
L 2775 4372 
Q 2559 2756 2091 1659 
Q 2509 1000 2925 309 
L 2513 -9 
Q 2163 584 1831 1131 
Q 1297 153 456 -653 
Q 263 -447 69 -303 
Q 1047 616 1541 1606 
Q 850 2734 250 3634 
z
M 5369 4384 
L 3578 4384 
Q 3738 2388 4428 1366 
Q 5172 2488 5369 4384 
z
" transform="scale(0.015625)"/>
      <path id="MicrosoftYaHei-91cd" d="M 113 -203 
L 2975 -203 
L 2975 259 
L 600 259 
L 600 628 
L 2975 628 
L 2975 1153 
L 1288 1153 
L 1288 928 
L 850 928 
L 850 3278 
L 2975 3278 
L 2975 3728 
L 163 3728 
L 163 4116 
L 2975 4116 
L 2975 4606 
Q 1841 4572 625 4547 
Q 588 4747 538 4972 
Q 3706 5009 5669 5141 
L 5744 4716 
Q 4631 4663 3425 4619 
L 3425 4116 
L 6263 4116 
L 6263 3728 
L 3425 3728 
L 3425 3278 
L 5569 3278 
L 5569 934 
L 5131 934 
L 5131 1153 
L 3425 1153 
L 3425 628 
L 5806 628 
L 5806 259 
L 3425 259 
L 3425 -203 
L 6263 -203 
L 6263 -591 
L 113 -591 
L 113 -203 
z
M 3425 1516 
L 5131 1516 
L 5131 2053 
L 3425 2053 
L 3425 1516 
z
M 1288 1516 
L 2975 1516 
L 2975 2053 
L 1288 2053 
L 1288 1516 
z
M 5131 2916 
L 3425 2916 
L 3425 2384 
L 5131 2384 
L 5131 2916 
z
M 1288 2384 
L 2975 2384 
L 2975 2916 
L 1288 2916 
L 1288 2384 
z
" transform="scale(0.015625)"/>
      <path id="MicrosoftYaHei-8bc4" d="M 1750 2028 
L 3775 2028 
L 3775 4447 
L 2088 4447 
L 2088 4916 
L 5975 4916 
L 5975 4447 
L 4281 4447 
L 4281 2028 
L 6319 2028 
L 6319 1553 
L 4281 1553 
L 4281 -797 
L 3775 -797 
L 3775 1553 
L 1750 1553 
L 1750 2028 
z
M 2219 866 
Q 2238 553 2263 328 
Q 1456 -228 963 -628 
L 669 -209 
Q 881 -28 881 303 
L 881 2716 
L 100 2716 
L 100 3166 
L 1363 3166 
L 1363 241 
Q 1775 534 2219 866 
z
M 4725 2697 
Q 5175 3309 5563 4028 
L 6019 3753 
Q 5613 3091 5125 2403 
L 4725 2697 
z
M 2056 3791 
L 2450 4028 
Q 2919 3353 3288 2716 
L 2850 2434 
Q 2431 3209 2056 3791 
z
M 738 5222 
Q 1419 4522 1725 4184 
L 1288 3816 
Q 894 4334 356 4891 
L 738 5222 
z
" transform="scale(0.015625)"/>
      <path id="MicrosoftYaHei-4f30" d="M 2250 2284 
L 3781 2284 
L 3781 3553 
L 1800 3553 
L 1800 4016 
L 3781 4016 
L 3781 5316 
L 4294 5316 
L 4294 4016 
L 6300 4016 
L 6300 3553 
L 4294 3553 
L 4294 2284 
L 5831 2284 
L 5831 -841 
L 5319 -841 
L 5319 -353 
L 2763 -353 
L 2763 -841 
L 2250 -841 
L 2250 2284 
z
M 5319 1822 
L 2763 1822 
L 2763 97 
L 5319 97 
L 5319 1822 
z
M 44 2259 
Q 919 3559 1431 5347 
L 1944 5197 
Q 1713 4494 1456 3878 
L 1456 -853 
L 963 -853 
L 963 2834 
Q 634 2213 269 1716 
Q 175 1984 44 2259 
z
" transform="scale(0.015625)"/>
     </defs>
     <use xlink:href="#MicrosoftYaHei-53cc"/>
     <use xlink:href="#MicrosoftYaHei-91cd" transform="translate(100 0)"/>
     <use xlink:href="#MicrosoftYaHei-8bc4" transform="translate(200 0)"/>
     <use xlink:href="#MicrosoftYaHei-4f30" transform="translate(300 0)"/>
    </g>
   </g>
   <g id="text_5">
    <!-- 结果归档 -->
    <g style="fill: #1f2d3d" transform="translate(647.744 95.458156) scale(0.11 -0.11)">
     <defs>
      <path id="MicrosoftYaHei-7ed3" d="M 2625 1709 
L 5925 1709 
L 5925 -828 
L 5438 -828 
L 5438 -441 
L 3113 -441 
L 3113 -828 
L 2625 -828 
L 2625 1709 
z
M 2500 2897 
L 4025 2897 
L 4025 3872 
L 2294 3872 
L 2294 4322 
L 4025 4322 
L 4025 5322 
L 4525 5322 
L 4525 4322 
L 6275 4322 
L 6275 3872 
L 4525 3872 
L 4525 2897 
L 6056 2897 
L 6056 2447 
L 2500 2447 
L 2500 2897 
z
M 894 1566 
Q 1725 1684 2269 1778 
Q 2231 1534 2213 1303 
Q 1519 1203 319 1009 
L 219 1472 
Q 619 1888 1172 2791 
Q 647 2756 219 2722 
L 100 3147 
Q 675 3916 1294 5366 
L 1769 5178 
Q 1094 3853 663 3184 
Q 1025 3194 1419 3206 
Q 1631 3569 1863 3997 
L 2325 3766 
Q 1613 2578 894 1566 
z
M 5438 1272 
L 3113 1272 
L 3113 -3 
L 5438 -3 
L 5438 1272 
z
M 75 91 
Q 1231 316 2331 584 
Q 2313 334 2313 109 
Q 1300 -103 213 -391 
L 75 91 
z
" transform="scale(0.015625)"/>
      <path id="MicrosoftYaHei-679c" d="M 6338 -53 
Q 6100 -309 5944 -522 
Q 4425 -41 3438 1181 
L 3438 -841 
L 2963 -841 
L 2963 1188 
Q 2084 172 450 -603 
Q 300 -416 75 -203 
Q 1550 363 2472 1259 
L 213 1259 
L 213 1709 
L 2963 1709 
L 2963 2384 
L 1306 2384 
L 1306 2141 
L 831 2141 
L 831 5016 
L 5569 5016 
L 5569 2141 
L 5094 2141 
L 5094 2384 
L 3438 2384 
L 3438 1709 
L 6200 1709 
L 6200 1259 
L 3856 1259 
Q 4769 294 6338 -53 
z
M 3438 2809 
L 5094 2809 
L 5094 3497 
L 3438 3497 
L 3438 2809 
z
M 5094 4591 
L 3438 4591 
L 3438 3903 
L 5094 3903 
L 5094 4591 
z
M 1306 2809 
L 2963 2809 
L 2963 3497 
L 1306 3497 
L 1306 2809 
z
M 1306 3903 
L 2963 3903 
L 2963 4591 
L 1306 4591 
L 1306 3903 
z
" transform="scale(0.015625)"/>
      <path id="MicrosoftYaHei-5f52" d="M 2450 272 
L 5419 272 
L 5419 2222 
L 2800 2222 
L 2800 2659 
L 5419 2659 
L 5419 4347 
L 2650 4347 
L 2650 4797 
L 5906 4797 
L 5906 -591 
L 5419 -591 
L 5419 -166 
L 2450 -166 
L 2450 272 
z
M 1800 5284 
L 2294 5284 
L 2294 2741 
Q 2300 103 1219 -866 
Q 1069 -672 844 -447 
Q 1800 453 1800 2541 
L 1800 5284 
z
M 513 4672 
L 1000 4672 
L 1000 641 
L 513 641 
L 513 4672 
z
" transform="scale(0.015625)"/>
      <path id="MicrosoftYaHei-6863" d="M 2225 -34 
L 5575 -34 
L 5575 1066 
L 2494 1066 
L 2494 1497 
L 5575 1497 
L 5575 2547 
L 2388 2547 
L 2388 2991 
L 3981 2991 
L 3981 5259 
L 4456 5259 
L 4456 2991 
L 6050 2991 
L 6050 -828 
L 5575 -828 
L 5575 -478 
L 2225 -478 
L 2225 -34 
z
M 25 1303 
Q 681 2272 1025 3572 
L 88 3572 
L 88 3997 
L 1038 3997 
L 1038 5253 
L 1506 5253 
L 1506 3997 
L 2381 3997 
L 2381 3572 
L 1506 3572 
L 1506 2628 
L 1706 2822 
Q 2225 2303 2606 1897 
L 2231 1559 
Q 1894 1978 1506 2397 
L 1506 -809 
L 1038 -809 
L 1038 2397 
Q 700 1416 244 759 
Q 144 1022 25 1303 
z
M 4950 3603 
Q 5381 4197 5794 4953 
L 6250 4684 
Q 5775 3916 5344 3316 
L 4950 3603 
z
M 2263 4697 
L 2650 4941 
Q 3119 4297 3556 3622 
L 3113 3334 
Q 2713 4034 2263 4697 
z
" transform="scale(0.015625)"/>
     </defs>
     <use xlink:href="#MicrosoftYaHei-7ed3"/>
     <use xlink:href="#MicrosoftYaHei-679c" transform="translate(100 0)"/>
     <use xlink:href="#MicrosoftYaHei-5f52" transform="translate(200 0)"/>
     <use xlink:href="#MicrosoftYaHei-6863" transform="translate(300 0)"/>
    </g>
    <!-- 与论文表图 -->
    <g style="fill: #1f2d3d" transform="translate(642.244 108.744438) scale(0.11 -0.11)">
     <defs>
      <path id="MicrosoftYaHei-4e0e" d="M 1163 2384 
L 1163 2859 
L 1413 5328 
L 1931 5328 
L 1834 4334 
L 6269 4334 
L 6269 3859 
L 1791 3859 
L 1694 2859 
L 5813 2859 
Q 5738 1547 5644 416 
Q 5556 -247 5263 -478 
Q 4981 -703 4322 -703 
Q 3706 -697 2900 -678 
Q 2863 -466 2794 -134 
Q 3744 -203 4213 -209 
Q 5050 -266 5125 447 
Q 5206 1278 5263 2384 
L 1163 2384 
z
M 106 1409 
L 4738 1409 
L 4738 934 
L 106 934 
L 106 1409 
z
" transform="scale(0.015625)"/>
      <path id="MicrosoftYaHei-8bba" d="M 2725 2866 
L 3225 2866 
L 3225 1553 
Q 4425 2072 5188 2753 
L 5538 2341 
Q 4569 1578 3225 1034 
L 3225 216 
Q 3225 -197 3600 -197 
L 4844 -197 
Q 5294 -197 5363 203 
Q 5444 659 5475 1191 
Q 5675 1103 5981 1009 
Q 5925 497 5844 53 
Q 5719 -672 4869 -672 
L 3450 -672 
Q 2725 -672 2725 122 
L 2725 2866 
z
M 4413 5253 
L 4331 5109 
Q 5075 3791 6344 3166 
Q 6163 2947 5981 2697 
Q 4744 3516 4056 4666 
Q 3388 3559 2106 2678 
Q 1925 2941 1763 3109 
Q 3181 3947 3831 5253 
L 4413 5253 
z
M 2206 691 
Q 2225 366 2250 153 
Q 1550 -316 994 -747 
L 700 -328 
Q 913 -153 913 209 
L 913 2678 
L 100 2678 
L 100 3141 
L 1400 3141 
L 1400 122 
Q 1769 372 2206 691 
z
M 856 5197 
Q 1538 4497 1844 4159 
L 1406 3791 
Q 1013 4309 475 4866 
L 856 5197 
z
" transform="scale(0.015625)"/>
      <path id="MicrosoftYaHei-6587" d="M 194 4241 
L 3194 4241 
Q 2878 4841 2700 5116 
L 3181 5341 
Q 3356 5072 3706 4466 
L 3256 4241 
L 6194 4241 
L 6194 3778 
L 5041 3778 
Q 4706 1994 3603 909 
Q 4434 303 6244 -178 
Q 5956 -503 5806 -722 
Q 4044 -113 3203 553 
Q 2359 -103 506 -772 
Q 344 -553 131 -284 
Q 1919 253 2822 913 
Q 1681 2131 1372 3778 
L 194 3778 
L 194 4241 
z
M 4506 3778 
L 1872 3778 
Q 2153 2241 3216 1238 
Q 4231 2181 4506 3778 
z
" transform="scale(0.015625)"/>
      <path id="MicrosoftYaHei-8868" d="M 5519 1891 
L 5863 1459 
L 4466 759 
Q 5200 159 6306 -34 
Q 6094 -309 5956 -534 
Q 3941 -53 3066 1944 
Q 2747 1538 2338 1172 
L 2338 -166 
Q 3163 103 3869 397 
Q 3863 122 3875 -147 
Q 3125 -403 2325 -709 
Q 2156 -778 1994 -872 
L 1700 -416 
Q 1875 -291 1875 -66 
L 1875 794 
Q 1228 309 406 -84 
Q 269 134 88 347 
Q 1703 1009 2625 2122 
L 156 2122 
L 156 2553 
L 2956 2553 
L 2956 3191 
L 600 3191 
L 600 3622 
L 2956 3622 
L 2956 4234 
L 350 4234 
L 350 4666 
L 2956 4666 
L 2956 5366 
L 3450 5366 
L 3450 4666 
L 6069 4666 
L 6069 4234 
L 3450 4234 
L 3450 3622 
L 5800 3622 
L 5800 3191 
L 3450 3191 
L 3450 2553 
L 6244 2553 
L 6244 2122 
L 3466 2122 
Q 3728 1513 4141 1066 
Q 4769 1378 5519 1891 
z
" transform="scale(0.015625)"/>
      <path id="MicrosoftYaHei-56fe" d="M 431 5072 
L 5944 5072 
L 5944 -809 
L 5475 -809 
L 5475 -509 
L 900 -509 
L 900 -809 
L 431 -809 
L 431 5072 
z
M 5475 4622 
L 900 4622 
L 900 -59 
L 5475 -59 
L 5475 4622 
z
M 1113 3091 
Q 1969 3709 2519 4547 
L 2931 4353 
Q 2816 4181 2681 4016 
L 4894 4016 
L 4894 3647 
Q 4434 3091 3722 2644 
Q 4381 2422 5338 2297 
Q 5194 2016 5131 1828 
Q 4022 2081 3256 2400 
Q 2491 2056 1225 1728 
Q 1138 1934 1013 2128 
Q 2109 2353 2825 2644 
Q 2384 2947 2066 3341 
Q 1769 3056 1419 2784 
Q 1294 2916 1113 3091 
z
M 1563 672 
L 1694 1103 
Q 3256 897 4700 622 
L 4531 147 
Q 3150 453 1563 672 
z
M 4275 3628 
L 2347 3628 
Q 2338 3616 2328 3606 
Q 2691 3141 3244 2841 
Q 3891 3188 4275 3628 
z
M 2219 1503 
L 2344 1922 
Q 3263 1784 4275 1609 
L 4144 1172 
Q 3119 1378 2219 1503 
z
" transform="scale(0.015625)"/>
     </defs>
     <use xlink:href="#MicrosoftYaHei-4e0e"/>
     <use xlink:href="#MicrosoftYaHei-8bba" transform="translate(100 0)"/>
     <use xlink:href="#MicrosoftYaHei-6587" transform="translate(200 0)"/>
     <use xlink:href="#MicrosoftYaHei-8868" transform="translate(300 0)"/>
     <use xlink:href="#MicrosoftYaHei-56fe" transform="translate(400 0)"/>
    </g>
   </g>
   <g id="text_6">
    <!-- 统一 case_id、请求文件、评估输出与摘要表，保证实验结果可追溯、可比较、可复核 -->
    <g style="fill: #34495e" transform="translate(203.727344 181.345687) scale(0.1 -0.1)">
     <defs>
      <path id="MicrosoftYaHei-7edf" d="M 5100 3641 
Q 5625 2934 6175 2047 
Q 5956 1922 5713 1766 
Q 5556 2031 5413 2275 
Q 5122 2256 4813 2241 
L 4813 122 
Q 4813 -259 5094 -259 
L 5400 -259 
Q 5706 -259 5750 53 
Q 5800 428 5813 866 
Q 6019 778 6313 684 
Q 6263 141 6206 -159 
Q 6119 -703 5550 -703 
L 5013 -703 
Q 4331 -703 4331 78 
L 4331 2213 
Q 3981 2194 3606 2169 
Q 3556 809 3256 272 
Q 2900 -416 1925 -866 
Q 1788 -672 1606 -447 
Q 2513 -78 2819 522 
Q 3100 1000 3122 2138 
Q 2994 2128 2863 2122 
Q 2594 2097 2363 2041 
L 2150 2528 
Q 2419 2641 2581 2828 
Q 3050 3388 3463 4047 
L 2100 4047 
L 2100 4491 
L 4094 4491 
Q 3859 4850 3650 5128 
L 4063 5384 
Q 4300 5091 4594 4684 
L 4297 4491 
L 6200 4491 
L 6200 4047 
L 3663 4047 
L 4006 3897 
Q 3488 3197 2988 2609 
Q 4166 2650 5153 2694 
Q 4916 3075 4700 3391 
L 5100 3641 
z
M 894 1534 
Q 1394 1603 2175 1722 
Q 2138 1472 2113 1259 
Q 1331 1153 325 991 
L 225 1441 
Q 616 1841 1153 2744 
Q 503 2700 219 2678 
L 100 3103 
Q 650 3828 1288 5316 
L 1763 5128 
Q 1156 3941 656 3141 
Q 1066 3147 1394 3159 
Q 1581 3494 1788 3884 
L 2256 3678 
Q 1544 2434 894 1534 
z
M 81 222 
Q 1119 422 2225 672 
Q 2200 347 2200 222 
Q 1069 -28 225 -253 
L 81 222 
z
" transform="scale(0.015625)"/>
      <path id="MicrosoftYaHei-4e00" d="M 100 2703 
L 6313 2703 
L 6313 2153 
L 100 2153 
L 100 2703 
z
" transform="scale(0.015625)"/>
      <path id="MicrosoftYaHei-63" d="M 2934 156 
Q 2538 -81 1978 -81 
Q 1228 -81 772 400 
Q 316 881 316 1647 
Q 316 2497 808 3017 
Q 1300 3538 2125 3538 
Q 2600 3538 2938 3369 
L 2938 2763 
Q 2572 3031 2125 3031 
Q 1600 3031 1270 2667 
Q 941 2303 941 1697 
Q 941 1100 1252 762 
Q 1563 425 2091 425 
Q 2538 425 2934 719 
L 2934 156 
z
" transform="scale(0.015625)"/>
      <path id="MicrosoftYaHei-61" d="M 628 3216 
Q 1144 3538 1819 3538 
Q 3069 3538 3069 2225 
L 3069 0 
L 2463 0 
L 2463 534 
L 2447 534 
Q 2088 -81 1388 -81 
Q 884 -81 587 191 
Q 291 463 291 925 
Q 291 1894 1438 2053 
L 2463 2197 
Q 2463 3044 1763 3044 
Q 1141 3044 628 2625 
L 628 3216 
z
M 1653 1625 
Q 1228 1569 1067 1412 
Q 906 1256 906 975 
Q 906 728 1081 572 
Q 1256 416 1544 416 
Q 1944 416 2203 697 
Q 2463 978 2463 1403 
L 2463 1734 
L 1653 1625 
z
" transform="scale(0.015625)"/>
      <path id="MicrosoftYaHei-73" d="M 353 747 
Q 816 413 1350 413 
Q 2066 413 2066 881 
Q 2066 1081 1909 1211 
Q 1753 1341 1275 1519 
Q 700 1750 528 1976 
Q 356 2203 356 2525 
Q 356 2984 745 3261 
Q 1134 3538 1703 3538 
Q 2144 3538 2522 3384 
L 2522 2794 
Q 2134 3044 1644 3044 
Q 1350 3044 1165 2916 
Q 981 2788 981 2578 
Q 981 2372 1114 2256 
Q 1247 2141 1703 1959 
Q 2281 1744 2484 1512 
Q 2688 1281 2688 941 
Q 2688 466 2298 192 
Q 1909 -81 1291 -81 
Q 753 -81 353 122 
L 353 747 
z
" transform="scale(0.015625)"/>
      <path id="MicrosoftYaHei-65" d="M 3363 1572 
L 944 1572 
Q 959 1019 1246 717 
Q 1534 416 2050 416 
Q 2631 416 3116 788 
L 3116 241 
Q 2659 -81 1906 -81 
Q 1156 -81 736 394 
Q 316 869 316 1713 
Q 316 2506 777 3022 
Q 1238 3538 1922 3538 
Q 2600 3538 2981 3102 
Q 3363 2666 3363 1881 
L 3363 1572 
z
M 2750 2063 
Q 2747 2531 2528 2787 
Q 2309 3044 1913 3044 
Q 1547 3044 1280 2772 
Q 1013 2500 944 2063 
L 2750 2063 
z
" transform="scale(0.015625)"/>
      <path id="MicrosoftYaHei-5f" d="M 2869 -1634 
L 0 -1634 
L 0 -1231 
L 2869 -1231 
L 2869 -1634 
z
" transform="scale(0.015625)"/>
      <path id="MicrosoftYaHei-69" d="M 472 4675 
Q 472 4838 583 4948 
Q 694 5059 856 5059 
Q 1022 5059 1136 4950 
Q 1250 4841 1250 4675 
Q 1250 4513 1136 4405 
Q 1022 4297 856 4297 
Q 691 4297 581 4405 
Q 472 4513 472 4675 
z
M 544 0 
L 544 3456 
L 1156 3456 
L 1156 0 
L 544 0 
z
" transform="scale(0.015625)"/>
      <path id="MicrosoftYaHei-64" d="M 3547 0 
L 2934 0 
L 2934 575 
L 2922 575 
Q 2544 -81 1747 -81 
Q 1091 -81 703 386 
Q 316 853 316 1647 
Q 316 2503 753 3020 
Q 1191 3538 1897 3538 
Q 2603 3538 2922 2988 
L 2934 2988 
L 2934 5116 
L 3547 5116 
L 3547 0 
z
M 2938 2056 
Q 2938 2472 2664 2751 
Q 2391 3031 1991 3031 
Q 1503 3031 1222 2667 
Q 941 2303 941 1675 
Q 941 1097 1211 761 
Q 1481 425 1931 425 
Q 2375 425 2656 754 
Q 2938 1084 2938 1575 
L 2938 2056 
z
" transform="scale(0.015625)"/>
      <path id="MicrosoftYaHei-3001" d="M 1931 -413 
L 1556 -791 
Q 1028 -216 397 306 
L 728 650 
Q 1506 22 1931 -413 
z
" transform="scale(0.015625)"/>
      <path id="MicrosoftYaHei-8bf7" d="M 2788 -791 
L 2300 -791 
L 2300 2378 
L 5775 2378 
L 5775 -53 
Q 5775 -728 5081 -734 
Q 4713 -741 4138 -741 
Q 4106 -541 4044 -259 
Q 4588 -297 4931 -297 
Q 5288 -297 5288 28 
L 5288 341 
L 2788 341 
L 2788 -791 
z
M 1750 3153 
L 3769 3153 
L 3769 3584 
L 2169 3584 
L 2169 3978 
L 3769 3978 
L 3769 4397 
L 1950 4397 
L 1950 4791 
L 3769 4791 
L 3769 5353 
L 4275 5353 
L 4275 4791 
L 6181 4791 
L 6181 4397 
L 4275 4397 
L 4275 3978 
L 6019 3978 
L 6019 3584 
L 4275 3584 
L 4275 3153 
L 6306 3153 
L 6306 2759 
L 1750 2759 
L 1750 3153 
z
M 2056 753 
Q 2075 441 2100 209 
Q 1425 -241 956 -603 
L 669 -191 
Q 881 9 881 353 
L 881 2716 
L 119 2716 
L 119 3172 
L 1356 3172 
L 1356 259 
Q 1706 497 2056 753 
z
M 5288 1978 
L 2788 1978 
L 2788 1547 
L 5288 1547 
L 5288 1978 
z
M 2788 728 
L 5288 728 
L 5288 1159 
L 2788 1159 
L 2788 728 
z
M 825 5141 
Q 1338 4634 1731 4197 
L 1294 3834 
Q 863 4391 450 4822 
L 825 5141 
z
" transform="scale(0.015625)"/>
      <path id="MicrosoftYaHei-6c42" d="M 225 4178 
L 2969 4178 
L 2969 5309 
L 3494 5309 
L 3494 4178 
L 6225 4178 
L 6225 3728 
L 3494 3728 
L 3494 3341 
Q 3800 2641 4219 2066 
Q 4869 2628 5444 3316 
L 5888 2947 
Q 5119 2184 4525 1684 
Q 5275 809 6319 284 
Q 6088 16 5944 -203 
Q 4331 741 3494 2322 
L 3494 28 
Q 3494 -778 2650 -778 
Q 2200 -778 1819 -766 
Q 1781 -509 1719 -209 
Q 2213 -266 2525 -266 
Q 2969 -266 2969 191 
L 2969 1372 
Q 1494 616 400 -3 
L 131 509 
Q 1438 1116 2969 1953 
L 2969 3728 
L 225 3728 
L 225 4178 
z
M 1144 3353 
Q 1644 2859 2163 2247 
Q 1969 2084 1731 1897 
Q 1294 2466 769 3047 
L 1144 3353 
z
M 4069 4978 
L 4369 5309 
Q 4963 4934 5313 4628 
L 4975 4253 
Q 4606 4578 4069 4978 
z
" transform="scale(0.015625)"/>
      <path id="MicrosoftYaHei-4ef6" d="M 1950 1816 
L 4119 1816 
L 4119 3397 
L 2928 3397 
Q 2675 2725 2375 2197 
Q 2194 2372 1963 2528 
Q 2556 3572 2838 4859 
L 3344 4716 
Q 3222 4250 3081 3834 
L 4119 3834 
L 4119 5284 
L 4619 5284 
L 4619 3834 
L 6113 3834 
L 6113 3397 
L 4619 3397 
L 4619 1816 
L 6319 1816 
L 6319 1378 
L 4619 1378 
L 4619 -809 
L 4119 -809 
L 4119 1378 
L 1950 1378 
L 1950 1816 
z
M 69 2191 
Q 931 3466 1456 5278 
L 1969 5128 
Q 1738 4400 1469 3763 
L 1469 -816 
L 975 -816 
L 975 2731 
Q 656 2141 294 1647 
Q 200 1916 69 2191 
z
" transform="scale(0.015625)"/>
      <path id="MicrosoftYaHei-8f93" d="M 625 2216 
L 1188 2216 
L 1188 3353 
L 1600 3353 
L 1600 2216 
L 2200 2216 
L 2200 1803 
L 1600 1803 
L 1600 947 
Q 1931 991 2275 1047 
Q 2244 809 2231 616 
Q 1913 572 1600 528 
L 1600 -866 
L 1188 -866 
L 1188 466 
Q 681 391 169 309 
L 100 766 
Q 638 822 1188 891 
L 1188 1803 
L 188 1803 
L 188 2234 
Q 425 2903 681 3934 
L 131 3934 
L 131 4334 
L 781 4334 
Q 888 4784 1000 5297 
L 1450 5197 
Q 1331 4741 1225 4334 
L 2356 4334 
L 2356 3934 
L 1119 3934 
Q 844 2922 625 2216 
z
M 2813 -853 
L 2413 -853 
L 2413 2828 
L 4075 2828 
L 4075 -247 
Q 4075 -797 3569 -797 
Q 3375 -797 3081 -791 
Q 3050 -653 2994 -403 
Q 3244 -422 3450 -422 
Q 3675 -422 3675 -172 
L 3675 553 
L 2813 553 
L 2813 -853 
z
M 4619 5253 
L 4513 5116 
Q 5244 4016 6344 3541 
Q 6131 3291 6019 3109 
Q 5594 3347 5231 3647 
L 5231 3334 
L 3063 3334 
L 3063 3609 
Q 2694 3303 2294 3047 
Q 2106 3291 1963 3428 
Q 3206 4153 3969 5253 
L 4619 5253 
z
M 5550 2941 
L 5975 2941 
L 5975 -103 
Q 5975 -797 5388 -803 
Q 5069 -809 4656 -791 
Q 4625 -559 4569 -322 
Q 4963 -372 5244 -372 
Q 5550 -372 5550 -47 
L 5550 2941 
z
M 4206 4791 
Q 3738 4203 3194 3728 
L 5131 3728 
Q 4600 4191 4206 4791 
z
M 4594 2641 
L 4994 2641 
L 4994 366 
L 4594 366 
L 4594 2641 
z
M 2813 903 
L 3675 903 
L 3675 1503 
L 2813 1503 
L 2813 903 
z
M 3675 2447 
L 2813 2447 
L 2813 1853 
L 3675 1853 
L 3675 2447 
z
" transform="scale(0.015625)"/>
      <path id="MicrosoftYaHei-51fa" d="M 5100 2172 
L 5100 2403 
L 3456 2403 
L 3456 -47 
L 5288 -47 
L 5288 1734 
L 5813 1734 
L 5813 -747 
L 5288 -747 
L 5288 -522 
L 588 -522 
L 588 1734 
L 1119 1734 
L 1119 -47 
L 2913 -47 
L 2913 2403 
L 756 2403 
L 756 4647 
L 1288 4647 
L 1288 2878 
L 2913 2878 
L 2913 5222 
L 3456 5222 
L 3456 2878 
L 5100 2878 
L 5100 4647 
L 5631 4647 
L 5631 2172 
L 5100 2172 
z
" transform="scale(0.015625)"/>
      <path id="MicrosoftYaHei-6458" d="M 2213 3347 
L 3297 3347 
Q 3103 3631 2863 3953 
L 3203 4184 
L 2069 4184 
L 2069 4597 
L 3981 4597 
Q 3853 4850 3663 5159 
L 4088 5359 
Q 4319 4984 4450 4728 
L 4175 4597 
L 6231 4597 
L 6231 4184 
L 4906 4184 
L 5319 3978 
Q 5094 3666 4847 3347 
L 6006 3347 
L 6006 -34 
Q 6006 -741 5281 -741 
Q 4975 -741 4619 -728 
Q 4588 -491 4519 -234 
Q 4931 -291 5256 -291 
Q 5556 -291 5556 41 
L 5556 2972 
L 2663 2972 
L 2663 -809 
L 2213 -809 
L 2213 3347 
z
M 100 1966 
Q 547 2088 938 2203 
L 938 3641 
L 175 3641 
L 175 4091 
L 938 4091 
L 938 5259 
L 1400 5259 
L 1400 4091 
L 2038 4091 
L 2038 3641 
L 1400 3641 
L 1400 2341 
Q 1719 2441 1994 2534 
Q 2000 2253 2031 2047 
Q 1694 1938 1400 1844 
L 1400 -47 
Q 1400 -703 900 -741 
Q 631 -753 206 -747 
Q 181 -491 131 -228 
Q 513 -266 688 -266 
Q 938 -266 938 41 
L 938 1691 
Q 481 1541 163 1428 
L 100 1966 
z
M 3131 1516 
L 3888 1516 
L 3888 2028 
L 2925 2028 
L 2925 2391 
L 3888 2391 
L 3888 2816 
L 4313 2816 
L 4313 2391 
L 5275 2391 
L 5275 2028 
L 4313 2028 
L 4313 1516 
L 5069 1516 
L 5069 166 
L 3544 166 
L 3544 -28 
L 3131 -28 
L 3131 1516 
z
M 3713 3547 
L 3425 3347 
L 4375 3347 
Q 4641 3747 4875 4184 
L 3216 4184 
Q 3472 3881 3713 3547 
z
M 4656 528 
L 4656 1153 
L 3544 1153 
L 3544 528 
L 4656 528 
z
" transform="scale(0.015625)"/>
      <path id="MicrosoftYaHei-8981" d="M 613 3978 
L 2181 3978 
L 2181 4659 
L 313 4659 
L 313 5084 
L 6088 5084 
L 6088 4659 
L 4213 4659 
L 4213 3978 
L 5781 3978 
L 5781 2116 
L 5319 2116 
L 5319 2353 
L 1075 2353 
L 1075 2116 
L 613 2116 
L 613 3978 
z
M 94 1741 
L 1959 1741 
Q 2150 2038 2319 2341 
L 2800 2147 
Q 2663 1941 2528 1741 
L 6300 1741 
L 6300 1316 
L 4856 1316 
Q 4497 681 3925 247 
Q 4853 -31 5875 -347 
L 5600 -834 
Q 4550 -469 3394 -81 
Q 2300 -650 531 -872 
Q 419 -641 288 -391 
Q 1809 -253 2750 134 
Q 1991 388 1188 653 
Q 1447 981 1675 1316 
L 94 1316 
L 94 1741 
z
M 1900 853 
Q 2584 650 3328 428 
Q 3938 797 4269 1316 
L 2231 1316 
Q 2066 1078 1900 853 
z
M 2644 2753 
L 3750 2753 
L 3750 3578 
L 2644 3578 
L 2644 2753 
z
M 5319 3578 
L 4213 3578 
L 4213 2753 
L 5319 2753 
L 5319 3578 
z
M 1075 2753 
L 2181 2753 
L 2181 3578 
L 1075 3578 
L 1075 2753 
z
M 2644 3978 
L 3750 3978 
L 3750 4659 
L 2644 4659 
L 2644 3978 
z
" transform="scale(0.015625)"/>
      <path id="MicrosoftYaHei-ff0c" d="M 1931 775 
L 1403 -891 
L 966 -891 
L 1350 775 
L 1931 775 
z
" transform="scale(0.015625)"/>
      <path id="MicrosoftYaHei-4fdd" d="M 2263 5003 
L 5750 5003 
L 5750 2647 
L 5275 2647 
L 5275 2884 
L 4225 2884 
L 4225 2041 
L 6288 2041 
L 6288 1616 
L 4588 1616 
Q 5163 659 6338 109 
Q 6144 -159 6025 -353 
Q 4850 359 4225 1572 
L 4225 -847 
L 3769 -847 
L 3769 1597 
Q 3013 234 1875 -478 
Q 1731 -303 1525 -97 
Q 2638 516 3331 1616 
L 1694 1616 
L 1694 2041 
L 3769 2041 
L 3769 2884 
L 2738 2884 
L 2738 2603 
L 2263 2603 
L 2263 5003 
z
M 69 2247 
Q 906 3497 1369 5278 
L 1831 5141 
Q 1575 4316 1275 3597 
L 1275 -816 
L 825 -816 
L 825 2653 
Q 556 2159 263 1734 
Q 175 1997 69 2247 
z
M 5275 4584 
L 2738 4584 
L 2738 3303 
L 5275 3303 
L 5275 4584 
z
" transform="scale(0.015625)"/>
      <path id="MicrosoftYaHei-8bc1" d="M 1681 -34 
L 2550 -34 
L 2550 3422 
L 3031 3422 
L 3031 -34 
L 4025 -34 
L 4025 4534 
L 2025 4534 
L 2025 4997 
L 6200 4997 
L 6200 4534 
L 4525 4534 
L 4525 2653 
L 5975 2653 
L 5975 2191 
L 4525 2191 
L 4525 -34 
L 6300 -34 
L 6300 -497 
L 1681 -497 
L 1681 -34 
z
M 2050 1534 
Q 2075 1316 2169 991 
Q 1413 241 1025 -203 
L 669 203 
Q 856 466 856 828 
L 856 2784 
L 100 2784 
L 100 3234 
L 1338 3234 
L 1338 797 
Q 1625 1072 2050 1534 
z
M 706 5222 
Q 1438 4478 1731 4147 
L 1294 3778 
Q 900 4291 325 4891 
L 706 5222 
z
" transform="scale(0.015625)"/>
      <path id="MicrosoftYaHei-5b9e" d="M 113 -397 
Q 2419 34 3081 972 
L 213 972 
L 213 1434 
L 3313 1434 
Q 3525 2084 3506 3703 
L 4031 3703 
Q 4031 2097 3856 1434 
L 6225 1434 
L 6225 972 
L 3681 972 
Q 3631 872 3563 759 
Q 4900 197 6181 -403 
L 5906 -878 
Q 4569 -197 3263 391 
Q 2413 -441 413 -891 
Q 269 -616 113 -397 
z
M 331 4422 
L 3194 4422 
Q 3038 4703 2775 5078 
L 3231 5334 
Q 3438 5059 3731 4609 
L 3388 4422 
L 6063 4422 
L 6063 3303 
L 5563 3303 
L 5563 3959 
L 831 3959 
L 831 3303 
L 331 3303 
L 331 4422 
z
M 1100 2734 
Q 1819 2409 2450 2053 
L 2181 1622 
Q 1556 2003 863 2334 
L 1100 2734 
z
M 1663 3691 
Q 2388 3341 2981 2984 
L 2700 2559 
Q 2119 2934 1419 3322 
L 1663 3691 
z
" transform="scale(0.015625)"/>
      <path id="MicrosoftYaHei-9a8c" d="M 963 4116 
L 819 2397 
L 1450 2397 
L 1613 4503 
L 194 4503 
L 194 4928 
L 2088 4928 
L 1894 2397 
L 2288 2397 
Q 2244 1078 2206 228 
Q 2188 -722 1381 -722 
Q 1044 -722 588 -703 
Q 556 -472 506 -209 
Q 956 -266 1306 -266 
Q 1744 -266 1769 266 
Q 1806 953 1831 1972 
L 331 1972 
L 531 4116 
L 963 4116 
z
M 2338 -103 
L 4594 -103 
Q 5044 1009 5394 2222 
L 5869 2072 
Q 5500 953 5088 -103 
L 6188 -103 
L 6188 -534 
L 2338 -534 
L 2338 -103 
z
M 4606 5278 
L 4488 5078 
Q 5244 3734 6363 3122 
Q 6163 2872 6031 2684 
Q 4931 3497 4238 4641 
Q 3600 3509 2456 2609 
Q 2344 2772 2144 3003 
Q 3388 3866 4050 5278 
L 4606 5278 
z
M 2975 2978 
L 5550 2978 
L 5550 2547 
L 2975 2547 
L 2975 2978 
z
M 3731 2178 
L 4175 2297 
Q 4438 1359 4606 659 
L 4150 528 
Q 3969 1391 3731 2178 
z
M 2656 1897 
L 3094 2034 
Q 3400 1147 3606 453 
L 3144 297 
Q 2938 1097 2656 1897 
z
M 38 1034 
Q 763 1178 1631 1384 
Q 1625 1134 1638 941 
Q 925 791 131 572 
L 38 1034 
z
" transform="scale(0.015625)"/>
      <path id="MicrosoftYaHei-8ffd" d="M 2238 4616 
L 3231 4616 
Q 3381 5009 3463 5378 
L 3944 5291 
Q 3825 4931 3688 4616 
L 5619 4616 
L 5619 2678 
L 5156 2678 
L 5156 2916 
L 2713 2916 
L 2713 2209 
L 5744 2209 
L 5744 109 
L 5281 109 
L 5281 434 
L 2713 434 
L 2713 66 
L 2238 66 
L 2238 4616 
z
M 2666 -219 
L 4106 -247 
L 6319 -191 
Q 6213 -441 6113 -672 
L 3988 -703 
L 2628 -666 
Q 1581 -653 1088 47 
Q 906 -97 356 -753 
L 88 -222 
Q 478 131 863 459 
L 863 2641 
L 150 2641 
L 150 3097 
L 1350 3097 
L 1350 363 
Q 1800 -188 2666 -219 
z
M 5281 1797 
L 2713 1797 
L 2713 847 
L 5281 847 
L 5281 1797 
z
M 5156 4203 
L 2713 4203 
L 2713 3328 
L 5156 3328 
L 5156 4203 
z
M 731 5266 
Q 1194 4722 1694 4047 
L 1244 3747 
Q 838 4372 344 4984 
L 731 5266 
z
" transform="scale(0.015625)"/>
      <path id="MicrosoftYaHei-6eaf" d="M 4275 4916 
L 6031 4916 
L 6031 -22 
Q 6031 -759 5369 -759 
Q 5088 -759 4750 -753 
Q 4731 -591 4675 -291 
Q 5006 -322 5275 -322 
Q 5581 -322 5581 41 
L 5581 1253 
L 4694 1253 
Q 4650 78 3794 -891 
Q 3619 -697 3413 -547 
Q 3925 3 4100 553 
Q 4275 1084 4275 2066 
L 4275 4916 
z
M 3394 3216 
L 3825 3216 
L 3825 866 
L 3394 866 
L 3394 1128 
L 2875 1128 
Q 2800 -72 1738 -884 
Q 1525 -622 1369 -484 
Q 2313 153 2425 1128 
L 1575 1128 
L 1575 3216 
L 2006 3216 
L 2006 1541 
L 2469 1541 
Q 2481 1741 2481 3672 
L 1406 3672 
L 1406 4084 
L 2794 4084 
Q 3138 4691 3388 5259 
L 3838 5066 
Q 3469 4428 3250 4084 
L 4031 4084 
L 4031 3672 
L 2919 3672 
Q 2919 1953 2906 1541 
L 3394 1541 
L 3394 3216 
z
M 794 1809 
Q 1006 1709 1256 1622 
Q 1013 616 694 -772 
L 194 -603 
Q 569 609 794 1809 
z
M 4719 1672 
L 5581 1672 
L 5581 2872 
L 4725 2872 
Q 4725 2028 4719 1672 
z
M 5581 4484 
L 4725 4484 
L 4725 3297 
L 5581 3297 
L 5581 4484 
z
M 375 3584 
Q 850 3228 1281 2859 
Q 1075 2622 944 2472 
Q 525 2891 88 3247 
L 375 3584 
z
M 613 5159 
Q 1025 4841 1450 4478 
Q 1269 4291 1119 4128 
Q 613 4616 331 4841 
L 613 5159 
z
M 1594 5034 
L 1944 5266 
Q 2313 4797 2519 4459 
L 2125 4191 
Q 1856 4678 1594 5034 
z
" transform="scale(0.015625)"/>
      <path id="MicrosoftYaHei-6bd4" d="M 3225 5316 
L 3744 5316 
L 3744 2672 
Q 4959 3550 5744 4509 
L 6188 4178 
Q 5175 3063 3744 2056 
L 3744 247 
Q 3744 -166 4106 -166 
L 5175 -166 
Q 5588 -166 5650 203 
Q 5725 678 5763 1247 
Q 6025 1147 6300 1066 
Q 6244 484 6150 22 
Q 6019 -622 5319 -622 
L 3944 -622 
Q 3225 -622 3225 159 
L 3225 5316 
z
M 1063 5153 
L 1063 3278 
L 2825 3278 
L 2825 2809 
L 1063 2809 
L 1063 153 
Q 1713 428 2763 928 
Q 2763 634 2788 366 
Q 1869 -3 1231 -328 
Q 956 -472 725 -672 
L 344 -184 
Q 544 -34 544 272 
L 544 5153 
L 1063 5153 
z
" transform="scale(0.015625)"/>
      <path id="MicrosoftYaHei-8f83" d="M 694 2234 
L 1438 2234 
L 1438 3603 
L 1875 3603 
L 1875 2234 
L 2513 2234 
L 2513 1828 
L 1875 1828 
L 1875 981 
Q 2288 1031 2688 1084 
Q 2656 847 2644 653 
Q 2294 613 1875 559 
L 1875 -841 
L 1438 -841 
L 1438 506 
Q 844 428 131 334 
L 81 791 
Q 778 856 1438 928 
L 1438 1828 
L 238 1828 
L 238 2222 
Q 575 3156 816 3928 
L 156 3928 
L 156 4347 
L 941 4347 
Q 1103 4891 1206 5347 
L 1688 5247 
Q 1559 4831 1403 4347 
L 2494 4347 
L 2494 3928 
L 1269 3928 
Q 1016 3156 694 2234 
z
M 5525 2341 
Q 5200 1303 4694 644 
Q 5306 69 6331 -247 
Q 6094 -522 5944 -728 
Q 4972 -334 4353 256 
Q 3641 -450 2563 -828 
Q 2481 -666 2263 -384 
Q 3341 -22 4025 619 
Q 3531 1247 3219 2203 
L 3644 2397 
Q 3909 1572 4363 1003 
Q 4813 1622 5063 2497 
L 5525 2341 
z
M 2719 4366 
L 4316 4366 
Q 4109 4728 3806 5116 
L 4188 5359 
Q 4538 4966 4788 4578 
L 4459 4366 
L 6225 4366 
L 6225 3928 
L 2719 3928 
L 2719 4366 
z
M 4663 3422 
L 5006 3722 
Q 5669 3103 6256 2434 
L 5881 2097 
Q 5344 2747 4663 3422 
z
M 3600 3741 
L 4013 3484 
Q 3456 2628 2925 1997 
Q 2706 2191 2544 2297 
Q 3106 2922 3600 3741 
z
" transform="scale(0.015625)"/>
      <path id="MicrosoftYaHei-590d" d="M 81 3559 
Q 975 4259 1563 5347 
L 2113 5347 
Q 1963 5084 1803 4841 
L 6200 4841 
L 6200 4441 
L 1525 4441 
Q 1356 4209 1175 3997 
L 5575 3997 
L 5575 1697 
L 5138 1697 
L 5138 1859 
L 1463 1859 
L 1463 1634 
L 1031 1634 
L 1031 3828 
Q 716 3475 369 3166 
Q 263 3347 81 3559 
z
M 81 291 
Q 1231 853 1931 1709 
L 2488 1709 
Q 2350 1534 2206 1372 
L 5588 1372 
L 5588 1034 
Q 4981 494 4038 69 
Q 5016 -188 6319 -284 
Q 6150 -566 6025 -797 
Q 4503 -584 3416 -175 
Q 2303 -563 725 -872 
Q 606 -666 438 -447 
Q 1988 -191 2856 59 
Q 2153 397 1678 838 
Q 1084 303 388 -53 
Q 250 128 81 291 
z
M 1463 2247 
L 5138 2247 
L 5138 2747 
L 1463 2747 
L 1463 2247 
z
M 5138 3609 
L 1463 3609 
L 1463 3116 
L 5138 3116 
L 5138 3609 
z
M 4869 1009 
L 2025 1009 
Q 2572 553 3428 253 
Q 4297 591 4869 1009 
z
" transform="scale(0.015625)"/>
      <path id="MicrosoftYaHei-6838" d="M 2063 759 
Q 3306 1403 4150 2284 
Q 3538 2222 3013 2166 
Q 2781 2141 2581 2078 
L 2350 2534 
Q 2606 2672 2750 2859 
Q 3144 3341 3519 3959 
L 2331 3959 
L 2331 4409 
L 4250 4409 
Q 3994 4791 3775 5091 
L 4181 5347 
Q 4419 5053 4731 4628 
L 4400 4409 
L 6313 4409 
L 6313 3959 
L 4100 3959 
Q 3644 3266 3156 2653 
Q 3844 2691 4550 2734 
Q 4906 3178 5175 3678 
L 5631 3434 
Q 4563 1559 2419 378 
Q 2244 572 2063 759 
z
M 88 1353 
Q 756 2416 1025 3616 
L 131 3616 
L 131 4053 
L 1031 4053 
L 1031 5297 
L 1500 5297 
L 1500 4053 
L 2213 4053 
L 2213 3616 
L 1500 3616 
L 1500 2516 
L 1694 2722 
Q 2094 2384 2438 2047 
L 2119 1728 
Q 1813 2059 1500 2347 
L 1500 -866 
L 1031 -866 
L 1031 2447 
Q 713 1422 288 803 
Q 206 1072 88 1353 
z
M 2250 -472 
Q 4388 428 5769 2466 
L 6194 2178 
Q 5656 1403 5019 784 
Q 5738 197 6369 -366 
L 5988 -772 
Q 5400 -191 4675 466 
Q 3731 -366 2581 -884 
Q 2463 -716 2250 -472 
z
" transform="scale(0.015625)"/>
     </defs>
     <use xlink:href="#MicrosoftYaHei-7edf"/>
     <use xlink:href="#MicrosoftYaHei-4e00" transform="translate(100 0)"/>
     <use xlink:href="#MicrosoftYaHei-20" transform="translate(200 0)"/>
     <use xlink:href="#MicrosoftYaHei-63" transform="translate(229.589844 0)"/>
     <use xlink:href="#MicrosoftYaHei-61" transform="translate(279.736328 0)"/>
     <use xlink:href="#MicrosoftYaHei-73" transform="translate(335.009766 0)"/>
     <use xlink:href="#MicrosoftYaHei-65" transform="translate(381.298828 0)"/>
     <use xlink:href="#MicrosoftYaHei-5f" transform="translate(438.037109 0)"/>
     <use xlink:href="#MicrosoftYaHei-69" transform="translate(482.861328 0)"/>
     <use xlink:href="#MicrosoftYaHei-64" transform="translate(509.472656 0)"/>
     <use xlink:href="#MicrosoftYaHei-3001" transform="translate(573.4375 0)"/>
     <use xlink:href="#MicrosoftYaHei-8bf7" transform="translate(673.4375 0)"/>
     <use xlink:href="#MicrosoftYaHei-6c42" transform="translate(773.4375 0)"/>
     <use xlink:href="#MicrosoftYaHei-6587" transform="translate(873.4375 0)"/>
     <use xlink:href="#MicrosoftYaHei-4ef6" transform="translate(973.4375 0)"/>
     <use xlink:href="#MicrosoftYaHei-3001" transform="translate(1073.4375 0)"/>
     <use xlink:href="#MicrosoftYaHei-8bc4" transform="translate(1173.4375 0)"/>
     <use xlink:href="#MicrosoftYaHei-4f30" transform="translate(1273.4375 0)"/>
     <use xlink:href="#MicrosoftYaHei-8f93" transform="translate(1373.4375 0)"/>
     <use xlink:href="#MicrosoftYaHei-51fa" transform="translate(1473.4375 0)"/>
     <use xlink:href="#MicrosoftYaHei-4e0e" transform="translate(1573.4375 0)"/>
     <use xlink:href="#MicrosoftYaHei-6458" transform="translate(1673.4375 0)"/>
     <use xlink:href="#MicrosoftYaHei-8981" transform="translate(1773.4375 0)"/>
     <use xlink:href="#MicrosoftYaHei-8868" transform="translate(1873.4375 0)"/>
     <use xlink:href="#MicrosoftYaHei-ff0c" transform="translate(1973.4375 0)"/>
     <use xlink:href="#MicrosoftYaHei-4fdd" transform="translate(2073.4375 0)"/>
     <use xlink:href="#MicrosoftYaHei-8bc1" transform="translate(2173.4375 0)"/>
     <use xlink:href="#MicrosoftYaHei-5b9e" transform="translate(2273.4375 0)"/>
     <use xlink:href="#MicrosoftYaHei-9a8c" transform="translate(2373.4375 0)"/>
     <use xlink:href="#MicrosoftYaHei-7ed3" transform="translate(2473.4375 0)"/>
     <use xlink:href="#MicrosoftYaHei-679c" transform="translate(2573.4375 0)"/>
     <use xlink:href="#MicrosoftYaHei-53ef" transform="translate(2673.4375 0)"/>
     <use xlink:href="#MicrosoftYaHei-8ffd" transform="translate(2773.4375 0)"/>
     <use xlink:href="#MicrosoftYaHei-6eaf" transform="translate(2873.4375 0)"/>
     <use xlink:href="#MicrosoftYaHei-3001" transform="translate(2973.4375 0)"/>
     <use xlink:href="#MicrosoftYaHei-53ef" transform="translate(3073.4375 0)"/>
     <use xlink:href="#MicrosoftYaHei-6bd4" transform="translate(3173.4375 0)"/>
     <use xlink:href="#MicrosoftYaHei-8f83" transform="translate(3273.4375 0)"/>
     <use xlink:href="#MicrosoftYaHei-3001" transform="translate(3373.4375 0)"/>
     <use xlink:href="#MicrosoftYaHei-53ef" transform="translate(3473.4375 0)"/>
     <use xlink:href="#MicrosoftYaHei-590d" transform="translate(3573.4375 0)"/>
     <use xlink:href="#MicrosoftYaHei-6838" transform="translate(3673.4375 0)"/>
    </g>
   </g>
  </g>
 </g>
 <defs>
  <clipPath id="p0cc7afd87b">
   <rect x="7.2" y="7.2" width="770.4" height="208.8"/>
  </clipPath>
 </defs>
</svg>
